{"glyphs":{"0":{"ha":981,"x_min":74,"x_max":910,"o":"m 492 981 q 801 853 693 981 q 910 486 910 725 q 801 121 910 249 q 492 -7 693 -7 q 182 121 290 -7 q 74 486 74 249 q 182 853 74 725 q 492 981 290 981 m 492 833 q 321 749 376 833 q 265 486 265 665 q 321 224 265 308 q 492 139 376 139 q 663 224 607 139 q 718 486 718 308 q 663 749 718 665 q 492 833 607 833 z "},"1":{"ha":531,"x_min":1,"x_max":392,"o":"m 1 972 l 392 972 l 392 0 l 206 0 l 206 808 l 1 808 l 1 972 z "},"2":{"ha":819,"x_min":33,"x_max":772,"o":"m 772 163 l 772 0 l 53 0 l 53 135 l 419 513 q 504 617 472 565 q 536 706 536 668 q 494 788 536 758 q 379 818 453 818 q 243 786 315 818 q 107 697 171 754 l 33 840 q 215 944 119 907 q 406 981 310 981 q 575 950 501 981 q 690 863 649 919 q 731 733 731 807 q 682 583 731 663 q 546 413 633 504 l 299 163 l 772 163 z "},"3":{"ha":824,"x_min":15,"x_max":761,"o":"m 467 567 q 681 485 601 554 q 761 303 761 415 q 714 141 761 211 q 579 31 667 71 q 375 -8 492 -8 q 180 22 276 -8 q 15 101 83 51 l 89 246 q 218 172 147 197 q 363 146 289 146 q 522 188 464 146 q 579 300 579 229 q 522 410 579 372 q 360 449 465 449 l 213 449 l 213 561 l 474 814 l 64 814 l 63 972 l 713 972 l 713 857 l 415 572 l 467 567 z "},"4":{"ha":833,"x_min":11,"x_max":789,"o":"m 789 389 l 789 229 l 649 229 l 649 0 l 476 0 l 476 229 l 11 229 l 11 367 l 328 972 l 507 972 l 210 389 l 476 389 l 476 614 l 649 614 l 649 389 l 789 389 z "},"5":{"ha":861,"x_min":58,"x_max":806,"o":"m 439 617 q 632 579 549 617 q 760 474 715 542 q 806 322 806 407 q 758 149 806 224 q 625 33 711 74 q 425 -8 539 -8 q 234 23 333 -8 q 58 107 135 54 l 132 253 q 265 177 194 204 q 407 150 336 150 q 552 192 499 150 q 606 308 606 235 q 553 418 606 379 q 396 457 500 457 q 264 453 346 457 q 138 446 182 450 l 138 972 l 763 972 l 763 810 l 310 810 l 310 617 l 439 617 z "},"6":{"ha":879,"x_min":67,"x_max":814,"o":"m 715 767 q 616 813 672 797 q 503 829 560 829 q 306 742 372 829 q 244 503 240 654 q 347 599 282 567 q 500 632 411 632 q 729 547 644 632 q 814 321 814 463 q 771 147 814 221 q 649 32 728 72 q 467 -8 571 -8 q 253 49 343 -8 q 115 213 163 106 q 67 468 67 319 q 119 738 67 622 q 267 917 171 854 q 492 981 363 981 q 647 960 567 981 q 786 906 726 940 l 715 767 m 464 489 q 322 439 375 489 q 271 315 269 389 q 290 235 269 274 q 353 173 311 197 q 458 149 396 149 q 592 194 542 149 q 642 322 642 240 q 594 444 642 399 q 464 489 546 489 z "},"7":{"ha":799,"x_min":13,"x_max":763,"o":"m 13 972 l 763 972 l 763 833 l 363 0 l 165 0 l 553 810 l 179 810 l 178 672 l 13 672 l 13 972 z "},"8":{"ha":878,"x_min":61,"x_max":814,"o":"m 436 981 q 677 912 589 981 q 765 725 765 843 q 729 604 765 658 q 629 519 693 550 q 765 422 715 488 q 814 272 814 357 q 768 124 814 188 q 637 26 722 60 q 438 -8 551 -8 q 238 26 324 -8 q 107 122 153 60 q 61 269 61 185 q 113 422 61 356 q 254 519 164 488 q 148 608 186 553 q 110 732 110 664 q 198 913 110 846 q 436 981 286 981 m 438 847 q 312 813 357 847 q 267 715 267 778 q 312 618 267 653 q 438 583 357 583 q 563 618 518 583 q 607 715 607 653 q 563 813 607 778 q 438 847 518 847 m 436 439 q 289 400 342 439 q 236 290 236 361 q 289 178 236 218 q 438 138 342 138 q 585 177 532 138 q 639 289 639 217 q 585 399 639 360 q 436 439 532 439 z "},"9":{"ha":876,"x_min":60,"x_max":803,"o":"m 157 206 q 256 160 200 176 q 367 144 311 144 q 563 231 497 144 q 625 469 628 318 q 522 374 588 407 q 369 340 457 340 q 143 425 226 340 q 60 653 60 510 q 102 826 60 753 q 222 940 144 900 q 404 981 300 981 q 617 924 528 981 q 755 760 707 867 q 803 506 803 653 q 751 235 803 351 q 603 55 699 118 q 379 -8 507 -8 q 226 13 306 -8 q 85 68 146 33 l 157 206 m 413 824 q 281 778 331 824 q 231 651 231 732 q 278 529 231 574 q 407 485 325 485 q 547 534 496 485 q 597 657 599 583 q 551 774 599 724 q 413 824 503 824 z "},"\u0000":{"ha":0,"x_min":0,"x_max":0,"o":""},"\r":{"ha":340,"x_min":0,"x_max":0,"o":""}," ":{"ha":340,"x_min":0,"x_max":0,"o":""},"A":{"ha":1038,"x_min":-1,"x_max":1039,"o":"m 839 0 l 753 206 l 278 206 l 192 0 l -1 0 l 425 972 l 618 972 l 1039 0 l 839 0 m 344 365 l 686 365 l 517 774 l 344 365 z "},"Á":{"ha":1038,"x_min":-1,"x_max":1039,"o":"m 839 0 l 753 206 l 278 206 l 192 0 l -1 0 l 425 972 l 618 972 l 1039 0 l 839 0 m 344 365 l 686 365 l 517 774 l 344 365 m 572 1264 l 746 1193 l 568 1050 l 428 1064 l 572 1264 z "},"Ă":{"ha":1038,"x_min":-1,"x_max":1039,"o":"m 839 0 l 753 206 l 278 206 l 192 0 l -1 0 l 425 972 l 618 972 l 1039 0 l 839 0 m 344 365 l 686 365 l 517 774 l 344 365 m 435 1257 q 461 1193 438 1218 q 519 1168 485 1168 q 578 1193 554 1168 q 604 1257 601 1218 l 724 1257 q 664 1108 721 1165 q 519 1051 607 1051 q 375 1108 432 1051 q 315 1257 318 1165 l 435 1257 z "},"Ắ":{"ha":1038,"x_min":-1,"x_max":1039,"o":"m 839 0 l 753 206 l 278 206 l 192 0 l -1 0 l 425 972 l 618 972 l 1039 0 l 839 0 m 344 365 l 686 365 l 517 774 l 344 365 z "},"Ặ":{"ha":1038,"x_min":-1,"x_max":1039,"o":"m 839 0 l 753 206 l 278 206 l 192 0 l -1 0 l 425 972 l 618 972 l 1039 0 l 839 0 m 344 365 l 686 365 l 517 774 l 344 365 m 513 -97 q 586 -128 557 -97 q 615 -206 615 -158 q 586 -282 615 -251 q 513 -312 557 -312 q 439 -282 468 -312 q 410 -206 410 -251 q 439 -128 410 -158 q 513 -97 468 -97 m 428 1257 q 454 1193 431 1218 q 513 1168 478 1168 q 571 1193 547 1168 q 597 1257 594 1218 l 717 1257 q 657 1108 714 1165 q 513 1051 600 1051 q 368 1108 425 1051 q 308 1257 311 1165 l 428 1257 z "},"Ằ":{"ha":1038,"x_min":-1,"x_max":1039,"o":"m 839 0 l 753 206 l 278 206 l 192 0 l -1 0 l 425 972 l 618 972 l 1039 0 l 839 0 m 344 365 l 686 365 l 517 774 l 344 365 z "},"Ẳ":{"ha":1038,"x_min":-1,"x_max":1039,"o":"m 839 0 l 753 206 l 278 206 l 192 0 l -1 0 l 425 972 l 618 972 l 1039 0 l 839 0 m 344 365 l 686 365 l 517 774 l 344 365 z "},"Ẵ":{"ha":1038,"x_min":-1,"x_max":1039,"o":"m 839 0 l 753 206 l 278 206 l 192 0 l -1 0 l 425 972 l 618 972 l 1039 0 l 839 0 m 344 365 l 686 365 l 517 774 l 344 365 z "},"Â":{"ha":1038,"x_min":-1,"x_max":1039,"o":"m 839 0 l 753 206 l 278 206 l 192 0 l -1 0 l 425 972 l 618 972 l 1039 0 l 839 0 m 344 365 l 686 365 l 517 774 l 344 365 m 757 1057 l 596 1057 l 519 1144 l 443 1057 l 282 1057 l 432 1257 l 607 1257 l 757 1057 z "},"Ấ":{"ha":1038,"x_min":-1,"x_max":1039,"o":"m 839 0 l 753 206 l 278 206 l 192 0 l -1 0 l 425 972 l 618 972 l 1039 0 l 839 0 m 344 365 l 686 365 l 517 774 l 344 365 z "},"Ậ":{"ha":1038,"x_min":-1,"x_max":1039,"o":"m 839 0 l 753 206 l 278 206 l 192 0 l -1 0 l 425 972 l 618 972 l 1039 0 l 839 0 m 344 365 l 686 365 l 517 774 l 344 365 m 513 -97 q 586 -128 557 -97 q 615 -206 615 -158 q 586 -282 615 -251 q 513 -312 557 -312 q 439 -282 468 -312 q 410 -206 410 -251 q 439 -128 410 -158 q 513 -97 468 -97 m 750 1057 l 589 1057 l 513 1144 l 436 1057 l 275 1057 l 425 1257 l 600 1257 l 750 1057 z "},"Ầ":{"ha":1038,"x_min":-1,"x_max":1039,"o":"m 839 0 l 753 206 l 278 206 l 192 0 l -1 0 l 425 972 l 618 972 l 1039 0 l 839 0 m 344 365 l 686 365 l 517 774 l 344 365 z "},"Ẩ":{"ha":1038,"x_min":-1,"x_max":1039,"o":"m 839 0 l 753 206 l 278 206 l 192 0 l -1 0 l 425 972 l 618 972 l 1039 0 l 839 0 m 344 365 l 686 365 l 517 774 l 344 365 z "},"Ẫ":{"ha":1038,"x_min":-1,"x_max":1039,"o":"m 839 0 l 753 206 l 278 206 l 192 0 l -1 0 l 425 972 l 618 972 l 1039 0 l 839 0 m 344 365 l 686 365 l 517 774 l 344 365 z "},"Ȁ":{"ha":1038,"x_min":-1,"x_max":1039,"o":"m 839 0 l 753 206 l 278 206 l 192 0 l -1 0 l 425 972 l 618 972 l 1039 0 l 839 0 m 344 365 l 686 365 l 517 774 l 344 365 m 368 1271 l 478 1061 l 347 1049 l 219 1207 l 368 1271 m 608 1271 l 718 1061 l 588 1049 l 460 1207 l 608 1271 z "},"Ä":{"ha":1038,"x_min":-1,"x_max":1039,"o":"m 839 0 l 753 206 l 278 206 l 192 0 l -1 0 l 425 972 l 618 972 l 1039 0 l 839 0 m 344 365 l 686 365 l 517 774 l 344 365 m 394 1238 q 458 1211 432 1238 q 483 1144 483 1185 q 458 1078 483 1106 q 394 1051 432 1051 q 330 1078 356 1051 q 304 1144 304 1106 q 330 1211 304 1185 q 394 1238 356 1238 m 646 1238 q 710 1211 685 1238 q 735 1144 735 1185 q 709 1078 735 1106 q 646 1051 683 1051 q 581 1078 607 1051 q 556 1144 556 1106 q 581 1211 556 1185 q 646 1238 607 1238 z "},"Ạ":{"ha":1038,"x_min":-1,"x_max":1039,"o":"m 839 0 l 753 206 l 278 206 l 192 0 l -1 0 l 425 972 l 618 972 l 1039 0 l 839 0 m 344 365 l 686 365 l 517 774 l 344 365 m 513 -97 q 586 -128 557 -97 q 615 -206 615 -158 q 586 -282 615 -251 q 513 -312 557 -312 q 439 -282 468 -312 q 410 -206 410 -251 q 439 -128 410 -158 q 513 -97 468 -97 z "},"À":{"ha":1038,"x_min":-1,"x_max":1039,"o":"m 839 0 l 753 206 l 278 206 l 192 0 l -1 0 l 425 972 l 618 972 l 1039 0 l 839 0 m 344 365 l 686 365 l 517 774 l 344 365 m 458 1264 l 599 1064 l 457 1050 l 285 1193 l 458 1264 z "},"Ả":{"ha":1038,"x_min":-1,"x_max":1039,"o":"m 839 0 l 753 206 l 278 206 l 192 0 l -1 0 l 425 972 l 618 972 l 1039 0 l 839 0 m 344 365 l 686 365 l 517 774 l 344 365 m 522 1332 q 624 1300 583 1332 q 665 1213 665 1268 q 635 1121 665 1169 q 556 1029 604 1072 l 464 1071 q 507 1128 492 1097 q 522 1181 522 1158 q 511 1207 522 1197 q 483 1217 500 1217 q 433 1200 457 1217 l 379 1286 q 522 1332 443 1332 z "},"Ȃ":{"ha":1038,"x_min":-1,"x_max":1039,"o":"m 839 0 l 753 206 l 278 206 l 192 0 l -1 0 l 425 972 l 618 972 l 1039 0 l 839 0 m 344 365 l 686 365 l 517 774 l 344 365 m 315 1057 q 375 1206 318 1149 q 519 1263 432 1263 q 664 1206 607 1263 q 724 1057 721 1149 l 604 1057 q 578 1120 601 1096 q 519 1144 554 1144 q 461 1120 485 1144 q 435 1057 438 1096 l 315 1057 z "},"Ā":{"ha":1038,"x_min":-1,"x_max":1039,"o":"m 839 0 l 753 206 l 278 206 l 192 0 l -1 0 l 425 972 l 618 972 l 1039 0 l 839 0 m 344 365 l 686 365 l 517 774 l 344 365 m 300 1178 l 740 1178 l 740 1063 l 300 1063 l 300 1178 z "},"Ą":{"ha":1038,"x_min":-1,"x_max":1039,"o":"m 1022 0 q 932 -78 960 -44 q 904 -143 904 -112 q 914 -172 904 -162 q 939 -182 924 -182 q 983 -171 965 -182 l 1022 -282 q 900 -310 958 -310 q 791 -274 832 -310 q 750 -176 750 -239 q 840 0 750 -82 l 839 0 l 753 206 l 278 206 l 192 0 l -1 0 l 425 972 l 618 972 l 1039 0 l 1022 0 m 344 365 l 686 365 l 517 774 l 344 365 z "},"Å":{"ha":1038,"x_min":-1,"x_max":1039,"o":"m 839 0 l 753 206 l 278 206 l 192 0 l -1 0 l 425 972 l 618 972 l 1039 0 l 839 0 m 344 365 l 686 365 l 517 774 l 344 365 m 519 1346 q 630 1300 583 1346 q 676 1190 676 1254 q 630 1080 676 1126 q 519 1033 583 1033 q 408 1080 454 1033 q 363 1190 363 1126 q 409 1300 363 1254 q 519 1346 456 1346 m 519 1257 q 471 1237 492 1257 q 450 1190 450 1217 q 471 1143 450 1163 q 519 1124 492 1124 q 568 1143 547 1124 q 589 1190 589 1163 q 568 1237 589 1217 q 519 1257 547 1257 z "},"Ǻ":{"ha":1038,"x_min":-1,"x_max":1039,"o":"m 839 0 l 753 206 l 278 206 l 192 0 l -1 0 l 425 972 l 618 972 l 1039 0 l 839 0 m 344 365 l 686 365 l 517 774 l 344 365 m 519 1346 q 630 1300 583 1346 q 676 1190 676 1254 q 630 1080 676 1126 q 519 1033 583 1033 q 408 1080 454 1033 q 363 1190 363 1126 q 409 1300 363 1254 q 519 1346 456 1346 m 519 1257 q 471 1237 492 1257 q 450 1190 450 1217 q 471 1143 450 1163 q 519 1124 492 1124 q 568 1143 547 1124 q 589 1190 589 1163 q 568 1237 589 1217 q 519 1257 547 1257 m 586 1581 l 731 1488 l 532 1379 l 408 1415 l 586 1581 z "},"Ã":{"ha":1038,"x_min":-1,"x_max":1039,"o":"m 839 0 l 753 206 l 278 206 l 192 0 l -1 0 l 425 972 l 618 972 l 1039 0 l 839 0 m 344 365 l 686 365 l 517 774 l 344 365 m 751 1246 q 629 1051 751 1051 q 570 1063 599 1051 q 507 1093 542 1074 q 444 1118 463 1118 q 415 1102 424 1118 q 407 1056 407 1086 l 292 1056 q 413 1251 292 1251 q 472 1240 443 1251 q 535 1210 500 1229 q 597 1185 579 1185 q 626 1201 618 1185 q 635 1246 635 1217 l 751 1246 z "},"Æ":{"ha":1479,"x_min":-1,"x_max":1410,"o":"m 867 163 l 1410 163 l 1410 0 l 682 0 l 682 228 l 321 228 l 194 0 l -1 0 l 561 972 l 1393 972 l 1393 810 l 867 810 l 867 569 l 1340 569 l 1340 407 l 867 407 l 867 163 m 403 374 l 682 374 l 682 819 l 650 819 l 403 374 z "},"Ǽ":{"ha":1479,"x_min":-1,"x_max":1410,"o":"m 867 163 l 1410 163 l 1410 0 l 682 0 l 682 228 l 321 228 l 194 0 l -1 0 l 561 972 l 1393 972 l 1393 810 l 867 810 l 867 569 l 1340 569 l 1340 407 l 867 407 l 867 163 m 403 374 l 682 374 l 682 819 l 650 819 l 403 374 m 954 1264 l 1128 1193 l 950 1050 l 810 1064 l 954 1264 z "},"B":{"ha":985,"x_min":119,"x_max":924,"o":"m 551 972 q 797 907 707 972 q 886 729 886 842 q 841 591 886 649 q 717 514 796 533 q 869 431 814 496 q 924 268 924 365 q 827 72 924 143 q 564 0 731 0 l 119 0 l 119 972 l 551 972 m 542 575 q 655 607 614 575 q 696 696 696 639 q 655 782 696 751 q 542 811 614 813 l 306 811 l 306 575 l 542 575 m 542 161 q 681 194 631 160 q 731 292 731 229 q 681 385 731 351 q 542 418 631 419 l 306 418 l 306 161 l 542 161 z "},"C":{"ha":967,"x_min":43,"x_max":933,"o":"m 824 692 q 702 785 772 751 q 560 818 632 818 q 394 775 469 818 q 276 656 319 732 q 233 490 233 581 q 276 324 233 400 q 394 205 319 249 q 560 161 469 161 q 699 192 629 161 q 824 276 769 222 l 933 154 q 756 31 857 76 q 550 -14 654 -14 q 293 53 410 -14 q 110 234 176 119 q 43 488 43 349 q 111 740 43 626 q 297 919 179 854 q 557 985 414 985 q 761 943 661 985 q 932 828 861 901 l 824 692 z "},"Ć":{"ha":967,"x_min":43,"x_max":933,"o":"m 824 692 q 702 785 772 751 q 560 818 632 818 q 394 775 469 818 q 276 656 319 732 q 233 490 233 581 q 276 324 233 400 q 394 205 319 249 q 560 161 469 161 q 699 192 629 161 q 824 276 769 222 l 933 154 q 756 31 857 76 q 550 -14 654 -14 q 293 53 410 -14 q 110 234 176 119 q 43 488 43 349 q 111 740 43 626 q 297 919 179 854 q 557 985 414 985 q 761 943 661 985 q 932 828 861 901 l 824 692 m 633 1264 l 807 1193 l 629 1050 l 489 1064 l 633 1264 z "},"Č":{"ha":967,"x_min":43,"x_max":933,"o":"m 824 692 q 702 785 772 751 q 560 818 632 818 q 394 775 469 818 q 276 656 319 732 q 233 490 233 581 q 276 324 233 400 q 394 205 319 249 q 560 161 469 161 q 699 192 629 161 q 824 276 769 222 l 933 154 q 756 31 857 76 q 550 -14 654 -14 q 293 53 410 -14 q 110 234 176 119 q 43 488 43 349 q 111 740 43 626 q 297 919 179 854 q 557 985 414 985 q 761 943 661 985 q 932 828 861 901 l 824 692 m 622 1257 l 783 1257 l 633 1057 l 458 1057 l 308 1257 l 469 1257 l 546 1169 l 622 1257 z "},"Ç":{"ha":967,"x_min":43,"x_max":933,"o":"m 933 154 q 778 42 865 86 q 599 -11 690 -1 l 575 -74 q 661 -113 633 -83 q 689 -185 689 -143 q 642 -278 689 -246 q 524 -311 596 -311 q 385 -282 456 -311 l 418 -185 q 497 -200 461 -200 q 539 -190 524 -200 q 554 -167 554 -181 q 536 -142 554 -151 q 485 -132 518 -132 l 443 -132 l 483 -10 q 258 74 358 6 q 100 251 157 143 q 43 488 43 360 q 111 740 43 626 q 297 919 179 854 q 557 985 414 985 q 761 943 661 985 q 932 828 861 901 l 824 692 q 702 785 772 751 q 560 818 632 818 q 394 775 469 818 q 276 656 319 732 q 233 490 233 581 q 276 324 233 400 q 394 205 319 249 q 560 161 469 161 q 699 192 629 161 q 824 276 769 222 l 933 154 z "},"Ḉ":{"ha":967,"x_min":43,"x_max":933,"o":"m 735 1193 l 557 1050 l 417 1064 l 561 1264 l 735 1193 m 933 154 q 778 42 865 86 q 599 -11 690 -1 l 575 -74 q 661 -113 633 -83 q 689 -185 689 -143 q 642 -278 689 -246 q 524 -311 596 -311 q 385 -282 456 -311 l 418 -185 q 497 -200 461 -200 q 539 -190 524 -200 q 554 -167 554 -181 q 536 -142 554 -151 q 485 -132 518 -132 l 443 -132 l 483 -10 q 258 74 358 6 q 100 251 157 143 q 43 488 43 360 q 111 740 43 626 q 297 919 179 854 q 557 985 414 985 q 761 943 661 985 q 932 828 861 901 l 824 692 q 702 785 772 751 q 560 818 632 818 q 394 775 469 818 q 276 656 319 732 q 233 490 233 581 q 276 324 233 400 q 394 205 319 249 q 560 161 469 161 q 699 192 629 161 q 824 276 769 222 l 933 154 z "},"Ĉ":{"ha":967,"x_min":43,"x_max":933,"o":"m 824 692 q 702 785 772 751 q 560 818 632 818 q 394 775 469 818 q 276 656 319 732 q 233 490 233 581 q 276 324 233 400 q 394 205 319 249 q 560 161 469 161 q 699 192 629 161 q 824 276 769 222 l 933 154 q 756 31 857 76 q 550 -14 654 -14 q 293 53 410 -14 q 110 234 176 119 q 43 488 43 349 q 111 740 43 626 q 297 919 179 854 q 557 985 414 985 q 761 943 661 985 q 932 828 861 901 l 824 692 m 818 1057 l 657 1057 l 581 1144 l 504 1057 l 343 1057 l 493 1257 l 668 1257 l 818 1057 z "},"Ċ":{"ha":967,"x_min":43,"x_max":933,"o":"m 824 692 q 702 785 772 751 q 560 818 632 818 q 394 775 469 818 q 276 656 319 732 q 233 490 233 581 q 276 324 233 400 q 394 205 319 249 q 560 161 469 161 q 699 192 629 161 q 824 276 769 222 l 933 154 q 756 31 857 76 q 550 -14 654 -14 q 293 53 410 -14 q 110 234 176 119 q 43 488 43 349 q 111 740 43 626 q 297 919 179 854 q 557 985 414 985 q 761 943 661 985 q 932 828 861 901 l 824 692 m 581 1267 q 654 1237 625 1267 q 683 1160 683 1207 q 654 1082 683 1113 q 581 1051 625 1051 q 507 1082 536 1051 q 478 1160 478 1113 q 507 1237 478 1207 q 581 1267 536 1267 z "},"D":{"ha":1074,"x_min":119,"x_max":1031,"o":"m 524 972 q 785 910 669 972 q 965 738 900 849 q 1031 486 1031 626 q 965 235 1031 346 q 782 63 899 125 q 517 0 665 0 l 119 0 l 119 972 l 524 972 m 528 164 q 688 205 617 164 q 800 319 760 246 q 840 485 840 392 q 799 652 840 578 q 684 767 757 726 q 521 808 611 808 l 306 808 l 306 164 l 528 164 z "},"Ǆ":{"ha":2001,"x_min":119,"x_max":1953,"o":"m 524 972 q 785 910 669 972 q 965 738 900 849 q 1031 486 1031 626 q 965 235 1031 346 q 782 63 899 125 q 517 0 665 0 l 119 0 l 119 972 l 524 972 m 528 164 q 688 205 617 164 q 800 319 760 246 q 840 485 840 392 q 799 652 840 578 q 684 767 757 726 q 521 808 611 808 l 306 808 l 306 164 l 528 164 m 1140 972 l 1946 972 l 1946 842 l 1374 163 l 1953 163 l 1953 0 l 1122 0 l 1122 132 l 1694 810 l 1139 810 l 1140 972 m 1585 1257 l 1746 1257 l 1596 1057 l 1421 1057 l 1271 1257 l 1432 1257 l 1508 1169 l 1585 1257 z "},"Ð":{"ha":1074,"x_min":21,"x_max":1029,"o":"m 524 972 q 785 910 669 972 q 965 738 900 849 q 1029 486 1029 626 q 964 235 1029 346 q 782 63 899 125 q 518 0 665 0 l 119 0 l 119 436 l 21 436 l 21 538 l 119 538 l 119 972 l 524 972 m 528 164 q 688 205 617 164 q 801 319 760 246 q 842 485 842 392 q 799 651 842 578 q 683 767 757 725 q 519 808 610 808 l 306 808 l 306 538 l 568 538 l 568 436 l 306 436 l 306 164 l 528 164 z "},"Ď":{"ha":1074,"x_min":119,"x_max":1031,"o":"m 524 972 q 785 910 669 972 q 965 738 900 849 q 1031 486 1031 626 q 965 235 1031 346 q 782 63 899 125 q 517 0 665 0 l 119 0 l 119 972 l 524 972 m 528 164 q 688 205 617 164 q 800 319 760 246 q 840 485 840 392 q 799 652 840 578 q 684 767 757 726 q 521 808 611 808 l 306 808 l 306 164 l 528 164 m 546 1257 l 707 1257 l 557 1057 l 382 1057 l 232 1257 l 393 1257 l 469 1169 l 546 1257 z "},"Đ":{"ha":1074,"x_min":21,"x_max":1029,"o":"m 524 972 q 785 910 669 972 q 965 738 900 849 q 1029 486 1029 626 q 964 235 1029 346 q 782 63 899 125 q 518 0 665 0 l 119 0 l 119 436 l 21 436 l 21 538 l 119 538 l 119 972 l 524 972 m 528 164 q 688 205 617 164 q 801 319 760 246 q 842 485 842 392 q 799 651 842 578 q 683 767 757 725 q 519 808 610 808 l 306 808 l 306 538 l 568 538 l 568 436 l 306 436 l 306 164 l 528 164 z "},"Ḍ":{"ha":1074,"x_min":119,"x_max":1031,"o":"m 524 972 q 785 910 669 972 q 965 738 900 849 q 1031 486 1031 626 q 965 235 1031 346 q 782 63 899 125 q 517 0 665 0 l 119 0 l 119 972 l 524 972 m 528 164 q 688 205 617 164 q 800 319 760 246 q 840 485 840 392 q 799 652 840 578 q 684 767 757 726 q 521 808 611 808 l 306 808 l 306 164 l 528 164 m 524 -97 q 597 -128 568 -97 q 626 -206 626 -158 q 597 -282 626 -251 q 524 -312 568 -312 q 450 -282 479 -312 q 421 -206 421 -251 q 450 -128 421 -158 q 524 -97 479 -97 z "},"Ḏ":{"ha":1074,"x_min":119,"x_max":1031,"o":"m 524 972 q 785 910 669 972 q 965 738 900 849 q 1031 486 1031 626 q 965 235 1031 346 q 782 63 899 125 q 517 0 665 0 l 119 0 l 119 972 l 524 972 m 528 164 q 688 205 617 164 q 800 319 760 246 q 840 485 840 392 q 799 652 840 578 q 684 767 757 726 q 521 808 611 808 l 306 808 l 306 164 l 528 164 m 315 -111 l 731 -111 l 731 -226 l 315 -226 l 315 -111 z "},"ǅ":{"ha":1825,"x_min":119,"x_max":1776,"o":"m 524 972 q 785 910 669 972 q 965 738 900 849 q 1031 486 1031 626 q 965 235 1031 346 q 782 63 899 125 q 517 0 665 0 l 119 0 l 119 972 l 524 972 m 528 164 q 688 205 617 164 q 800 319 760 246 q 840 485 840 392 q 799 652 840 578 q 684 767 757 726 q 521 808 611 808 l 306 808 l 306 164 l 528 164 m 1146 742 l 1765 742 l 1765 622 l 1357 147 l 1776 146 l 1776 -1 l 1132 0 l 1132 119 l 1540 594 l 1146 596 l 1146 742 m 1533 1051 l 1694 1051 l 1544 851 l 1369 851 l 1219 1051 l 1381 1051 l 1457 964 l 1533 1051 z "},"E":{"ha":918,"x_min":119,"x_max":849,"o":"m 119 972 l 832 972 l 832 810 l 306 810 l 306 569 l 778 569 l 778 407 l 306 407 l 306 163 l 849 163 l 849 0 l 119 0 l 119 972 z "},"É":{"ha":918,"x_min":119,"x_max":849,"o":"m 119 972 l 832 972 l 832 810 l 306 810 l 306 569 l 778 569 l 778 407 l 306 407 l 306 163 l 849 163 l 849 0 l 119 0 l 119 972 m 540 1264 l 714 1193 l 536 1050 l 396 1064 l 540 1264 z "},"Ĕ":{"ha":918,"x_min":119,"x_max":849,"o":"m 119 972 l 832 972 l 832 810 l 306 810 l 306 569 l 778 569 l 778 407 l 306 407 l 306 163 l 849 163 l 849 0 l 119 0 l 119 972 m 403 1257 q 429 1193 406 1218 q 488 1168 453 1168 q 546 1193 522 1168 q 572 1257 569 1218 l 692 1257 q 632 1108 689 1165 q 488 1051 575 1051 q 343 1108 400 1051 q 283 1257 286 1165 l 403 1257 z "},"Ě":{"ha":918,"x_min":119,"x_max":849,"o":"m 119 972 l 832 972 l 832 810 l 306 810 l 306 569 l 778 569 l 778 407 l 306 407 l 306 163 l 849 163 l 849 0 l 119 0 l 119 972 m 529 1257 l 690 1257 l 540 1057 l 365 1057 l 215 1257 l 376 1257 l 453 1169 l 529 1257 z "},"Ḝ":{"ha":918,"x_min":119,"x_max":849,"o":"m 463 1051 q 318 1108 375 1051 q 258 1257 261 1165 l 378 1257 q 404 1193 381 1218 q 463 1168 428 1168 q 521 1193 497 1168 q 547 1257 544 1218 l 667 1257 q 607 1108 664 1165 q 463 1051 550 1051 m 557 0 l 529 -74 q 615 -113 588 -83 q 643 -185 643 -143 q 597 -278 643 -246 q 478 -311 550 -311 q 339 -282 410 -311 l 372 -185 q 451 -200 415 -200 q 493 -190 478 -200 q 508 -167 508 -181 q 490 -142 508 -151 q 439 -132 472 -132 l 397 -132 l 440 0 l 119 0 l 119 972 l 832 972 l 832 810 l 306 810 l 306 569 l 778 569 l 778 407 l 306 407 l 306 163 l 849 163 l 849 0 l 557 0 z "},"Ê":{"ha":918,"x_min":119,"x_max":849,"o":"m 119 972 l 832 972 l 832 810 l 306 810 l 306 569 l 778 569 l 778 407 l 306 407 l 306 163 l 849 163 l 849 0 l 119 0 l 119 972 m 725 1057 l 564 1057 l 488 1144 l 411 1057 l 250 1057 l 400 1257 l 575 1257 l 725 1057 z "},"Ế":{"ha":918,"x_min":119,"x_max":849,"o":"m 119 972 l 832 972 l 832 810 l 306 810 l 306 569 l 778 569 l 778 407 l 306 407 l 306 163 l 849 163 l 849 0 l 119 0 l 119 972 m 753 1044 l 578 1044 l 489 1119 l 399 1044 l 224 1044 l 374 1194 l 601 1194 l 753 1044 m 556 1438 l 700 1344 l 501 1236 l 378 1272 l 556 1438 z "},"Ệ":{"ha":918,"x_min":119,"x_max":849,"o":"m 119 972 l 832 972 l 832 810 l 306 810 l 306 569 l 778 569 l 778 407 l 306 407 l 306 163 l 849 163 l 849 0 l 119 0 l 119 972 m 483 -97 q 557 -128 528 -97 q 586 -206 586 -158 q 557 -282 586 -251 q 483 -312 528 -312 q 410 -282 439 -312 q 381 -206 381 -251 q 410 -128 381 -158 q 483 -97 439 -97 m 721 1057 l 560 1057 l 483 1144 l 407 1057 l 246 1057 l 396 1257 l 571 1257 l 721 1057 z "},"Ề":{"ha":918,"x_min":119,"x_max":849,"o":"m 119 972 l 832 972 l 832 810 l 306 810 l 306 569 l 778 569 l 778 407 l 306 407 l 306 163 l 849 163 l 849 0 l 119 0 l 119 972 m 751 1044 l 576 1044 l 488 1119 l 397 1044 l 222 1044 l 372 1194 l 600 1194 l 751 1044 m 403 1438 l 582 1272 l 457 1236 l 258 1344 l 403 1438 z "},"Ể":{"ha":918,"x_min":119,"x_max":849,"o":"m 119 972 l 832 972 l 832 810 l 306 810 l 306 569 l 778 569 l 778 407 l 306 407 l 306 163 l 849 163 l 849 0 l 119 0 l 119 972 m 776 1044 l 601 1044 l 513 1119 l 422 1044 l 247 1044 l 397 1194 l 625 1194 l 776 1044 m 501 1467 q 592 1440 558 1467 q 625 1372 625 1414 q 531 1233 625 1303 l 446 1268 q 483 1305 469 1286 q 496 1339 496 1324 q 487 1358 496 1351 q 464 1364 478 1364 q 422 1351 440 1364 l 372 1425 q 501 1467 435 1467 z "},"Ễ":{"ha":918,"x_min":119,"x_max":849,"o":"m 119 972 l 832 972 l 832 810 l 306 810 l 306 569 l 778 569 l 778 407 l 306 407 l 306 163 l 849 163 l 849 0 l 119 0 l 119 972 m 749 1044 l 574 1044 l 485 1119 l 394 1044 l 219 1044 l 369 1194 l 597 1194 l 749 1044 m 710 1413 q 592 1244 710 1244 q 530 1255 560 1244 q 464 1283 500 1265 q 426 1300 444 1293 q 396 1307 408 1307 q 363 1292 372 1307 q 353 1249 353 1276 l 257 1249 q 376 1418 257 1418 q 438 1408 408 1418 q 506 1379 467 1399 q 542 1363 525 1369 q 572 1356 560 1356 q 605 1370 596 1356 q 614 1413 614 1385 l 710 1413 z "},"Ȅ":{"ha":918,"x_min":119,"x_max":849,"o":"m 119 972 l 832 972 l 832 810 l 306 810 l 306 569 l 778 569 l 778 407 l 306 407 l 306 163 l 849 163 l 849 0 l 119 0 l 119 972 m 336 1271 l 446 1061 l 315 1049 l 188 1207 l 336 1271 m 576 1271 l 686 1061 l 556 1049 l 428 1207 l 576 1271 z "},"Ë":{"ha":918,"x_min":119,"x_max":849,"o":"m 119 972 l 832 972 l 832 810 l 306 810 l 306 569 l 778 569 l 778 407 l 306 407 l 306 163 l 849 163 l 849 0 l 119 0 l 119 972 m 363 1238 q 426 1211 400 1238 q 451 1144 451 1185 q 426 1078 451 1106 q 363 1051 400 1051 q 298 1078 324 1051 q 272 1144 272 1106 q 298 1211 272 1185 q 363 1238 324 1238 m 614 1238 q 678 1211 653 1238 q 703 1144 703 1185 q 677 1078 703 1106 q 614 1051 651 1051 q 549 1078 575 1051 q 524 1144 524 1106 q 549 1211 524 1185 q 614 1238 575 1238 z "},"Ė":{"ha":918,"x_min":119,"x_max":849,"o":"m 119 972 l 832 972 l 832 810 l 306 810 l 306 569 l 778 569 l 778 407 l 306 407 l 306 163 l 849 163 l 849 0 l 119 0 l 119 972 m 488 1267 q 561 1237 532 1267 q 590 1160 590 1207 q 561 1082 590 1113 q 488 1051 532 1051 q 414 1082 443 1051 q 385 1160 385 1113 q 414 1237 385 1207 q 488 1267 443 1267 z "},"Ẹ":{"ha":918,"x_min":119,"x_max":849,"o":"m 119 972 l 832 972 l 832 810 l 306 810 l 306 569 l 778 569 l 778 407 l 306 407 l 306 163 l 849 163 l 849 0 l 119 0 l 119 972 m 483 -97 q 557 -128 528 -97 q 586 -206 586 -158 q 557 -282 586 -251 q 483 -312 528 -312 q 410 -282 439 -312 q 381 -206 381 -251 q 410 -128 381 -158 q 483 -97 439 -97 z "},"È":{"ha":918,"x_min":119,"x_max":849,"o":"m 119 972 l 832 972 l 832 810 l 306 810 l 306 569 l 778 569 l 778 407 l 306 407 l 306 163 l 849 163 l 849 0 l 119 0 l 119 972 m 426 1264 l 567 1064 l 425 1050 l 253 1193 l 426 1264 z "},"Ẻ":{"ha":918,"x_min":119,"x_max":849,"o":"m 119 972 l 832 972 l 832 810 l 306 810 l 306 569 l 778 569 l 778 407 l 306 407 l 306 163 l 849 163 l 849 0 l 119 0 l 119 972 m 490 1332 q 592 1300 551 1332 q 633 1213 633 1268 q 603 1121 633 1169 q 524 1029 572 1072 l 432 1071 q 475 1128 460 1097 q 490 1181 490 1158 q 479 1207 490 1197 q 451 1217 468 1217 q 401 1200 425 1217 l 347 1286 q 490 1332 411 1332 z "},"Ȇ":{"ha":918,"x_min":119,"x_max":849,"o":"m 119 972 l 832 972 l 832 810 l 306 810 l 306 569 l 778 569 l 778 407 l 306 407 l 306 163 l 849 163 l 849 0 l 119 0 l 119 972 m 283 1057 q 343 1206 286 1149 q 488 1263 400 1263 q 632 1206 575 1263 q 692 1057 689 1149 l 572 1057 q 546 1120 569 1096 q 488 1144 522 1144 q 429 1120 453 1144 q 403 1057 406 1096 l 283 1057 z "},"Ē":{"ha":918,"x_min":119,"x_max":849,"o":"m 119 972 l 832 972 l 832 810 l 306 810 l 306 569 l 778 569 l 778 407 l 306 407 l 306 163 l 849 163 l 849 0 l 119 0 l 119 972 m 268 1178 l 708 1178 l 708 1063 l 268 1063 l 268 1178 z "},"Ḗ":{"ha":918,"x_min":119,"x_max":849,"o":"m 119 972 l 832 972 l 832 810 l 306 810 l 306 569 l 778 569 l 778 407 l 306 407 l 306 163 l 849 163 l 849 0 l 119 0 l 119 972 z "},"Ḕ":{"ha":918,"x_min":119,"x_max":849,"o":"m 119 972 l 832 972 l 832 810 l 306 810 l 306 569 l 778 569 l 778 407 l 306 407 l 306 163 l 849 163 l 849 0 l 119 0 l 119 972 z "},"Ę":{"ha":918,"x_min":119,"x_max":849,"o":"m 849 0 q 758 -78 786 -44 q 731 -143 731 -112 q 740 -172 731 -162 q 765 -182 750 -182 q 810 -171 792 -182 l 849 -282 q 726 -310 785 -310 q 617 -274 658 -310 q 576 -176 576 -239 q 667 0 576 -82 l 119 0 l 119 972 l 832 972 l 832 810 l 306 810 l 306 569 l 778 569 l 778 407 l 306 407 l 306 163 l 849 163 l 849 0 z "},"Ẽ":{"ha":918,"x_min":119,"x_max":849,"o":"m 119 972 l 832 972 l 832 810 l 306 810 l 306 569 l 778 569 l 778 407 l 306 407 l 306 163 l 849 163 l 849 0 l 119 0 l 119 972 m 719 1246 q 597 1051 719 1051 q 538 1063 567 1051 q 475 1093 510 1074 q 413 1118 431 1118 q 383 1102 392 1118 q 375 1056 375 1086 l 260 1056 q 381 1251 260 1251 q 440 1240 411 1251 q 503 1210 468 1229 q 565 1185 547 1185 q 594 1201 586 1185 q 603 1246 603 1217 l 719 1246 z "},"F":{"ha":810,"x_min":119,"x_max":790,"o":"m 119 972 l 790 972 l 789 810 l 306 810 l 306 547 l 746 547 l 746 385 l 306 385 l 306 0 l 119 0 l 119 972 z "},"G":{"ha":1038,"x_min":43,"x_max":949,"o":"m 779 483 l 942 483 l 942 114 q 761 22 865 57 q 557 -14 657 -14 q 297 53 414 -14 q 111 234 179 119 q 43 488 43 349 q 113 740 43 626 q 302 919 182 853 q 568 985 422 985 q 774 947 672 985 q 949 844 875 910 l 843 707 q 715 789 788 760 q 568 818 642 818 q 399 774 476 818 q 278 654 322 731 q 233 488 233 578 q 278 319 233 396 q 400 199 324 243 q 569 154 476 154 q 674 170 619 154 q 779 215 729 186 l 779 483 z "},"Ğ":{"ha":1038,"x_min":43,"x_max":949,"o":"m 779 483 l 942 483 l 942 114 q 761 22 865 57 q 557 -14 657 -14 q 297 53 414 -14 q 111 234 179 119 q 43 488 43 349 q 113 740 43 626 q 302 919 182 853 q 568 985 422 985 q 774 947 672 985 q 949 844 875 910 l 843 707 q 715 789 788 760 q 568 818 642 818 q 399 774 476 818 q 278 654 322 731 q 233 488 233 578 q 278 319 233 396 q 400 199 324 243 q 569 154 476 154 q 674 170 619 154 q 779 215 729 186 l 779 483 m 457 1257 q 483 1193 460 1218 q 542 1168 507 1168 q 600 1193 576 1168 q 626 1257 624 1218 l 746 1257 q 686 1108 743 1165 q 542 1051 629 1051 q 397 1108 454 1051 q 338 1257 340 1165 l 457 1257 z "},"Ǧ":{"ha":1038,"x_min":43,"x_max":949,"o":"m 779 483 l 942 483 l 942 114 q 761 22 865 57 q 557 -14 657 -14 q 297 53 414 -14 q 111 234 179 119 q 43 488 43 349 q 113 740 43 626 q 302 919 182 853 q 568 985 422 985 q 774 947 672 985 q 949 844 875 910 l 843 707 q 715 789 788 760 q 568 818 642 818 q 399 774 476 818 q 278 654 322 731 q 233 488 233 578 q 278 319 233 396 q 400 199 324 243 q 569 154 476 154 q 674 170 619 154 q 779 215 729 186 l 779 483 m 583 1257 l 744 1257 l 594 1057 l 419 1057 l 269 1257 l 431 1257 l 507 1169 l 583 1257 z "},"Ĝ":{"ha":1038,"x_min":43,"x_max":949,"o":"m 779 483 l 942 483 l 942 114 q 761 22 865 57 q 557 -14 657 -14 q 297 53 414 -14 q 111 234 179 119 q 43 488 43 349 q 113 740 43 626 q 302 919 182 853 q 568 985 422 985 q 774 947 672 985 q 949 844 875 910 l 843 707 q 715 789 788 760 q 568 818 642 818 q 399 774 476 818 q 278 654 322 731 q 233 488 233 578 q 278 319 233 396 q 400 199 324 243 q 569 154 476 154 q 674 170 619 154 q 779 215 729 186 l 779 483 m 779 1057 l 618 1057 l 542 1144 l 465 1057 l 304 1057 l 454 1257 l 629 1257 l 779 1057 z "},"Ģ":{"ha":1038,"x_min":43,"x_max":949,"o":"m 779 483 l 942 483 l 942 114 q 761 22 865 57 q 557 -14 657 -14 q 297 53 414 -14 q 111 234 179 119 q 43 488 43 349 q 113 740 43 626 q 302 919 182 853 q 568 985 422 985 q 774 947 672 985 q 949 844 875 910 l 843 707 q 715 789 788 760 q 568 818 642 818 q 399 774 476 818 q 278 654 322 731 q 233 488 233 578 q 278 319 233 396 q 400 199 324 243 q 569 154 476 154 q 674 170 619 154 q 779 215 729 186 l 779 483 m 460 -82 l 621 -82 l 535 -311 l 413 -311 l 460 -82 z "},"Ġ":{"ha":1038,"x_min":43,"x_max":949,"o":"m 779 483 l 942 483 l 942 114 q 761 22 865 57 q 557 -14 657 -14 q 297 53 414 -14 q 111 234 179 119 q 43 488 43 349 q 113 740 43 626 q 302 919 182 853 q 568 985 422 985 q 774 947 672 985 q 949 844 875 910 l 843 707 q 715 789 788 760 q 568 818 642 818 q 399 774 476 818 q 278 654 322 731 q 233 488 233 578 q 278 319 233 396 q 400 199 324 243 q 569 154 476 154 q 674 170 619 154 q 779 215 729 186 l 779 483 m 542 1267 q 615 1237 586 1267 q 644 1160 644 1207 q 615 1082 644 1113 q 542 1051 586 1051 q 468 1082 497 1051 q 439 1160 439 1113 q 468 1237 439 1207 q 542 1267 497 1267 z "},"Ḡ":{"ha":1038,"x_min":43,"x_max":949,"o":"m 779 483 l 942 483 l 942 114 q 761 22 865 57 q 557 -14 657 -14 q 297 53 414 -14 q 111 234 179 119 q 43 488 43 349 q 113 740 43 626 q 302 919 182 853 q 568 985 422 985 q 774 947 672 985 q 949 844 875 910 l 843 707 q 715 789 788 760 q 568 818 642 818 q 399 774 476 818 q 278 654 322 731 q 233 488 233 578 q 278 319 233 396 q 400 199 324 243 q 569 154 476 154 q 674 170 619 154 q 779 215 729 186 l 779 483 m 322 1178 l 763 1178 l 763 1063 l 322 1063 l 322 1178 z "},"H":{"ha":1097,"x_min":119,"x_max":976,"o":"m 119 972 l 306 972 l 306 557 l 790 557 l 790 972 l 976 972 l 976 0 l 790 0 l 790 394 l 306 394 l 306 0 l 119 0 l 119 972 z "},"Ħ":{"ha":1117,"x_min":3,"x_max":1115,"o":"m 1115 826 l 1115 725 l 988 725 l 988 0 l 800 0 l 800 394 l 315 394 l 315 0 l 129 0 l 129 725 l 3 725 l 3 826 l 129 826 l 129 972 l 315 972 l 315 826 l 800 826 l 800 972 l 988 972 l 988 826 l 1115 826 m 800 557 l 800 725 l 315 725 l 315 557 l 800 557 z "},"Ḫ":{"ha":1097,"x_min":119,"x_max":976,"o":"m 119 972 l 306 972 l 306 557 l 790 557 l 790 972 l 976 972 l 976 0 l 790 0 l 790 394 l 306 394 l 306 0 l 119 0 l 119 972 m 463 -74 q 489 -137 465 -112 q 547 -162 513 -162 q 606 -137 582 -162 q 632 -74 629 -112 l 751 -74 q 692 -222 749 -165 q 547 -279 635 -279 q 403 -222 460 -279 q 343 -74 346 -165 l 463 -74 z "},"Ĥ":{"ha":1097,"x_min":119,"x_max":976,"o":"m 119 972 l 306 972 l 306 557 l 790 557 l 790 972 l 976 972 l 976 0 l 790 0 l 790 394 l 306 394 l 306 0 l 119 0 l 119 972 m 794 1057 l 633 1057 l 557 1144 l 481 1057 l 319 1057 l 469 1257 l 644 1257 l 794 1057 z "},"Ḥ":{"ha":1097,"x_min":119,"x_max":976,"o":"m 119 972 l 306 972 l 306 557 l 790 557 l 790 972 l 976 972 l 976 0 l 790 0 l 790 394 l 306 394 l 306 0 l 119 0 l 119 972 m 547 -97 q 621 -128 592 -97 q 650 -206 650 -158 q 621 -282 650 -251 q 547 -312 592 -312 q 474 -282 503 -312 q 444 -206 444 -251 q 474 -128 444 -158 q 547 -97 503 -97 z "},"I":{"ha":425,"x_min":119,"x_max":306,"o":"m 119 972 l 306 972 l 306 0 l 119 0 l 119 972 z "},"Ĳ":{"ha":1153,"x_min":119,"x_max":1032,"o":"m 119 972 l 306 972 l 306 0 l 119 0 l 119 972 m 1032 306 q 949 74 1032 157 q 721 -8 865 -8 q 421 138 540 -8 l 508 276 q 612 197 557 225 q 715 168 667 168 q 810 205 776 168 q 844 310 844 242 l 844 807 l 510 807 l 510 972 l 1032 972 l 1032 306 z "},"Í":{"ha":425,"x_min":119,"x_max":439,"o":"m 119 972 l 306 972 l 306 0 l 119 0 l 119 972 m 265 1264 l 439 1193 l 261 1050 l 121 1064 l 265 1264 z "},"Ĭ":{"ha":425,"x_min":8,"x_max":417,"o":"m 119 972 l 306 972 l 306 0 l 119 0 l 119 972 m 128 1257 q 154 1193 131 1218 q 213 1168 178 1168 q 271 1193 247 1168 q 297 1257 294 1218 l 417 1257 q 357 1108 414 1165 q 213 1051 300 1051 q 68 1108 125 1051 q 8 1257 11 1165 l 128 1257 z "},"Î":{"ha":425,"x_min":-25,"x_max":450,"o":"m 119 972 l 306 972 l 306 0 l 119 0 l 119 972 m 450 1057 l 289 1057 l 213 1144 l 136 1057 l -25 1057 l 125 1257 l 300 1257 l 450 1057 z "},"Ȉ":{"ha":425,"x_min":-87,"x_max":411,"o":"m 119 972 l 306 972 l 306 0 l 119 0 l 119 972 m 61 1271 l 171 1061 l 40 1049 l -87 1207 l 61 1271 m 301 1271 l 411 1061 l 281 1049 l 153 1207 l 301 1271 z "},"Ï":{"ha":425,"x_min":-3,"x_max":428,"o":"m 119 972 l 306 972 l 306 0 l 119 0 l 119 972 m 88 1238 q 151 1211 125 1238 q 176 1144 176 1185 q 151 1078 176 1106 q 88 1051 125 1051 q 23 1078 49 1051 q -3 1144 -3 1106 q 23 1211 -3 1185 q 88 1238 49 1238 m 339 1238 q 403 1211 378 1238 q 428 1144 428 1185 q 402 1078 428 1106 q 339 1051 376 1051 q 274 1078 300 1051 q 249 1144 249 1106 q 274 1211 249 1185 q 339 1238 300 1238 z "},"Ḯ":{"ha":425,"x_min":3,"x_max":424,"o":"m 119 972 l 306 972 l 306 0 l 119 0 l 119 972 z "},"İ":{"ha":425,"x_min":110,"x_max":315,"o":"m 119 972 l 306 972 l 306 0 l 119 0 l 119 972 m 213 1267 q 286 1237 257 1267 q 315 1160 315 1207 q 286 1082 315 1113 q 213 1051 257 1051 q 139 1082 168 1051 q 110 1160 110 1113 q 139 1237 110 1207 q 213 1267 168 1267 z "},"Ị":{"ha":425,"x_min":110,"x_max":315,"o":"m 119 972 l 306 972 l 306 0 l 119 0 l 119 972 m 213 -97 q 286 -128 257 -97 q 315 -206 315 -158 q 286 -282 315 -251 q 213 -312 257 -312 q 139 -282 168 -312 q 110 -206 110 -251 q 139 -128 110 -158 q 213 -97 168 -97 z "},"Ì":{"ha":425,"x_min":-22,"x_max":306,"o":"m 119 972 l 306 972 l 306 0 l 119 0 l 119 972 m 151 1264 l 292 1064 l 150 1050 l -22 1193 l 151 1264 z "},"Ỉ":{"ha":425,"x_min":72,"x_max":358,"o":"m 119 972 l 306 972 l 306 0 l 119 0 l 119 972 m 215 1332 q 317 1300 276 1332 q 358 1213 358 1268 q 328 1121 358 1169 q 249 1029 297 1072 l 157 1071 q 200 1128 185 1097 q 215 1181 215 1158 q 204 1207 215 1197 q 176 1217 193 1217 q 126 1200 150 1217 l 72 1286 q 215 1332 136 1332 z "},"Ȋ":{"ha":425,"x_min":8,"x_max":417,"o":"m 119 972 l 306 972 l 306 0 l 119 0 l 119 972 m 8 1057 q 68 1206 11 1149 q 213 1263 125 1263 q 357 1206 300 1263 q 417 1057 414 1149 l 297 1057 q 271 1120 294 1096 q 213 1144 247 1144 q 154 1120 178 1144 q 128 1057 131 1096 l 8 1057 z "},"Ī":{"ha":425,"x_min":4,"x_max":419,"o":"m 119 972 l 306 972 l 306 0 l 119 0 l 119 972 m 4 1178 l 419 1178 l 419 1063 l 4 1063 l 4 1178 z "},"Į":{"ha":425,"x_min":21,"x_max":306,"o":"m 306 972 l 306 0 l 293 0 q 203 -78 231 -44 q 175 -143 175 -112 q 185 -172 175 -162 q 210 -182 194 -182 q 254 -171 236 -182 l 293 -282 q 171 -310 229 -310 q 62 -274 103 -310 q 21 -176 21 -239 q 119 8 21 -76 l 119 972 l 306 972 z "},"Ĩ":{"ha":425,"x_min":-15,"x_max":444,"o":"m 119 972 l 306 972 l 306 0 l 119 0 l 119 972 m 444 1246 q 322 1051 444 1051 q 263 1063 292 1051 q 200 1093 235 1074 q 138 1118 156 1118 q 108 1102 117 1118 q 100 1056 100 1086 l -15 1056 q 106 1251 -15 1251 q 165 1240 136 1251 q 228 1210 193 1229 q 290 1185 272 1185 q 319 1201 311 1185 q 328 1246 328 1217 l 444 1246 z "},"J":{"ha":707,"x_min":-4,"x_max":607,"o":"m 607 306 q 524 74 607 157 q 296 -8 440 -8 q -4 138 115 -8 l 83 276 q 187 197 132 225 q 290 168 242 168 q 385 205 351 168 q 419 310 419 242 l 419 807 l 85 807 l 85 972 l 607 972 l 607 306 z "},"Ĵ":{"ha":707,"x_min":-4,"x_max":607,"o":"m 607 306 q 524 74 607 157 q 296 -8 440 -8 q -4 138 115 -8 l 83 276 q 187 197 132 225 q 290 168 242 168 q 385 205 351 168 q 419 310 419 242 l 419 807 l 85 807 l 85 972 l 607 972 l 607 306 m 579 1057 l 418 1057 l 342 1144 l 265 1057 l 104 1057 l 254 1257 l 429 1257 l 579 1057 z "},"K":{"ha":1008,"x_min":119,"x_max":988,"o":"m 988 0 l 764 0 l 458 417 l 306 249 l 306 0 l 119 0 l 119 972 l 306 972 l 306 488 l 744 972 l 964 972 l 590 561 l 988 0 z "},"Ķ":{"ha":1008,"x_min":119,"x_max":988,"o":"m 988 0 l 764 0 l 458 417 l 306 249 l 306 0 l 119 0 l 119 972 l 306 972 l 306 488 l 744 972 l 964 972 l 590 561 l 988 0 m 415 -82 l 576 -82 l 490 -311 l 368 -311 l 415 -82 z "},"L":{"ha":751,"x_min":119,"x_max":725,"o":"m 119 972 l 306 972 l 306 168 l 725 168 l 725 0 l 119 0 l 119 972 z "},"Ǉ":{"ha":1458,"x_min":119,"x_max":1358,"o":"m 119 972 l 306 972 l 306 168 l 725 168 l 725 0 l 119 0 l 119 972 m 1358 306 q 1275 74 1358 157 q 1047 -8 1192 -8 q 747 138 867 -8 l 835 276 q 938 197 883 225 q 1042 168 993 168 q 1137 205 1103 168 q 1171 310 1171 242 l 1171 807 l 836 807 l 836 972 l 1358 972 l 1358 306 z "},"Ĺ":{"ha":751,"x_min":119,"x_max":725,"o":"m 119 972 l 306 972 l 306 168 l 725 168 l 725 0 l 119 0 l 119 972 m 267 1264 l 440 1193 l 263 1050 l 122 1064 l 267 1264 z "},"Ľ":{"ha":751,"x_min":119,"x_max":725,"o":"m 119 972 l 306 972 l 306 168 l 725 168 l 725 0 l 119 0 l 119 972 m 565 972 l 725 972 l 683 685 l 565 685 l 565 972 z "},"Ļ":{"ha":751,"x_min":119,"x_max":725,"o":"m 119 972 l 306 972 l 306 168 l 725 168 l 725 0 l 119 0 l 119 972 m 343 -82 l 504 -82 l 418 -311 l 296 -311 l 343 -82 z "},"Ŀ":{"ha":751,"x_min":119,"x_max":725,"o":"m 119 972 l 306 972 l 306 168 l 725 168 l 725 0 l 119 0 l 119 972 z "},"Ḷ":{"ha":751,"x_min":119,"x_max":725,"o":"m 119 972 l 306 972 l 306 168 l 725 168 l 725 0 l 119 0 l 119 972 m 422 -97 q 496 -128 467 -97 q 525 -206 525 -158 q 496 -282 525 -251 q 422 -312 467 -312 q 349 -282 378 -312 q 319 -206 319 -251 q 349 -128 319 -158 q 422 -97 378 -97 z "},"ǈ":{"ha":1146,"x_min":119,"x_max":1056,"o":"m 119 972 l 306 972 l 306 168 l 725 168 l 725 0 l 119 0 l 119 972 m 706 -112 q 769 -125 738 -124 q 840 -95 815 -126 q 864 -4 864 -64 l 864 743 l 1044 743 l 1044 -32 q 983 -212 1044 -147 q 811 -276 921 -276 q 667 -249 735 -276 l 706 -112 m 953 1063 q 1026 1032 997 1063 q 1056 954 1056 1001 q 1026 878 1056 908 q 953 847 997 847 q 879 878 908 847 q 850 954 850 908 q 879 1032 850 1001 q 953 1063 908 1063 z "},"Ḻ":{"ha":751,"x_min":119,"x_max":725,"o":"m 119 972 l 306 972 l 306 168 l 725 168 l 725 0 l 119 0 l 119 972 m 214 -111 l 629 -111 l 629 -226 l 214 -226 l 214 -111 z "},"Ł":{"ha":800,"x_min":31,"x_max":774,"o":"m 356 167 l 774 167 l 774 0 l 168 0 l 168 440 l 31 367 l 31 475 l 168 549 l 168 972 l 356 972 l 356 649 l 515 733 l 515 625 l 356 540 l 356 167 z "},"M":{"ha":1306,"x_min":119,"x_max":1186,"o":"m 119 972 l 332 972 l 654 346 l 974 972 l 1186 972 l 1186 0 l 1015 0 l 1015 697 l 713 100 l 593 100 l 289 697 l 289 0 l 119 0 l 119 972 z "},"Ṃ":{"ha":1306,"x_min":119,"x_max":1186,"o":"m 119 972 l 332 972 l 654 346 l 974 972 l 1186 972 l 1186 0 l 1015 0 l 1015 697 l 713 100 l 593 100 l 289 697 l 289 0 l 119 0 l 119 972 m 653 -97 q 726 -128 697 -97 q 756 -206 756 -158 q 726 -282 756 -251 q 653 -312 697 -312 q 579 -282 608 -312 q 550 -206 550 -251 q 579 -128 550 -158 q 653 -97 608 -97 z "},"N":{"ha":1097,"x_min":119,"x_max":978,"o":"m 797 972 l 978 972 l 978 0 l 801 0 l 301 669 l 301 0 l 119 0 l 119 972 l 296 972 l 797 301 l 797 972 z "},"Ǌ":{"ha":1804,"x_min":119,"x_max":1704,"o":"m 797 972 l 978 972 l 978 0 l 801 0 l 301 669 l 301 0 l 119 0 l 119 972 l 296 972 l 797 301 l 797 972 m 1704 306 q 1621 74 1704 157 q 1393 -8 1538 -8 q 1093 138 1213 -8 l 1181 276 q 1284 197 1229 225 q 1388 168 1339 168 q 1483 205 1449 168 q 1517 310 1517 242 l 1517 807 l 1182 807 l 1182 972 l 1704 972 l 1704 306 z "},"Ń":{"ha":1097,"x_min":119,"x_max":978,"o":"m 797 972 l 978 972 l 978 0 l 801 0 l 301 669 l 301 0 l 119 0 l 119 972 l 296 972 l 797 301 l 797 972 m 614 1264 l 788 1193 l 610 1050 l 469 1064 l 614 1264 z "},"Ň":{"ha":1097,"x_min":119,"x_max":978,"o":"m 797 972 l 978 972 l 978 0 l 801 0 l 301 669 l 301 0 l 119 0 l 119 972 l 296 972 l 797 301 l 797 972 m 603 1257 l 764 1257 l 614 1057 l 439 1057 l 289 1257 l 450 1257 l 526 1169 l 603 1257 z "},"Ņ":{"ha":1097,"x_min":119,"x_max":978,"o":"m 797 972 l 978 972 l 978 0 l 801 0 l 301 669 l 301 0 l 119 0 l 119 972 l 296 972 l 797 301 l 797 972 m 471 -82 l 632 -82 l 546 -311 l 424 -311 l 471 -82 z "},"Ṅ":{"ha":1097,"x_min":119,"x_max":978,"o":"m 797 972 l 978 972 l 978 0 l 801 0 l 301 669 l 301 0 l 119 0 l 119 972 l 296 972 l 797 301 l 797 972 m 561 1267 q 635 1237 606 1267 q 664 1160 664 1207 q 635 1082 664 1113 q 561 1051 606 1051 q 488 1082 517 1051 q 458 1160 458 1113 q 488 1237 458 1207 q 561 1267 517 1267 z "},"Ṇ":{"ha":1097,"x_min":119,"x_max":978,"o":"m 797 972 l 978 972 l 978 0 l 801 0 l 301 669 l 301 0 l 119 0 l 119 972 l 296 972 l 797 301 l 797 972 m 550 -97 q 624 -128 594 -97 q 653 -206 653 -158 q 624 -282 653 -251 q 550 -312 594 -312 q 476 -282 506 -312 q 447 -206 447 -251 q 476 -128 447 -158 q 550 -97 506 -97 z "},"Ŋ":{"ha":1097,"x_min":119,"x_max":978,"o":"m 978 972 l 978 0 q 891 -210 975 -132 q 665 -289 807 -289 q 399 -190 506 -289 l 481 -43 q 572 -94 524 -76 q 663 -111 621 -111 q 753 -80 718 -111 q 793 11 788 -49 l 301 664 l 301 0 l 119 0 l 119 972 l 296 972 l 797 307 l 797 972 l 978 972 z "},"ǋ":{"ha":1493,"x_min":119,"x_max":1401,"o":"m 797 972 l 978 972 l 978 0 l 801 0 l 301 669 l 301 0 l 119 0 l 119 972 l 296 972 l 797 301 l 797 972 m 1051 -112 q 1115 -125 1083 -124 q 1185 -95 1161 -126 q 1210 -4 1210 -64 l 1210 743 l 1390 743 l 1390 -32 q 1328 -212 1390 -147 q 1157 -276 1267 -276 q 1013 -249 1081 -276 l 1051 -112 m 1299 1063 q 1372 1032 1343 1063 q 1401 954 1401 1001 q 1372 878 1401 908 q 1299 847 1343 847 q 1225 878 1254 847 q 1196 954 1196 908 q 1225 1032 1196 1001 q 1299 1063 1254 1063 z "},"Ṉ":{"ha":1097,"x_min":119,"x_max":978,"o":"m 797 972 l 978 972 l 978 0 l 801 0 l 301 669 l 301 0 l 119 0 l 119 972 l 296 972 l 797 301 l 797 972 m 342 -111 l 757 -111 l 757 -226 l 342 -226 l 342 -111 z "},"Ñ":{"ha":1097,"x_min":119,"x_max":978,"o":"m 797 972 l 978 972 l 978 0 l 801 0 l 301 669 l 301 0 l 119 0 l 119 972 l 296 972 l 797 301 l 797 972 m 793 1246 q 671 1051 793 1051 q 612 1063 640 1051 q 549 1093 583 1074 q 486 1118 504 1118 q 457 1102 465 1118 q 449 1056 449 1086 l 333 1056 q 454 1251 333 1251 q 513 1240 485 1251 q 576 1210 542 1229 q 639 1185 621 1185 q 668 1201 660 1185 q 676 1246 676 1217 l 793 1246 z "},"O":{"ha":1124,"x_min":43,"x_max":1079,"o":"m 561 985 q 824 919 706 985 q 1011 740 943 854 q 1079 488 1079 626 q 1011 234 1079 349 q 824 53 943 119 q 561 -14 706 -14 q 298 53 417 -14 q 111 234 179 119 q 43 488 43 349 q 111 740 43 626 q 298 919 179 854 q 561 985 417 985 m 564 818 q 399 774 475 818 q 278 655 322 731 q 233 488 233 579 q 278 319 233 396 q 399 199 324 243 q 564 154 475 154 q 726 199 651 154 q 845 319 801 243 q 889 488 889 396 q 845 655 889 579 q 726 774 801 731 q 564 818 651 818 z "},"Ó":{"ha":1124,"x_min":43,"x_max":1079,"o":"m 561 985 q 824 919 706 985 q 1011 740 943 854 q 1079 488 1079 626 q 1011 234 1079 349 q 824 53 943 119 q 561 -14 706 -14 q 298 53 417 -14 q 111 234 179 119 q 43 488 43 349 q 111 740 43 626 q 298 919 179 854 q 561 985 417 985 m 564 818 q 399 774 475 818 q 278 655 322 731 q 233 488 233 579 q 278 319 233 396 q 399 199 324 243 q 564 154 475 154 q 726 199 651 154 q 845 319 801 243 q 889 488 889 396 q 845 655 889 579 q 726 774 801 731 q 564 818 651 818 m 614 1264 l 788 1193 l 610 1050 l 469 1064 l 614 1264 z "},"Ŏ":{"ha":1124,"x_min":43,"x_max":1079,"o":"m 561 985 q 824 919 706 985 q 1011 740 943 854 q 1079 488 1079 626 q 1011 234 1079 349 q 824 53 943 119 q 561 -14 706 -14 q 298 53 417 -14 q 111 234 179 119 q 43 488 43 349 q 111 740 43 626 q 298 919 179 854 q 561 985 417 985 m 564 818 q 399 774 475 818 q 278 655 322 731 q 233 488 233 579 q 278 319 233 396 q 399 199 324 243 q 564 154 475 154 q 726 199 651 154 q 845 319 801 243 q 889 488 889 396 q 845 655 889 579 q 726 774 801 731 q 564 818 651 818 m 476 1257 q 503 1193 479 1218 q 561 1168 526 1168 q 619 1193 596 1168 q 646 1257 643 1218 l 765 1257 q 706 1108 763 1165 q 561 1051 649 1051 q 417 1108 474 1051 q 357 1257 360 1165 l 476 1257 z "},"Ô":{"ha":1124,"x_min":43,"x_max":1079,"o":"m 561 985 q 824 919 706 985 q 1011 740 943 854 q 1079 488 1079 626 q 1011 234 1079 349 q 824 53 943 119 q 561 -14 706 -14 q 298 53 417 -14 q 111 234 179 119 q 43 488 43 349 q 111 740 43 626 q 298 919 179 854 q 561 985 417 985 m 564 818 q 399 774 475 818 q 278 655 322 731 q 233 488 233 579 q 278 319 233 396 q 399 199 324 243 q 564 154 475 154 q 726 199 651 154 q 845 319 801 243 q 889 488 889 396 q 845 655 889 579 q 726 774 801 731 q 564 818 651 818 m 799 1057 l 638 1057 l 561 1144 l 485 1057 l 324 1057 l 474 1257 l 649 1257 l 799 1057 z "},"Ố":{"ha":1124,"x_min":43,"x_max":1079,"o":"m 561 985 q 824 919 706 985 q 1011 740 943 854 q 1079 488 1079 626 q 1011 234 1079 349 q 824 53 943 119 q 561 -14 706 -14 q 298 53 417 -14 q 111 234 179 119 q 43 488 43 349 q 111 740 43 626 q 298 919 179 854 q 561 985 417 985 m 564 818 q 399 774 475 818 q 278 655 322 731 q 233 488 233 579 q 278 319 233 396 q 399 199 324 243 q 564 154 475 154 q 726 199 651 154 q 845 319 801 243 q 889 488 889 396 q 845 655 889 579 q 726 774 801 731 q 564 818 651 818 m 826 1044 l 651 1044 l 563 1119 l 472 1044 l 297 1044 l 447 1194 l 675 1194 l 826 1044 m 629 1438 l 774 1344 l 575 1236 l 451 1272 l 629 1438 z "},"Ộ":{"ha":1124,"x_min":43,"x_max":1079,"o":"m 561 985 q 824 919 706 985 q 1011 740 943 854 q 1079 488 1079 626 q 1011 234 1079 349 q 824 53 943 119 q 561 -14 706 -14 q 298 53 417 -14 q 111 234 179 119 q 43 488 43 349 q 111 740 43 626 q 298 919 179 854 q 561 985 417 985 m 564 818 q 399 774 475 818 q 278 655 322 731 q 233 488 233 579 q 278 319 233 396 q 399 199 324 243 q 564 154 475 154 q 726 199 651 154 q 845 319 801 243 q 889 488 889 396 q 845 655 889 579 q 726 774 801 731 q 564 818 651 818 m 561 -97 q 635 -128 606 -97 q 664 -206 664 -158 q 635 -282 664 -251 q 561 -312 606 -312 q 488 -282 517 -312 q 458 -206 458 -251 q 488 -128 458 -158 q 561 -97 517 -97 m 799 1057 l 638 1057 l 561 1144 l 485 1057 l 324 1057 l 474 1257 l 649 1257 l 799 1057 z "},"Ồ":{"ha":1124,"x_min":43,"x_max":1079,"o":"m 561 985 q 824 919 706 985 q 1011 740 943 854 q 1079 488 1079 626 q 1011 234 1079 349 q 824 53 943 119 q 561 -14 706 -14 q 298 53 417 -14 q 111 234 179 119 q 43 488 43 349 q 111 740 43 626 q 298 919 179 854 q 561 985 417 985 m 564 818 q 399 774 475 818 q 278 655 322 731 q 233 488 233 579 q 278 319 233 396 q 399 199 324 243 q 564 154 475 154 q 726 199 651 154 q 845 319 801 243 q 889 488 889 396 q 845 655 889 579 q 726 774 801 731 q 564 818 651 818 m 825 1044 l 650 1044 l 561 1119 l 471 1044 l 296 1044 l 446 1194 l 674 1194 l 825 1044 m 476 1438 l 656 1272 l 531 1236 l 332 1344 l 476 1438 z "},"Ổ":{"ha":1124,"x_min":43,"x_max":1079,"o":"m 561 985 q 824 919 706 985 q 1011 740 943 854 q 1079 488 1079 626 q 1011 234 1079 349 q 824 53 943 119 q 561 -14 706 -14 q 298 53 417 -14 q 111 234 179 119 q 43 488 43 349 q 111 740 43 626 q 298 919 179 854 q 561 985 417 985 m 564 818 q 399 774 475 818 q 278 655 322 731 q 233 488 233 579 q 278 319 233 396 q 399 199 324 243 q 564 154 475 154 q 726 199 651 154 q 845 319 801 243 q 889 488 889 396 q 845 655 889 579 q 726 774 801 731 q 564 818 651 818 m 850 1044 l 675 1044 l 586 1119 l 496 1044 l 321 1044 l 471 1194 l 699 1194 l 850 1044 m 575 1467 q 665 1440 632 1467 q 699 1372 699 1414 q 604 1233 699 1303 l 519 1268 q 556 1305 543 1286 q 569 1339 569 1324 q 560 1358 569 1351 q 538 1364 551 1364 q 496 1351 514 1364 l 446 1425 q 575 1467 508 1467 z "},"Ỗ":{"ha":1124,"x_min":43,"x_max":1079,"o":"m 561 985 q 824 919 706 985 q 1011 740 943 854 q 1079 488 1079 626 q 1011 234 1079 349 q 824 53 943 119 q 561 -14 706 -14 q 298 53 417 -14 q 111 234 179 119 q 43 488 43 349 q 111 740 43 626 q 298 919 179 854 q 561 985 417 985 m 564 818 q 399 774 475 818 q 278 655 322 731 q 233 488 233 579 q 278 319 233 396 q 399 199 324 243 q 564 154 475 154 q 726 199 651 154 q 845 319 801 243 q 889 488 889 396 q 845 655 889 579 q 726 774 801 731 q 564 818 651 818 m 822 1044 l 647 1044 l 558 1119 l 468 1044 l 293 1044 l 443 1194 l 671 1194 l 822 1044 m 783 1413 q 665 1244 783 1244 q 603 1255 633 1244 q 538 1283 574 1265 q 500 1300 518 1293 q 469 1307 482 1307 q 436 1292 446 1307 q 426 1249 426 1276 l 331 1249 q 450 1418 331 1418 q 511 1408 482 1418 q 579 1379 540 1399 q 616 1363 599 1369 q 646 1356 633 1356 q 678 1370 669 1356 q 688 1413 688 1385 l 783 1413 z "},"Ȍ":{"ha":1124,"x_min":43,"x_max":1079,"o":"m 561 985 q 824 919 706 985 q 1011 740 943 854 q 1079 488 1079 626 q 1011 234 1079 349 q 824 53 943 119 q 561 -14 706 -14 q 298 53 417 -14 q 111 234 179 119 q 43 488 43 349 q 111 740 43 626 q 298 919 179 854 q 561 985 417 985 m 564 818 q 399 774 475 818 q 278 655 322 731 q 233 488 233 579 q 278 319 233 396 q 399 199 324 243 q 564 154 475 154 q 726 199 651 154 q 845 319 801 243 q 889 488 889 396 q 845 655 889 579 q 726 774 801 731 q 564 818 651 818 m 410 1271 l 519 1061 l 389 1049 l 261 1207 l 410 1271 m 650 1271 l 760 1061 l 629 1049 l 501 1207 l 650 1271 z "},"Ö":{"ha":1124,"x_min":43,"x_max":1079,"o":"m 561 985 q 824 919 706 985 q 1011 740 943 854 q 1079 488 1079 626 q 1011 234 1079 349 q 824 53 943 119 q 561 -14 706 -14 q 298 53 417 -14 q 111 234 179 119 q 43 488 43 349 q 111 740 43 626 q 298 919 179 854 q 561 985 417 985 m 564 818 q 399 774 475 818 q 278 655 322 731 q 233 488 233 579 q 278 319 233 396 q 399 199 324 243 q 564 154 475 154 q 726 199 651 154 q 845 319 801 243 q 889 488 889 396 q 845 655 889 579 q 726 774 801 731 q 564 818 651 818 m 436 1238 q 499 1211 474 1238 q 525 1144 525 1185 q 499 1078 525 1106 q 436 1051 474 1051 q 372 1078 397 1051 q 346 1144 346 1106 q 372 1211 346 1185 q 436 1238 397 1238 m 688 1238 q 751 1211 726 1238 q 776 1144 776 1185 q 751 1078 776 1106 q 688 1051 725 1051 q 623 1078 649 1051 q 597 1144 597 1106 q 623 1211 597 1185 q 688 1238 649 1238 z "},"Ȫ":{"ha":1124,"x_min":43,"x_max":1079,"o":"m 561 985 q 824 919 706 985 q 1011 740 943 854 q 1079 488 1079 626 q 1011 234 1079 349 q 824 53 943 119 q 561 -14 706 -14 q 298 53 417 -14 q 111 234 179 119 q 43 488 43 349 q 111 740 43 626 q 298 919 179 854 q 561 985 417 985 m 564 818 q 399 774 475 818 q 278 655 322 731 q 233 488 233 579 q 278 319 233 396 q 399 199 324 243 q 564 154 475 154 q 726 199 651 154 q 845 319 801 243 q 889 488 889 396 q 845 655 889 579 q 726 774 801 731 q 564 818 651 818 z "},"Ȱ":{"ha":1124,"x_min":43,"x_max":1079,"o":"m 561 985 q 824 919 706 985 q 1011 740 943 854 q 1079 488 1079 626 q 1011 234 1079 349 q 824 53 943 119 q 561 -14 706 -14 q 298 53 417 -14 q 111 234 179 119 q 43 488 43 349 q 111 740 43 626 q 298 919 179 854 q 561 985 417 985 m 564 818 q 399 774 475 818 q 278 655 322 731 q 233 488 233 579 q 278 319 233 396 q 399 199 324 243 q 564 154 475 154 q 726 199 651 154 q 845 319 801 243 q 889 488 889 396 q 845 655 889 579 q 726 774 801 731 q 564 818 651 818 z "},"Ọ":{"ha":1124,"x_min":43,"x_max":1079,"o":"m 561 985 q 824 919 706 985 q 1011 740 943 854 q 1079 488 1079 626 q 1011 234 1079 349 q 824 53 943 119 q 561 -14 706 -14 q 298 53 417 -14 q 111 234 179 119 q 43 488 43 349 q 111 740 43 626 q 298 919 179 854 q 561 985 417 985 m 564 818 q 399 774 475 818 q 278 655 322 731 q 233 488 233 579 q 278 319 233 396 q 399 199 324 243 q 564 154 475 154 q 726 199 651 154 q 845 319 801 243 q 889 488 889 396 q 845 655 889 579 q 726 774 801 731 q 564 818 651 818 m 561 -97 q 635 -128 606 -97 q 664 -206 664 -158 q 635 -282 664 -251 q 561 -312 606 -312 q 488 -282 517 -312 q 458 -206 458 -251 q 488 -128 458 -158 q 561 -97 517 -97 z "},"Ò":{"ha":1124,"x_min":43,"x_max":1079,"o":"m 561 985 q 824 919 706 985 q 1011 740 943 854 q 1079 488 1079 626 q 1011 234 1079 349 q 824 53 943 119 q 561 -14 706 -14 q 298 53 417 -14 q 111 234 179 119 q 43 488 43 349 q 111 740 43 626 q 298 919 179 854 q 561 985 417 985 m 564 818 q 399 774 475 818 q 278 655 322 731 q 233 488 233 579 q 278 319 233 396 q 399 199 324 243 q 564 154 475 154 q 726 199 651 154 q 845 319 801 243 q 889 488 889 396 q 845 655 889 579 q 726 774 801 731 q 564 818 651 818 m 500 1264 l 640 1064 l 499 1050 l 326 1193 l 500 1264 z "},"Ỏ":{"ha":1124,"x_min":43,"x_max":1079,"o":"m 561 985 q 824 919 706 985 q 1011 740 943 854 q 1079 488 1079 626 q 1011 234 1079 349 q 824 53 943 119 q 561 -14 706 -14 q 298 53 417 -14 q 111 234 179 119 q 43 488 43 349 q 111 740 43 626 q 298 919 179 854 q 561 985 417 985 m 564 818 q 399 774 475 818 q 278 655 322 731 q 233 488 233 579 q 278 319 233 396 q 399 199 324 243 q 564 154 475 154 q 726 199 651 154 q 845 319 801 243 q 889 488 889 396 q 845 655 889 579 q 726 774 801 731 q 564 818 651 818 m 564 1332 q 666 1300 625 1332 q 707 1213 707 1268 q 676 1121 707 1169 q 597 1029 646 1072 l 506 1071 q 549 1128 533 1097 q 564 1181 564 1158 q 553 1207 564 1197 q 525 1217 542 1217 q 475 1200 499 1217 l 421 1286 q 564 1332 485 1332 z "},"Ơ":{"ha":1158,"x_min":43,"x_max":1079,"o":"m 940 832 q 1042 676 1006 765 q 1079 488 1079 588 q 1011 234 1079 349 q 824 53 943 119 q 561 -14 706 -14 q 298 53 417 -14 q 111 234 179 119 q 43 488 43 349 q 111 740 43 626 q 298 919 179 854 q 561 985 417 985 q 793 935 685 985 q 839 928 814 928 q 903 955 881 928 q 925 1022 925 982 q 894 1117 925 1074 l 1038 1168 q 1075 1029 1075 1096 q 1039 908 1075 961 q 940 832 1003 856 m 564 154 q 726 199 651 154 q 845 319 801 243 q 889 488 889 396 q 845 655 889 579 q 726 774 801 731 q 564 818 651 818 q 399 774 475 818 q 278 655 322 731 q 233 488 233 579 q 278 319 233 396 q 399 199 324 243 q 564 154 475 154 z "},"Ớ":{"ha":1158,"x_min":43,"x_max":1079,"o":"m 940 832 q 1042 676 1006 765 q 1079 488 1079 588 q 1011 234 1079 349 q 824 53 943 119 q 561 -14 706 -14 q 298 53 417 -14 q 111 234 179 119 q 43 488 43 349 q 111 740 43 626 q 298 919 179 854 q 561 985 417 985 q 793 935 685 985 q 839 928 814 928 q 903 955 881 928 q 925 1022 925 982 q 894 1117 925 1074 l 1038 1168 q 1075 1029 1075 1096 q 1039 908 1075 961 q 940 832 1003 856 m 564 154 q 726 199 651 154 q 845 319 801 243 q 889 488 889 396 q 845 655 889 579 q 726 774 801 731 q 564 818 651 818 q 399 774 475 818 q 278 655 322 731 q 233 488 233 579 q 278 319 233 396 q 399 199 324 243 q 564 154 475 154 m 614 1264 l 788 1193 l 610 1050 l 469 1064 l 614 1264 z "},"Ợ":{"ha":1158,"x_min":43,"x_max":1079,"o":"m 940 832 q 1042 676 1006 765 q 1079 488 1079 588 q 1011 234 1079 349 q 824 53 943 119 q 561 -14 706 -14 q 298 53 417 -14 q 111 234 179 119 q 43 488 43 349 q 111 740 43 626 q 298 919 179 854 q 561 985 417 985 q 793 935 685 985 q 839 928 814 928 q 903 955 881 928 q 925 1022 925 982 q 894 1117 925 1074 l 1038 1168 q 1075 1029 1075 1096 q 1039 908 1075 961 q 940 832 1003 856 m 564 154 q 726 199 651 154 q 845 319 801 243 q 889 488 889 396 q 845 655 889 579 q 726 774 801 731 q 564 818 651 818 q 399 774 475 818 q 278 655 322 731 q 233 488 233 579 q 278 319 233 396 q 399 199 324 243 q 564 154 475 154 m 561 -97 q 635 -128 606 -97 q 664 -206 664 -158 q 635 -282 664 -251 q 561 -312 606 -312 q 488 -282 517 -312 q 458 -206 458 -251 q 488 -128 458 -158 q 561 -97 517 -97 z "},"Ờ":{"ha":1158,"x_min":43,"x_max":1079,"o":"m 940 832 q 1042 676 1006 765 q 1079 488 1079 588 q 1011 234 1079 349 q 824 53 943 119 q 561 -14 706 -14 q 298 53 417 -14 q 111 234 179 119 q 43 488 43 349 q 111 740 43 626 q 298 919 179 854 q 561 985 417 985 q 793 935 685 985 q 839 928 814 928 q 903 955 881 928 q 925 1022 925 982 q 894 1117 925 1074 l 1038 1168 q 1075 1029 1075 1096 q 1039 908 1075 961 q 940 832 1003 856 m 564 154 q 726 199 651 154 q 845 319 801 243 q 889 488 889 396 q 845 655 889 579 q 726 774 801 731 q 564 818 651 818 q 399 774 475 818 q 278 655 322 731 q 233 488 233 579 q 278 319 233 396 q 399 199 324 243 q 564 154 475 154 m 501 1264 l 642 1064 l 500 1050 l 328 1193 l 501 1264 z "},"Ở":{"ha":1158,"x_min":43,"x_max":1079,"o":"m 940 832 q 1042 676 1006 765 q 1079 488 1079 588 q 1011 234 1079 349 q 824 53 943 119 q 561 -14 706 -14 q 298 53 417 -14 q 111 234 179 119 q 43 488 43 349 q 111 740 43 626 q 298 919 179 854 q 561 985 417 985 q 793 935 685 985 q 839 928 814 928 q 903 955 881 928 q 925 1022 925 982 q 894 1117 925 1074 l 1038 1168 q 1075 1029 1075 1096 q 1039 908 1075 961 q 940 832 1003 856 m 564 154 q 726 199 651 154 q 845 319 801 243 q 889 488 889 396 q 845 655 889 579 q 726 774 801 731 q 564 818 651 818 q 399 774 475 818 q 278 655 322 731 q 233 488 233 579 q 278 319 233 396 q 399 199 324 243 q 564 154 475 154 m 564 1332 q 666 1300 625 1332 q 707 1213 707 1268 q 676 1121 707 1169 q 597 1029 646 1072 l 506 1071 q 549 1128 533 1097 q 564 1181 564 1158 q 553 1207 564 1197 q 525 1217 542 1217 q 475 1200 499 1217 l 421 1286 q 564 1332 485 1332 z "},"Ỡ":{"ha":1158,"x_min":43,"x_max":1079,"o":"m 940 832 q 1042 676 1006 765 q 1079 488 1079 588 q 1011 234 1079 349 q 824 53 943 119 q 561 -14 706 -14 q 298 53 417 -14 q 111 234 179 119 q 43 488 43 349 q 111 740 43 626 q 298 919 179 854 q 561 985 417 985 q 793 935 685 985 q 839 928 814 928 q 903 955 881 928 q 925 1022 925 982 q 894 1117 925 1074 l 1038 1168 q 1075 1029 1075 1096 q 1039 908 1075 961 q 940 832 1003 856 m 564 154 q 726 199 651 154 q 845 319 801 243 q 889 488 889 396 q 845 655 889 579 q 726 774 801 731 q 564 818 651 818 q 399 774 475 818 q 278 655 322 731 q 233 488 233 579 q 278 319 233 396 q 399 199 324 243 q 564 154 475 154 m 793 1246 q 671 1051 793 1051 q 612 1063 640 1051 q 549 1093 583 1074 q 486 1118 504 1118 q 457 1102 465 1118 q 449 1056 449 1086 l 333 1056 q 454 1251 333 1251 q 513 1240 485 1251 q 576 1210 542 1229 q 639 1185 621 1185 q 668 1201 660 1185 q 676 1246 676 1217 l 793 1246 z "},"Ő":{"ha":1124,"x_min":43,"x_max":1079,"o":"m 561 985 q 824 919 706 985 q 1011 740 943 854 q 1079 488 1079 626 q 1011 234 1079 349 q 824 53 943 119 q 561 -14 706 -14 q 298 53 417 -14 q 111 234 179 119 q 43 488 43 349 q 111 740 43 626 q 298 919 179 854 q 561 985 417 985 m 564 818 q 399 774 475 818 q 278 655 322 731 q 233 488 233 579 q 278 319 233 396 q 399 199 324 243 q 564 154 475 154 q 726 199 651 154 q 845 319 801 243 q 889 488 889 396 q 845 655 889 579 q 726 774 801 731 q 564 818 651 818 m 457 1272 l 606 1208 l 478 1050 l 347 1063 l 457 1272 m 697 1272 l 846 1208 l 718 1050 l 588 1063 l 697 1272 z "},"Ȏ":{"ha":1124,"x_min":43,"x_max":1079,"o":"m 561 985 q 824 919 706 985 q 1011 740 943 854 q 1079 488 1079 626 q 1011 234 1079 349 q 824 53 943 119 q 561 -14 706 -14 q 298 53 417 -14 q 111 234 179 119 q 43 488 43 349 q 111 740 43 626 q 298 919 179 854 q 561 985 417 985 m 564 818 q 399 774 475 818 q 278 655 322 731 q 233 488 233 579 q 278 319 233 396 q 399 199 324 243 q 564 154 475 154 q 726 199 651 154 q 845 319 801 243 q 889 488 889 396 q 845 655 889 579 q 726 774 801 731 q 564 818 651 818 m 357 1057 q 417 1206 360 1149 q 561 1263 474 1263 q 706 1206 649 1263 q 765 1057 763 1149 l 646 1057 q 619 1120 643 1096 q 561 1144 596 1144 q 503 1120 526 1144 q 476 1057 479 1096 l 357 1057 z "},"Ō":{"ha":1124,"x_min":43,"x_max":1079,"o":"m 561 985 q 824 919 706 985 q 1011 740 943 854 q 1079 488 1079 626 q 1011 234 1079 349 q 824 53 943 119 q 561 -14 706 -14 q 298 53 417 -14 q 111 234 179 119 q 43 488 43 349 q 111 740 43 626 q 298 919 179 854 q 561 985 417 985 m 564 818 q 399 774 475 818 q 278 655 322 731 q 233 488 233 579 q 278 319 233 396 q 399 199 324 243 q 564 154 475 154 q 726 199 651 154 q 845 319 801 243 q 889 488 889 396 q 845 655 889 579 q 726 774 801 731 q 564 818 651 818 m 342 1178 l 782 1178 l 782 1063 l 342 1063 l 342 1178 z "},"Ṓ":{"ha":1124,"x_min":43,"x_max":1079,"o":"m 561 985 q 824 919 706 985 q 1011 740 943 854 q 1079 488 1079 626 q 1011 234 1079 349 q 824 53 943 119 q 561 -14 706 -14 q 298 53 417 -14 q 111 234 179 119 q 43 488 43 349 q 111 740 43 626 q 298 919 179 854 q 561 985 417 985 m 564 818 q 399 774 475 818 q 278 655 322 731 q 233 488 233 579 q 278 319 233 396 q 399 199 324 243 q 564 154 475 154 q 726 199 651 154 q 845 319 801 243 q 889 488 889 396 q 845 655 889 579 q 726 774 801 731 q 564 818 651 818 m 364 1172 l 731 1172 l 731 1060 l 364 1060 l 364 1172 m 613 1431 l 757 1338 l 558 1229 l 435 1265 l 613 1431 z "},"Ṑ":{"ha":1124,"x_min":43,"x_max":1079,"o":"m 561 985 q 824 919 706 985 q 1011 740 943 854 q 1079 488 1079 626 q 1011 234 1079 349 q 824 53 943 119 q 561 -14 706 -14 q 298 53 417 -14 q 111 234 179 119 q 43 488 43 349 q 111 740 43 626 q 298 919 179 854 q 561 985 417 985 m 564 818 q 399 774 475 818 q 278 655 322 731 q 233 488 233 579 q 278 319 233 396 q 399 199 324 243 q 564 154 475 154 q 726 199 651 154 q 845 319 801 243 q 889 488 889 396 q 845 655 889 579 q 726 774 801 731 q 564 818 651 818 m 400 1172 l 767 1172 l 767 1060 l 400 1060 l 400 1172 m 497 1431 l 676 1265 l 551 1229 l 353 1338 l 497 1431 z "},"Ǫ":{"ha":1124,"x_min":43,"x_max":1079,"o":"m 1079 488 q 1013 236 1079 350 q 831 57 946 122 q 757 -44 786 10 q 728 -136 728 -97 q 764 -182 728 -182 q 807 -171 788 -182 l 846 -282 q 724 -310 779 -310 q 615 -271 656 -310 q 574 -164 574 -232 q 635 -10 574 -83 q 561 -14 600 -14 q 298 53 417 -14 q 111 234 179 119 q 43 488 43 349 q 111 740 43 626 q 298 919 179 854 q 561 985 417 985 q 824 919 706 985 q 1011 740 943 854 q 1079 488 1079 626 m 233 488 q 278 319 233 396 q 399 199 324 243 q 564 154 475 154 q 726 199 651 154 q 845 319 801 243 q 889 488 889 396 q 845 655 889 579 q 726 774 801 731 q 564 818 651 818 q 399 774 475 818 q 278 655 322 731 q 233 488 233 579 z "},"Ø":{"ha":1124,"x_min":43,"x_max":1079,"o":"m 886 872 q 1028 703 976 804 q 1079 485 1079 603 q 1011 234 1079 347 q 824 56 943 121 q 561 -10 706 -10 q 338 36 442 -10 l 264 -76 l 121 -76 l 235 97 q 94 266 144 165 q 43 485 43 367 q 111 735 43 622 q 298 912 179 847 q 561 976 417 976 q 782 932 681 976 l 858 1049 l 1001 1049 l 886 872 m 233 485 q 260 356 233 417 q 335 249 288 294 l 686 786 q 564 810 628 810 q 399 767 475 810 q 278 649 322 724 q 233 485 233 575 m 564 157 q 726 201 651 157 q 845 319 801 244 q 889 485 889 394 q 863 615 889 554 q 788 722 836 676 l 435 183 q 564 157 496 157 z "},"Ǿ":{"ha":1124,"x_min":43,"x_max":1079,"o":"m 886 872 q 1028 703 976 804 q 1079 485 1079 603 q 1011 234 1079 347 q 824 56 943 121 q 561 -10 706 -10 q 338 36 442 -10 l 264 -76 l 121 -76 l 235 97 q 94 266 144 165 q 43 485 43 367 q 111 735 43 622 q 298 912 179 847 q 561 976 417 976 q 782 932 681 976 l 858 1049 l 1001 1049 l 886 872 m 233 485 q 260 356 233 417 q 335 249 288 294 l 686 786 q 564 810 628 810 q 399 767 475 810 q 278 649 322 724 q 233 485 233 575 m 564 157 q 726 201 651 157 q 845 319 801 244 q 889 485 889 394 q 863 615 889 554 q 788 722 836 676 l 435 183 q 564 157 496 157 m 618 1264 l 792 1193 l 614 1050 l 474 1064 l 618 1264 z "},"Õ":{"ha":1124,"x_min":43,"x_max":1079,"o":"m 561 985 q 824 919 706 985 q 1011 740 943 854 q 1079 488 1079 626 q 1011 234 1079 349 q 824 53 943 119 q 561 -14 706 -14 q 298 53 417 -14 q 111 234 179 119 q 43 488 43 349 q 111 740 43 626 q 298 919 179 854 q 561 985 417 985 m 564 818 q 399 774 475 818 q 278 655 322 731 q 233 488 233 579 q 278 319 233 396 q 399 199 324 243 q 564 154 475 154 q 726 199 651 154 q 845 319 801 243 q 889 488 889 396 q 845 655 889 579 q 726 774 801 731 q 564 818 651 818 m 793 1246 q 671 1051 793 1051 q 612 1063 640 1051 q 549 1093 583 1074 q 486 1118 504 1118 q 457 1102 465 1118 q 449 1056 449 1086 l 333 1056 q 454 1251 333 1251 q 513 1240 485 1251 q 576 1210 542 1229 q 639 1185 621 1185 q 668 1201 660 1185 q 676 1246 676 1217 l 793 1246 z "},"Ṍ":{"ha":1124,"x_min":43,"x_max":1079,"o":"m 561 985 q 824 919 706 985 q 1011 740 943 854 q 1079 488 1079 626 q 1011 234 1079 349 q 824 53 943 119 q 561 -14 706 -14 q 298 53 417 -14 q 111 234 179 119 q 43 488 43 349 q 111 740 43 626 q 298 919 179 854 q 561 985 417 985 m 564 818 q 399 774 475 818 q 278 655 322 731 q 233 488 233 579 q 278 319 233 396 q 399 199 324 243 q 564 154 475 154 q 726 199 651 154 q 845 319 801 243 q 889 488 889 396 q 845 655 889 579 q 726 774 801 731 q 564 818 651 818 z "},"Ṏ":{"ha":1124,"x_min":43,"x_max":1079,"o":"m 561 985 q 824 919 706 985 q 1011 740 943 854 q 1079 488 1079 626 q 1011 234 1079 349 q 824 53 943 119 q 561 -14 706 -14 q 298 53 417 -14 q 111 234 179 119 q 43 488 43 349 q 111 740 43 626 q 298 919 179 854 q 561 985 417 985 m 564 818 q 399 774 475 818 q 278 655 322 731 q 233 488 233 579 q 278 319 233 396 q 399 199 324 243 q 564 154 475 154 q 726 199 651 154 q 845 319 801 243 q 889 488 889 396 q 845 655 889 579 q 726 774 801 731 q 564 818 651 818 z "},"Ȭ":{"ha":1124,"x_min":43,"x_max":1079,"o":"m 561 985 q 824 919 706 985 q 1011 740 943 854 q 1079 488 1079 626 q 1011 234 1079 349 q 824 53 943 119 q 561 -14 706 -14 q 298 53 417 -14 q 111 234 179 119 q 43 488 43 349 q 111 740 43 626 q 298 919 179 854 q 561 985 417 985 m 564 818 q 399 774 475 818 q 278 655 322 731 q 233 488 233 579 q 278 319 233 396 q 399 199 324 243 q 564 154 475 154 q 726 199 651 154 q 845 319 801 243 q 889 488 889 396 q 845 655 889 579 q 726 774 801 731 q 564 818 651 818 z "},"Œ":{"ha":1529,"x_min":43,"x_max":1460,"o":"m 1460 163 l 1460 0 l 560 0 q 297 64 415 0 q 111 239 179 128 q 43 486 43 350 q 111 732 43 621 q 297 908 179 843 q 560 972 415 972 l 1444 972 l 1444 810 l 918 810 l 918 569 l 1390 569 l 1390 407 l 918 407 l 918 163 l 1460 163 m 731 165 l 731 806 l 561 806 q 394 764 469 806 q 276 649 319 722 q 233 485 233 575 q 276 321 233 394 q 394 206 319 247 q 561 164 469 164 l 731 165 z "},"P":{"ha":938,"x_min":119,"x_max":903,"o":"m 518 972 q 802 885 701 972 q 903 638 903 797 q 802 378 903 471 q 518 286 701 286 l 306 286 l 306 0 l 119 0 l 119 972 l 518 972 m 508 450 q 670 496 614 450 q 726 632 726 542 q 670 765 726 721 q 508 810 614 810 l 306 810 l 306 450 l 508 450 z "},"Þ":{"ha":946,"x_min":119,"x_max":913,"o":"m 500 838 q 805 752 697 838 q 913 510 913 667 q 805 256 913 346 q 500 165 697 165 l 306 165 l 306 0 l 119 0 l 119 972 l 306 972 l 306 838 l 500 838 m 493 318 q 663 366 606 318 q 721 504 721 414 q 663 638 721 592 q 493 685 606 685 l 306 685 l 306 318 l 493 318 z "},"Q":{"ha":1133,"x_min":43,"x_max":1135,"o":"m 1135 -111 q 1007 -190 1079 -161 q 865 -218 935 -218 q 694 -165 774 -218 q 560 -14 615 -111 q 297 53 415 -14 q 111 234 179 119 q 43 488 43 349 q 111 740 43 626 q 298 919 179 854 q 561 985 417 985 q 824 919 706 985 q 1011 740 943 854 q 1079 488 1079 626 q 1037 284 1079 379 q 918 119 994 189 q 742 15 842 50 q 888 -62 815 -62 q 1063 15 963 -62 l 1135 -111 m 233 488 q 278 319 233 396 q 399 199 324 243 q 564 154 475 154 q 726 199 651 154 q 845 319 801 243 q 889 488 889 396 q 845 655 889 579 q 726 774 801 731 q 564 818 651 818 q 399 774 475 818 q 278 655 322 731 q 233 488 233 579 z "},"R":{"ha":1004,"x_min":119,"x_max":940,"o":"m 728 0 l 560 288 q 525 286 549 286 l 306 286 l 306 0 l 119 0 l 119 972 l 525 972 q 817 885 714 972 q 919 638 919 797 q 870 443 919 524 q 726 322 821 363 l 940 0 l 728 0 m 306 450 l 525 450 q 686 496 631 450 q 742 632 742 542 q 686 765 742 721 q 525 810 631 810 l 306 810 l 306 450 z "},"Ŕ":{"ha":1004,"x_min":119,"x_max":940,"o":"m 728 0 l 560 288 q 525 286 549 286 l 306 286 l 306 0 l 119 0 l 119 972 l 525 972 q 817 885 714 972 q 919 638 919 797 q 870 443 919 524 q 726 322 821 363 l 940 0 l 728 0 m 306 450 l 525 450 q 686 496 631 450 q 742 632 742 542 q 686 765 742 721 q 525 810 631 810 l 306 810 l 306 450 m 535 1264 l 708 1193 l 531 1050 l 390 1064 l 535 1264 z "},"Ř":{"ha":1004,"x_min":119,"x_max":940,"o":"m 728 0 l 560 288 q 525 286 549 286 l 306 286 l 306 0 l 119 0 l 119 972 l 525 972 q 817 885 714 972 q 919 638 919 797 q 870 443 919 524 q 726 322 821 363 l 940 0 l 728 0 m 306 450 l 525 450 q 686 496 631 450 q 742 632 742 542 q 686 765 742 721 q 525 810 631 810 l 306 810 l 306 450 m 524 1257 l 685 1257 l 535 1057 l 360 1057 l 210 1257 l 371 1257 l 447 1169 l 524 1257 z "},"Ŗ":{"ha":1004,"x_min":119,"x_max":940,"o":"m 728 0 l 560 288 q 525 286 549 286 l 306 286 l 306 0 l 119 0 l 119 972 l 525 972 q 817 885 714 972 q 919 638 919 797 q 870 443 919 524 q 726 322 821 363 l 940 0 l 728 0 m 306 450 l 525 450 q 686 496 631 450 q 742 632 742 542 q 686 765 742 721 q 525 810 631 810 l 306 810 l 306 450 m 421 -82 l 582 -82 l 496 -311 l 374 -311 l 421 -82 z "},"Ȑ":{"ha":1004,"x_min":119,"x_max":940,"o":"m 728 0 l 560 288 q 525 286 549 286 l 306 286 l 306 0 l 119 0 l 119 972 l 525 972 q 817 885 714 972 q 919 638 919 797 q 870 443 919 524 q 726 322 821 363 l 940 0 l 728 0 m 306 450 l 525 450 q 686 496 631 450 q 742 632 742 542 q 686 765 742 721 q 525 810 631 810 l 306 810 l 306 450 m 331 1271 l 440 1061 l 310 1049 l 182 1207 l 331 1271 m 571 1271 l 681 1061 l 550 1049 l 422 1207 l 571 1271 z "},"Ṛ":{"ha":1004,"x_min":119,"x_max":940,"o":"m 728 0 l 560 288 q 525 286 549 286 l 306 286 l 306 0 l 119 0 l 119 972 l 525 972 q 817 885 714 972 q 919 638 919 797 q 870 443 919 524 q 726 322 821 363 l 940 0 l 728 0 m 306 450 l 525 450 q 686 496 631 450 q 742 632 742 542 q 686 765 742 721 q 525 810 631 810 l 306 810 l 306 450 m 500 -97 q 574 -128 544 -97 q 603 -206 603 -158 q 574 -282 603 -251 q 500 -312 544 -312 q 426 -282 456 -312 q 397 -206 397 -251 q 426 -128 397 -158 q 500 -97 456 -97 z "},"Ȓ":{"ha":1004,"x_min":119,"x_max":940,"o":"m 728 0 l 560 288 q 525 286 549 286 l 306 286 l 306 0 l 119 0 l 119 972 l 525 972 q 817 885 714 972 q 919 638 919 797 q 870 443 919 524 q 726 322 821 363 l 940 0 l 728 0 m 306 450 l 525 450 q 686 496 631 450 q 742 632 742 542 q 686 765 742 721 q 525 810 631 810 l 306 810 l 306 450 m 278 1057 q 338 1206 281 1149 q 482 1263 394 1263 q 626 1206 569 1263 q 686 1057 683 1149 l 567 1057 q 540 1120 564 1096 q 482 1144 517 1144 q 424 1120 447 1144 q 397 1057 400 1096 l 278 1057 z "},"Ṟ":{"ha":1004,"x_min":119,"x_max":940,"o":"m 728 0 l 560 288 q 525 286 549 286 l 306 286 l 306 0 l 119 0 l 119 972 l 525 972 q 817 885 714 972 q 919 638 919 797 q 870 443 919 524 q 726 322 821 363 l 940 0 l 728 0 m 306 450 l 525 450 q 686 496 631 450 q 742 632 742 542 q 686 765 742 721 q 525 810 631 810 l 306 810 l 306 450 m 292 -111 l 707 -111 l 707 -226 l 292 -226 l 292 -111 z "},"S":{"ha":872,"x_min":32,"x_max":815,"o":"m 731 722 q 577 793 656 768 q 439 818 499 818 q 333 793 372 818 q 294 724 294 768 q 322 656 294 683 q 390 612 349 629 q 501 574 431 594 q 663 515 600 544 q 771 429 726 486 q 815 279 815 372 q 767 124 815 190 q 635 24 719 58 q 443 -11 551 -11 q 221 31 329 -11 q 32 144 113 74 l 110 303 q 275 196 183 235 q 446 157 367 157 q 568 187 524 157 q 613 268 613 217 q 585 337 613 310 q 517 381 558 364 q 403 418 475 397 q 242 475 304 447 q 135 559 179 503 q 90 707 90 615 q 135 855 90 792 q 263 953 181 918 q 454 988 346 988 q 641 960 549 988 q 806 885 733 932 l 731 722 z "},"Ś":{"ha":872,"x_min":32,"x_max":815,"o":"m 731 722 q 577 793 656 768 q 439 818 499 818 q 333 793 372 818 q 294 724 294 768 q 322 656 294 683 q 390 612 349 629 q 501 574 431 594 q 663 515 600 544 q 771 429 726 486 q 815 279 815 372 q 767 124 815 190 q 635 24 719 58 q 443 -11 551 -11 q 221 31 329 -11 q 32 144 113 74 l 110 303 q 275 196 183 235 q 446 157 367 157 q 568 187 524 157 q 613 268 613 217 q 585 337 613 310 q 517 381 558 364 q 403 418 475 397 q 242 475 304 447 q 135 559 179 503 q 90 707 90 615 q 135 855 90 792 q 263 953 181 918 q 454 988 346 988 q 641 960 549 988 q 806 885 733 932 l 731 722 m 504 1264 l 678 1193 l 500 1050 l 360 1064 l 504 1264 z "},"Ṥ":{"ha":872,"x_min":32,"x_max":815,"o":"m 731 722 q 577 793 656 768 q 439 818 499 818 q 333 793 372 818 q 294 724 294 768 q 322 656 294 683 q 390 612 349 629 q 501 574 431 594 q 663 515 600 544 q 771 429 726 486 q 815 279 815 372 q 767 124 815 190 q 635 24 719 58 q 443 -11 551 -11 q 221 31 329 -11 q 32 144 113 74 l 110 303 q 275 196 183 235 q 446 157 367 157 q 568 187 524 157 q 613 268 613 217 q 585 337 613 310 q 517 381 558 364 q 403 418 475 397 q 242 475 304 447 q 135 559 179 503 q 90 707 90 615 q 135 855 90 792 q 263 953 181 918 q 454 988 346 988 q 641 960 549 988 q 806 885 733 932 l 731 722 z "},"Ꞌ":{"ha":388,"x_min":100,"x_max":286,"o":"m 100 972 l 286 972 l 265 418 l 100 418 l 100 972 z "},"Š":{"ha":872,"x_min":32,"x_max":815,"o":"m 731 722 q 577 793 656 768 q 439 818 499 818 q 333 793 372 818 q 294 724 294 768 q 322 656 294 683 q 390 612 349 629 q 501 574 431 594 q 663 515 600 544 q 771 429 726 486 q 815 279 815 372 q 767 124 815 190 q 635 24 719 58 q 443 -11 551 -11 q 221 31 329 -11 q 32 144 113 74 l 110 303 q 275 196 183 235 q 446 157 367 157 q 568 187 524 157 q 613 268 613 217 q 585 337 613 310 q 517 381 558 364 q 403 418 475 397 q 242 475 304 447 q 135 559 179 503 q 90 707 90 615 q 135 855 90 792 q 263 953 181 918 q 454 988 346 988 q 641 960 549 988 q 806 885 733 932 l 731 722 m 493 1257 l 654 1257 l 504 1057 l 329 1057 l 179 1257 l 340 1257 l 417 1169 l 493 1257 z "},"Ṧ":{"ha":872,"x_min":32,"x_max":815,"o":"m 731 722 q 577 793 656 768 q 439 818 499 818 q 333 793 372 818 q 294 724 294 768 q 322 656 294 683 q 390 612 349 629 q 501 574 431 594 q 663 515 600 544 q 771 429 726 486 q 815 279 815 372 q 767 124 815 190 q 635 24 719 58 q 443 -11 551 -11 q 221 31 329 -11 q 32 144 113 74 l 110 303 q 275 196 183 235 q 446 157 367 157 q 568 187 524 157 q 613 268 613 217 q 585 337 613 310 q 517 381 558 364 q 403 418 475 397 q 242 475 304 447 q 135 559 179 503 q 90 707 90 615 q 135 855 90 792 q 263 953 181 918 q 454 988 346 988 q 641 960 549 988 q 806 885 733 932 l 731 722 z "},"Ş":{"ha":872,"x_min":32,"x_max":815,"o":"m 294 724 q 322 656 294 683 q 390 612 349 629 q 501 574 431 594 q 663 515 600 544 q 771 429 726 486 q 815 279 815 372 q 733 85 815 161 q 515 -7 651 10 l 490 -74 q 576 -113 549 -83 q 604 -185 604 -143 q 558 -278 604 -246 q 439 -311 511 -311 q 300 -282 371 -311 l 333 -185 q 413 -200 376 -200 q 454 -190 439 -200 q 469 -167 469 -181 q 451 -142 469 -151 q 400 -132 433 -132 l 358 -132 l 399 -10 q 200 40 296 -1 q 32 144 104 81 l 110 303 q 275 196 183 235 q 446 157 367 157 q 568 187 524 157 q 613 268 613 217 q 585 337 613 310 q 517 381 558 364 q 403 418 475 397 q 242 475 304 447 q 135 559 179 503 q 90 707 90 615 q 135 855 90 792 q 263 953 181 918 q 454 988 346 988 q 641 960 549 988 q 806 885 733 932 l 731 722 q 577 793 656 768 q 439 818 499 818 q 333 793 372 818 q 294 724 294 768 z "},"Ŝ":{"ha":872,"x_min":32,"x_max":815,"o":"m 731 722 q 577 793 656 768 q 439 818 499 818 q 333 793 372 818 q 294 724 294 768 q 322 656 294 683 q 390 612 349 629 q 501 574 431 594 q 663 515 600 544 q 771 429 726 486 q 815 279 815 372 q 767 124 815 190 q 635 24 719 58 q 443 -11 551 -11 q 221 31 329 -11 q 32 144 113 74 l 110 303 q 275 196 183 235 q 446 157 367 157 q 568 187 524 157 q 613 268 613 217 q 585 337 613 310 q 517 381 558 364 q 403 418 475 397 q 242 475 304 447 q 135 559 179 503 q 90 707 90 615 q 135 855 90 792 q 263 953 181 918 q 454 988 346 988 q 641 960 549 988 q 806 885 733 932 l 731 722 m 689 1057 l 528 1057 l 451 1144 l 375 1057 l 214 1057 l 364 1257 l 539 1257 l 689 1057 z "},"Ș":{"ha":872,"x_min":32,"x_max":815,"o":"m 731 722 q 577 793 656 768 q 439 818 499 818 q 333 793 372 818 q 294 724 294 768 q 322 656 294 683 q 390 612 349 629 q 501 574 431 594 q 663 515 600 544 q 771 429 726 486 q 815 279 815 372 q 767 124 815 190 q 635 24 719 58 q 443 -11 551 -11 q 221 31 329 -11 q 32 144 113 74 l 110 303 q 275 196 183 235 q 446 157 367 157 q 568 187 524 157 q 613 268 613 217 q 585 337 613 310 q 517 381 558 364 q 403 418 475 397 q 242 475 304 447 q 135 559 179 503 q 90 707 90 615 q 135 855 90 792 q 263 953 181 918 q 454 988 346 988 q 641 960 549 988 q 806 885 733 932 l 731 722 m 365 -82 l 526 -82 l 440 -311 l 318 -311 l 365 -82 z "},"Ṡ":{"ha":872,"x_min":32,"x_max":815,"o":"m 731 722 q 577 793 656 768 q 439 818 499 818 q 333 793 372 818 q 294 724 294 768 q 322 656 294 683 q 390 612 349 629 q 501 574 431 594 q 663 515 600 544 q 771 429 726 486 q 815 279 815 372 q 767 124 815 190 q 635 24 719 58 q 443 -11 551 -11 q 221 31 329 -11 q 32 144 113 74 l 110 303 q 275 196 183 235 q 446 157 367 157 q 568 187 524 157 q 613 268 613 217 q 585 337 613 310 q 517 381 558 364 q 403 418 475 397 q 242 475 304 447 q 135 559 179 503 q 90 707 90 615 q 135 855 90 792 q 263 953 181 918 q 454 988 346 988 q 641 960 549 988 q 806 885 733 932 l 731 722 m 451 1267 q 525 1237 496 1267 q 554 1160 554 1207 q 525 1082 554 1113 q 451 1051 496 1051 q 378 1082 407 1051 q 349 1160 349 1113 q 378 1237 349 1207 q 451 1267 407 1267 z "},"Ṣ":{"ha":872,"x_min":32,"x_max":815,"o":"m 731 722 q 577 793 656 768 q 439 818 499 818 q 333 793 372 818 q 294 724 294 768 q 322 656 294 683 q 390 612 349 629 q 501 574 431 594 q 663 515 600 544 q 771 429 726 486 q 815 279 815 372 q 767 124 815 190 q 635 24 719 58 q 443 -11 551 -11 q 221 31 329 -11 q 32 144 113 74 l 110 303 q 275 196 183 235 q 446 157 367 157 q 568 187 524 157 q 613 268 613 217 q 585 337 613 310 q 517 381 558 364 q 403 418 475 397 q 242 475 304 447 q 135 559 179 503 q 90 707 90 615 q 135 855 90 792 q 263 953 181 918 q 454 988 346 988 q 641 960 549 988 q 806 885 733 932 l 731 722 m 444 -97 q 518 -128 489 -97 q 547 -206 547 -158 q 518 -282 547 -251 q 444 -312 489 -312 q 371 -282 400 -312 q 342 -206 342 -251 q 371 -128 342 -158 q 444 -97 400 -97 z "},"Ṩ":{"ha":872,"x_min":32,"x_max":815,"o":"m 731 722 q 577 793 656 768 q 439 818 499 818 q 333 793 372 818 q 294 724 294 768 q 322 656 294 683 q 390 612 349 629 q 501 574 431 594 q 663 515 600 544 q 771 429 726 486 q 815 279 815 372 q 767 124 815 190 q 635 24 719 58 q 443 -11 551 -11 q 221 31 329 -11 q 32 144 113 74 l 110 303 q 275 196 183 235 q 446 157 367 157 q 568 187 524 157 q 613 268 613 217 q 585 337 613 310 q 517 381 558 364 q 403 418 475 397 q 242 475 304 447 q 135 559 179 503 q 90 707 90 615 q 135 855 90 792 q 263 953 181 918 q 454 988 346 988 q 641 960 549 988 q 806 885 733 932 l 731 722 m 444 -97 q 518 -128 489 -97 q 547 -206 547 -158 q 518 -282 547 -251 q 444 -312 489 -312 q 371 -282 400 -312 q 342 -206 342 -251 q 371 -128 342 -158 q 444 -97 400 -97 m 444 1267 q 518 1237 489 1267 q 547 1160 547 1207 q 518 1082 547 1113 q 444 1051 489 1051 q 371 1082 400 1051 q 342 1160 342 1113 q 371 1237 342 1207 q 444 1267 400 1267 z "},"ẞ":{"ha":953,"x_min":101,"x_max":914,"o":"m 697 556 q 857 459 800 529 q 914 286 914 389 q 822 77 914 154 q 568 0 731 0 l 456 0 l 456 160 l 561 160 q 680 195 636 160 q 724 292 724 231 q 681 390 724 354 q 561 425 638 425 l 504 425 l 504 569 l 685 781 q 524 817 617 817 q 350 753 413 817 q 288 575 288 689 l 288 0 l 101 0 l 101 569 q 211 872 101 764 q 515 981 321 981 q 843 875 707 981 l 843 724 l 697 556 z "},"Ə":{"ha":1088,"x_min":40,"x_max":1042,"o":"m 544 -14 q 281 56 396 -14 q 103 249 167 125 q 40 533 40 374 l 854 533 q 801 679 844 614 q 692 781 758 744 q 547 818 625 818 q 396 781 465 818 q 281 681 326 744 l 147 814 q 544 985 304 985 q 797 919 683 985 q 976 740 911 854 q 1042 488 1042 626 q 976 234 1042 349 q 797 53 911 119 q 544 -14 683 -14 m 547 154 q 737 217 656 154 q 846 385 818 281 l 243 385 q 352 217 271 281 q 547 154 433 154 z "},"T":{"ha":817,"x_min":11,"x_max":804,"o":"m 11 972 l 804 972 l 804 807 l 501 807 l 501 0 l 314 0 l 314 807 l 11 807 l 11 972 z "},"Ŧ":{"ha":817,"x_min":11,"x_max":804,"o":"m 804 807 l 501 807 l 501 503 l 700 503 l 700 394 l 501 394 l 501 0 l 314 0 l 314 394 l 114 394 l 114 503 l 314 503 l 314 807 l 11 807 l 11 972 l 804 972 l 804 807 z "},"Ť":{"ha":817,"x_min":11,"x_max":804,"o":"m 11 972 l 804 972 l 804 807 l 501 807 l 501 0 l 314 0 l 314 807 l 11 807 l 11 972 m 463 1257 l 624 1257 l 474 1057 l 299 1057 l 149 1257 l 310 1257 l 386 1169 l 463 1257 z "},"Ţ":{"ha":817,"x_min":11,"x_max":804,"o":"m 481 0 l 453 -74 q 539 -113 511 -83 q 567 -185 567 -143 q 520 -278 567 -246 q 401 -311 474 -311 q 263 -282 333 -311 l 296 -185 q 375 -200 339 -200 q 417 -190 401 -200 q 432 -167 432 -181 q 414 -142 432 -151 q 363 -132 396 -132 l 321 -132 l 364 0 l 314 0 l 314 807 l 11 807 l 11 972 l 804 972 l 804 807 l 501 807 l 501 0 l 481 0 z "},"Ț":{"ha":817,"x_min":11,"x_max":804,"o":"m 11 972 l 804 972 l 804 807 l 501 807 l 501 0 l 314 0 l 314 807 l 11 807 l 11 972 m 328 -82 l 489 -82 l 403 -311 l 281 -311 l 328 -82 z "},"Ṭ":{"ha":817,"x_min":11,"x_max":804,"o":"m 11 972 l 804 972 l 804 807 l 501 807 l 501 0 l 314 0 l 314 807 l 11 807 l 11 972 m 407 -97 q 481 -128 451 -97 q 510 -206 510 -158 q 481 -282 510 -251 q 407 -312 451 -312 q 333 -282 363 -312 q 304 -206 304 -251 q 333 -128 304 -158 q 407 -97 363 -97 z "},"Ṯ":{"ha":817,"x_min":11,"x_max":804,"o":"m 11 972 l 804 972 l 804 807 l 501 807 l 501 0 l 314 0 l 314 807 l 11 807 l 11 972 m 199 -111 l 614 -111 l 614 -226 l 199 -226 l 199 -111 z "},"U":{"ha":1050,"x_min":101,"x_max":950,"o":"m 288 400 q 353 219 288 285 q 528 154 418 154 q 701 219 638 154 q 764 400 764 285 l 764 972 l 950 972 l 950 400 q 899 180 950 274 q 752 36 847 86 q 528 -14 657 -14 q 301 36 397 -14 q 153 180 204 86 q 101 400 101 274 l 101 972 l 288 972 l 288 400 z "},"Ú":{"ha":1050,"x_min":101,"x_max":950,"o":"m 288 400 q 353 219 288 285 q 528 154 418 154 q 701 219 638 154 q 764 400 764 285 l 764 972 l 950 972 l 950 400 q 899 180 950 274 q 752 36 847 86 q 528 -14 657 -14 q 301 36 397 -14 q 153 180 204 86 q 101 400 101 274 l 101 972 l 288 972 l 288 400 m 579 1264 l 753 1193 l 575 1050 l 435 1064 l 579 1264 z "},"Ŭ":{"ha":1050,"x_min":101,"x_max":950,"o":"m 288 400 q 353 219 288 285 q 528 154 418 154 q 701 219 638 154 q 764 400 764 285 l 764 972 l 950 972 l 950 400 q 899 180 950 274 q 752 36 847 86 q 528 -14 657 -14 q 301 36 397 -14 q 153 180 204 86 q 101 400 101 274 l 101 972 l 288 972 l 288 400 m 442 1257 q 468 1193 444 1218 q 526 1168 492 1168 q 585 1193 561 1168 q 611 1257 608 1218 l 731 1257 q 671 1108 728 1165 q 526 1051 614 1051 q 382 1108 439 1051 q 322 1257 325 1165 l 442 1257 z "},"Û":{"ha":1050,"x_min":101,"x_max":950,"o":"m 288 400 q 353 219 288 285 q 528 154 418 154 q 701 219 638 154 q 764 400 764 285 l 764 972 l 950 972 l 950 400 q 899 180 950 274 q 752 36 847 86 q 528 -14 657 -14 q 301 36 397 -14 q 153 180 204 86 q 101 400 101 274 l 101 972 l 288 972 l 288 400 m 764 1057 l 603 1057 l 526 1144 l 450 1057 l 289 1057 l 439 1257 l 614 1257 l 764 1057 z "},"Ȕ":{"ha":1050,"x_min":101,"x_max":950,"o":"m 288 400 q 353 219 288 285 q 528 154 418 154 q 701 219 638 154 q 764 400 764 285 l 764 972 l 950 972 l 950 400 q 899 180 950 274 q 752 36 847 86 q 528 -14 657 -14 q 301 36 397 -14 q 153 180 204 86 q 101 400 101 274 l 101 972 l 288 972 l 288 400 m 375 1271 l 485 1061 l 354 1049 l 226 1207 l 375 1271 m 615 1271 l 725 1061 l 594 1049 l 467 1207 l 615 1271 z "},"Ü":{"ha":1050,"x_min":101,"x_max":950,"o":"m 288 400 q 353 219 288 285 q 528 154 418 154 q 701 219 638 154 q 764 400 764 285 l 764 972 l 950 972 l 950 400 q 899 180 950 274 q 752 36 847 86 q 528 -14 657 -14 q 301 36 397 -14 q 153 180 204 86 q 101 400 101 274 l 101 972 l 288 972 l 288 400 m 401 1238 q 465 1211 439 1238 q 490 1144 490 1185 q 465 1078 490 1106 q 401 1051 439 1051 q 337 1078 363 1051 q 311 1144 311 1106 q 337 1211 311 1185 q 401 1238 363 1238 m 653 1238 q 717 1211 692 1238 q 742 1144 742 1185 q 716 1078 742 1106 q 653 1051 690 1051 q 588 1078 614 1051 q 563 1144 563 1106 q 588 1211 563 1185 q 653 1238 614 1238 z "},"Ụ":{"ha":1050,"x_min":101,"x_max":950,"o":"m 288 400 q 353 219 288 285 q 528 154 418 154 q 701 219 638 154 q 764 400 764 285 l 764 972 l 950 972 l 950 400 q 899 180 950 274 q 752 36 847 86 q 528 -14 657 -14 q 301 36 397 -14 q 153 180 204 86 q 101 400 101 274 l 101 972 l 288 972 l 288 400 m 526 -97 q 600 -128 571 -97 q 629 -206 629 -158 q 600 -282 629 -251 q 526 -312 571 -312 q 453 -282 482 -312 q 424 -206 424 -251 q 453 -128 424 -158 q 526 -97 482 -97 z "},"Ù":{"ha":1050,"x_min":101,"x_max":950,"o":"m 288 400 q 353 219 288 285 q 528 154 418 154 q 701 219 638 154 q 764 400 764 285 l 764 972 l 950 972 l 950 400 q 899 180 950 274 q 752 36 847 86 q 528 -14 657 -14 q 301 36 397 -14 q 153 180 204 86 q 101 400 101 274 l 101 972 l 288 972 l 288 400 m 465 1264 l 606 1064 l 464 1050 l 292 1193 l 465 1264 z "},"Ủ":{"ha":1050,"x_min":101,"x_max":950,"o":"m 288 400 q 353 219 288 285 q 528 154 418 154 q 701 219 638 154 q 764 400 764 285 l 764 972 l 950 972 l 950 400 q 899 180 950 274 q 752 36 847 86 q 528 -14 657 -14 q 301 36 397 -14 q 153 180 204 86 q 101 400 101 274 l 101 972 l 288 972 l 288 400 m 529 1332 q 631 1300 590 1332 q 672 1213 672 1268 q 642 1121 672 1169 q 563 1029 611 1072 l 471 1071 q 514 1128 499 1097 q 529 1181 529 1158 q 518 1207 529 1197 q 490 1217 507 1217 q 440 1200 464 1217 l 386 1286 q 529 1332 450 1332 z "},"Ư":{"ha":1097,"x_min":101,"x_max":1113,"o":"m 1085 1168 q 1113 1044 1113 1103 q 1071 929 1113 975 q 950 869 1029 883 l 950 400 q 899 180 950 274 q 752 36 847 86 q 528 -14 657 -14 q 301 36 397 -14 q 153 180 204 86 q 101 400 101 274 l 101 972 l 288 972 l 288 400 q 353 219 288 285 q 528 154 418 154 q 701 219 638 154 q 764 400 764 285 l 764 972 l 882 972 l 882 974 q 949 993 926 974 q 972 1046 972 1013 q 951 1118 972 1081 l 1085 1168 z "},"Ứ":{"ha":1097,"x_min":101,"x_max":1113,"o":"m 1085 1168 q 1113 1044 1113 1103 q 1071 929 1113 975 q 950 869 1029 883 l 950 400 q 899 180 950 274 q 752 36 847 86 q 528 -14 657 -14 q 301 36 397 -14 q 153 180 204 86 q 101 400 101 274 l 101 972 l 288 972 l 288 400 q 353 219 288 285 q 528 154 418 154 q 701 219 638 154 q 764 400 764 285 l 764 972 l 882 972 l 882 974 q 949 993 926 974 q 972 1046 972 1013 q 951 1118 972 1081 l 1085 1168 m 579 1264 l 753 1193 l 575 1050 l 435 1064 l 579 1264 z "},"Ự":{"ha":1097,"x_min":101,"x_max":1113,"o":"m 1085 1168 q 1113 1044 1113 1103 q 1071 929 1113 975 q 950 869 1029 883 l 950 400 q 899 180 950 274 q 752 36 847 86 q 528 -14 657 -14 q 301 36 397 -14 q 153 180 204 86 q 101 400 101 274 l 101 972 l 288 972 l 288 400 q 353 219 288 285 q 528 154 418 154 q 701 219 638 154 q 764 400 764 285 l 764 972 l 882 972 l 882 974 q 949 993 926 974 q 972 1046 972 1013 q 951 1118 972 1081 l 1085 1168 m 525 -97 q 599 -128 569 -97 q 628 -206 628 -158 q 599 -282 628 -251 q 525 -312 569 -312 q 451 -282 481 -312 q 422 -206 422 -251 q 451 -128 422 -158 q 525 -97 481 -97 z "},"Ừ":{"ha":1097,"x_min":101,"x_max":1113,"o":"m 1085 1168 q 1113 1044 1113 1103 q 1071 929 1113 975 q 950 869 1029 883 l 950 400 q 899 180 950 274 q 752 36 847 86 q 528 -14 657 -14 q 301 36 397 -14 q 153 180 204 86 q 101 400 101 274 l 101 972 l 288 972 l 288 400 q 353 219 288 285 q 528 154 418 154 q 701 219 638 154 q 764 400 764 285 l 764 972 l 882 972 l 882 974 q 949 993 926 974 q 972 1046 972 1013 q 951 1118 972 1081 l 1085 1168 m 465 1264 l 606 1064 l 464 1050 l 292 1193 l 465 1264 z "},"Ử":{"ha":1097,"x_min":101,"x_max":1113,"o":"m 1085 1168 q 1113 1044 1113 1103 q 1071 929 1113 975 q 950 869 1029 883 l 950 400 q 899 180 950 274 q 752 36 847 86 q 528 -14 657 -14 q 301 36 397 -14 q 153 180 204 86 q 101 400 101 274 l 101 972 l 288 972 l 288 400 q 353 219 288 285 q 528 154 418 154 q 701 219 638 154 q 764 400 764 285 l 764 972 l 882 972 l 882 974 q 949 993 926 974 q 972 1046 972 1013 q 951 1118 972 1081 l 1085 1168 m 529 1332 q 631 1300 590 1332 q 672 1213 672 1268 q 642 1121 672 1169 q 563 1029 611 1072 l 471 1071 q 514 1128 499 1097 q 529 1181 529 1158 q 518 1207 529 1197 q 490 1217 507 1217 q 440 1200 464 1217 l 386 1286 q 529 1332 450 1332 z "},"Ữ":{"ha":1097,"x_min":101,"x_max":1113,"o":"m 1085 1168 q 1113 1044 1113 1103 q 1071 929 1113 975 q 950 869 1029 883 l 950 400 q 899 180 950 274 q 752 36 847 86 q 528 -14 657 -14 q 301 36 397 -14 q 153 180 204 86 q 101 400 101 274 l 101 972 l 288 972 l 288 400 q 353 219 288 285 q 528 154 418 154 q 701 219 638 154 q 764 400 764 285 l 764 972 l 882 972 l 882 974 q 949 993 926 974 q 972 1046 972 1013 q 951 1118 972 1081 l 1085 1168 m 758 1246 q 636 1051 758 1051 q 577 1063 606 1051 q 514 1093 549 1074 q 451 1118 469 1118 q 422 1102 431 1118 q 414 1056 414 1086 l 299 1056 q 419 1251 299 1251 q 478 1240 450 1251 q 542 1210 507 1229 q 604 1185 586 1185 q 633 1201 625 1185 q 642 1246 642 1217 l 758 1246 z "},"Ű":{"ha":1050,"x_min":101,"x_max":950,"o":"m 288 400 q 353 219 288 285 q 528 154 418 154 q 701 219 638 154 q 764 400 764 285 l 764 972 l 950 972 l 950 400 q 899 180 950 274 q 752 36 847 86 q 528 -14 657 -14 q 301 36 397 -14 q 153 180 204 86 q 101 400 101 274 l 101 972 l 288 972 l 288 400 m 422 1272 l 571 1208 l 443 1050 l 313 1063 l 422 1272 m 663 1272 l 811 1208 l 683 1050 l 553 1063 l 663 1272 z "},"Ȗ":{"ha":1050,"x_min":101,"x_max":950,"o":"m 288 400 q 353 219 288 285 q 528 154 418 154 q 701 219 638 154 q 764 400 764 285 l 764 972 l 950 972 l 950 400 q 899 180 950 274 q 752 36 847 86 q 528 -14 657 -14 q 301 36 397 -14 q 153 180 204 86 q 101 400 101 274 l 101 972 l 288 972 l 288 400 m 322 1057 q 382 1206 325 1149 q 526 1263 439 1263 q 671 1206 614 1263 q 731 1057 728 1149 l 611 1057 q 585 1120 608 1096 q 526 1144 561 1144 q 468 1120 492 1144 q 442 1057 444 1096 l 322 1057 z "},"Ū":{"ha":1050,"x_min":101,"x_max":950,"o":"m 288 400 q 353 219 288 285 q 528 154 418 154 q 701 219 638 154 q 764 400 764 285 l 764 972 l 950 972 l 950 400 q 899 180 950 274 q 752 36 847 86 q 528 -14 657 -14 q 301 36 397 -14 q 153 180 204 86 q 101 400 101 274 l 101 972 l 288 972 l 288 400 m 307 1178 l 747 1178 l 747 1063 l 307 1063 l 307 1178 z "},"Ṻ":{"ha":1050,"x_min":101,"x_max":950,"o":"m 288 400 q 353 219 288 285 q 528 154 418 154 q 701 219 638 154 q 764 400 764 285 l 764 972 l 950 972 l 950 400 q 899 180 950 274 q 752 36 847 86 q 528 -14 657 -14 q 301 36 397 -14 q 153 180 204 86 q 101 400 101 274 l 101 972 l 288 972 l 288 400 z "},"Ų":{"ha":1050,"x_min":101,"x_max":950,"o":"m 950 972 l 950 400 q 909 199 950 286 q 790 60 868 113 q 715 -42 744 11 q 685 -136 685 -96 q 721 -182 685 -182 q 764 -171 744 -182 l 803 -282 q 681 -310 736 -310 q 572 -271 613 -310 q 531 -164 531 -232 q 590 -11 531 -85 q 528 -14 551 -14 q 301 36 397 -14 q 153 180 204 86 q 101 400 101 274 l 101 972 l 288 972 l 288 400 q 353 219 288 285 q 528 154 418 154 q 701 219 638 154 q 764 400 764 285 l 764 972 l 950 972 z "},"Ů":{"ha":1050,"x_min":101,"x_max":950,"o":"m 288 400 q 353 219 288 285 q 528 154 418 154 q 701 219 638 154 q 764 400 764 285 l 764 972 l 950 972 l 950 400 q 899 180 950 274 q 752 36 847 86 q 528 -14 657 -14 q 301 36 397 -14 q 153 180 204 86 q 101 400 101 274 l 101 972 l 288 972 l 288 400 m 526 1346 q 637 1300 590 1346 q 683 1190 683 1254 q 637 1080 683 1126 q 526 1033 590 1033 q 415 1080 461 1033 q 369 1190 369 1126 q 416 1300 369 1254 q 526 1346 463 1346 m 526 1257 q 478 1237 499 1257 q 457 1190 457 1217 q 478 1143 457 1163 q 526 1124 499 1124 q 575 1143 554 1124 q 596 1190 596 1163 q 575 1237 596 1217 q 526 1257 554 1257 z "},"Ũ":{"ha":1050,"x_min":101,"x_max":950,"o":"m 288 400 q 353 219 288 285 q 528 154 418 154 q 701 219 638 154 q 764 400 764 285 l 764 972 l 950 972 l 950 400 q 899 180 950 274 q 752 36 847 86 q 528 -14 657 -14 q 301 36 397 -14 q 153 180 204 86 q 101 400 101 274 l 101 972 l 288 972 l 288 400 m 758 1246 q 636 1051 758 1051 q 577 1063 606 1051 q 514 1093 549 1074 q 451 1118 469 1118 q 422 1102 431 1118 q 414 1056 414 1086 l 299 1056 q 419 1251 299 1251 q 478 1240 450 1251 q 542 1210 507 1229 q 604 1185 586 1185 q 633 1201 625 1185 q 642 1246 642 1217 l 758 1246 z "},"Ṹ":{"ha":1050,"x_min":101,"x_max":950,"o":"m 288 400 q 353 219 288 285 q 528 154 418 154 q 701 219 638 154 q 764 400 764 285 l 764 972 l 950 972 l 950 400 q 899 180 950 274 q 752 36 847 86 q 528 -14 657 -14 q 301 36 397 -14 q 153 180 204 86 q 101 400 101 274 l 101 972 l 288 972 l 288 400 m 753 1222 q 635 1054 753 1054 q 573 1065 603 1054 q 507 1093 543 1075 q 469 1110 488 1103 q 439 1117 451 1117 q 406 1101 415 1117 q 396 1058 396 1086 l 300 1058 q 419 1228 300 1228 q 481 1218 451 1228 q 549 1189 510 1208 q 585 1172 568 1179 q 615 1165 603 1165 q 648 1180 639 1165 q 657 1222 657 1194 l 753 1222 m 594 1475 l 739 1382 l 540 1274 l 417 1310 l 594 1475 z "},"V":{"ha":974,"x_min":3,"x_max":969,"o":"m 3 972 l 203 972 l 489 207 l 778 972 l 969 972 l 581 0 l 388 0 l 3 972 z "},"W":{"ha":1494,"x_min":3,"x_max":1492,"o":"m 1299 972 l 1492 972 l 1163 0 l 969 0 l 747 738 l 521 0 l 331 0 l 3 972 l 203 972 l 432 201 l 660 972 l 843 972 l 1072 199 l 1299 972 z "},"Ẃ":{"ha":1494,"x_min":3,"x_max":1492,"o":"m 1299 972 l 1492 972 l 1163 0 l 969 0 l 747 738 l 521 0 l 331 0 l 3 972 l 203 972 l 432 201 l 660 972 l 843 972 l 1072 199 l 1299 972 m 800 1264 l 974 1193 l 796 1050 l 656 1064 l 800 1264 z "},"Ŵ":{"ha":1494,"x_min":3,"x_max":1492,"o":"m 1299 972 l 1492 972 l 1163 0 l 969 0 l 747 738 l 521 0 l 331 0 l 3 972 l 203 972 l 432 201 l 660 972 l 843 972 l 1072 199 l 1299 972 m 985 1057 l 824 1057 l 747 1144 l 671 1057 l 510 1057 l 660 1257 l 835 1257 l 985 1057 z "},"Ẅ":{"ha":1494,"x_min":3,"x_max":1492,"o":"m 1299 972 l 1492 972 l 1163 0 l 969 0 l 747 738 l 521 0 l 331 0 l 3 972 l 203 972 l 432 201 l 660 972 l 843 972 l 1072 199 l 1299 972 m 622 1238 q 685 1211 660 1238 q 711 1144 711 1185 q 685 1078 711 1106 q 622 1051 660 1051 q 558 1078 583 1051 q 532 1144 532 1106 q 558 1211 532 1185 q 622 1238 583 1238 m 874 1238 q 938 1211 913 1238 q 963 1144 963 1185 q 937 1078 963 1106 q 874 1051 911 1051 q 809 1078 835 1051 q 783 1144 783 1106 q 809 1211 783 1185 q 874 1238 835 1238 z "},"Ẁ":{"ha":1494,"x_min":3,"x_max":1492,"o":"m 1299 972 l 1492 972 l 1163 0 l 969 0 l 747 738 l 521 0 l 331 0 l 3 972 l 203 972 l 432 201 l 660 972 l 843 972 l 1072 199 l 1299 972 m 686 1264 l 826 1064 l 685 1050 l 513 1193 l 686 1264 z "},"X":{"ha":978,"x_min":18,"x_max":954,"o":"m 40 972 l 258 972 l 482 653 l 706 972 l 926 972 l 600 507 l 954 0 l 731 0 l 482 347 l 236 0 l 18 0 l 368 499 l 40 972 z "},"Y":{"ha":901,"x_min":-1,"x_max":901,"o":"m 901 972 l 547 318 l 547 0 l 361 0 l 361 311 l -1 972 l 188 972 l 453 515 l 714 972 l 901 972 z "},"Ý":{"ha":901,"x_min":-1,"x_max":901,"o":"m 901 972 l 547 318 l 547 0 l 361 0 l 361 311 l -1 972 l 188 972 l 453 515 l 714 972 l 901 972 m 503 1264 l 676 1193 l 499 1050 l 358 1064 l 503 1264 z "},"Ŷ":{"ha":901,"x_min":-1,"x_max":901,"o":"m 901 972 l 547 318 l 547 0 l 361 0 l 361 311 l -1 972 l 188 972 l 453 515 l 714 972 l 901 972 m 688 1057 l 526 1057 l 450 1144 l 374 1057 l 213 1057 l 363 1257 l 538 1257 l 688 1057 z "},"Ÿ":{"ha":901,"x_min":-1,"x_max":901,"o":"m 901 972 l 547 318 l 547 0 l 361 0 l 361 311 l -1 972 l 188 972 l 453 515 l 714 972 l 901 972 m 325 1238 q 388 1211 363 1238 q 414 1144 414 1185 q 388 1078 414 1106 q 325 1051 363 1051 q 260 1078 286 1051 q 235 1144 235 1106 q 260 1211 235 1185 q 325 1238 286 1238 m 576 1238 q 640 1211 615 1238 q 665 1144 665 1185 q 640 1078 665 1106 q 576 1051 614 1051 q 512 1078 538 1051 q 486 1144 486 1106 q 512 1211 486 1185 q 576 1238 538 1238 z "},"Ẏ":{"ha":901,"x_min":-1,"x_max":901,"o":"m 901 972 l 547 318 l 547 0 l 361 0 l 361 311 l -1 972 l 188 972 l 453 515 l 714 972 l 901 972 m 450 1267 q 524 1237 494 1267 q 553 1160 553 1207 q 524 1082 553 1113 q 450 1051 494 1051 q 376 1082 406 1051 q 347 1160 347 1113 q 376 1237 347 1207 q 450 1267 406 1267 z "},"Ỵ":{"ha":901,"x_min":-1,"x_max":901,"o":"m 901 972 l 547 318 l 547 0 l 361 0 l 361 311 l -1 972 l 188 972 l 453 515 l 714 972 l 901 972 m 454 -97 q 528 -128 499 -97 q 557 -206 557 -158 q 528 -282 557 -251 q 454 -312 499 -312 q 381 -282 410 -312 q 351 -206 351 -251 q 381 -128 351 -158 q 454 -97 410 -97 z "},"Ỳ":{"ha":901,"x_min":-1,"x_max":901,"o":"m 901 972 l 547 318 l 547 0 l 361 0 l 361 311 l -1 972 l 188 972 l 453 515 l 714 972 l 901 972 m 389 1264 l 529 1064 l 388 1050 l 215 1193 l 389 1264 z "},"Ỷ":{"ha":901,"x_min":-1,"x_max":901,"o":"m 901 972 l 547 318 l 547 0 l 361 0 l 361 311 l -1 972 l 188 972 l 453 515 l 714 972 l 901 972 m 453 1332 q 555 1300 514 1332 q 596 1213 596 1268 q 565 1121 596 1169 q 486 1029 535 1072 l 394 1071 q 438 1128 422 1097 q 453 1181 453 1158 q 442 1207 453 1197 q 414 1217 431 1217 q 364 1200 388 1217 l 310 1286 q 453 1332 374 1332 z "},"Ȳ":{"ha":901,"x_min":-1,"x_max":901,"o":"m 901 972 l 547 318 l 547 0 l 361 0 l 361 311 l -1 972 l 188 972 l 453 515 l 714 972 l 901 972 m 231 1178 l 671 1178 l 671 1063 l 231 1063 l 231 1178 z "},"Ỹ":{"ha":901,"x_min":-1,"x_max":901,"o":"m 901 972 l 547 318 l 547 0 l 361 0 l 361 311 l -1 972 l 188 972 l 453 515 l 714 972 l 901 972 m 682 1246 q 560 1051 682 1051 q 501 1063 529 1051 q 438 1093 472 1074 q 375 1118 393 1118 q 346 1102 354 1118 q 338 1056 338 1086 l 222 1056 q 343 1251 222 1251 q 402 1240 374 1251 q 465 1210 431 1229 q 528 1185 510 1185 q 557 1201 549 1185 q 565 1246 565 1217 l 682 1246 z "},"Z":{"ha":928,"x_min":49,"x_max":879,"o":"m 67 972 l 872 972 l 872 842 l 300 163 l 879 163 l 879 0 l 49 0 l 49 132 l 621 810 l 65 810 l 67 972 z "},"Ź":{"ha":928,"x_min":49,"x_max":879,"o":"m 67 972 l 872 972 l 872 842 l 300 163 l 879 163 l 879 0 l 49 0 l 49 132 l 621 810 l 65 810 l 67 972 m 522 1264 l 696 1193 l 518 1050 l 378 1064 l 522 1264 z "},"Ž":{"ha":928,"x_min":49,"x_max":879,"o":"m 67 972 l 872 972 l 872 842 l 300 163 l 879 163 l 879 0 l 49 0 l 49 132 l 621 810 l 65 810 l 67 972 m 511 1257 l 672 1257 l 522 1057 l 347 1057 l 197 1257 l 358 1257 l 435 1169 l 511 1257 z "},"Ż":{"ha":928,"x_min":49,"x_max":879,"o":"m 67 972 l 872 972 l 872 842 l 300 163 l 879 163 l 879 0 l 49 0 l 49 132 l 621 810 l 65 810 l 67 972 m 469 1267 q 543 1237 514 1267 q 572 1160 572 1207 q 543 1082 572 1113 q 469 1051 514 1051 q 396 1082 425 1051 q 367 1160 367 1113 q 396 1237 367 1207 q 469 1267 425 1267 z "},"Ẓ":{"ha":928,"x_min":49,"x_max":879,"o":"m 67 972 l 872 972 l 872 842 l 300 163 l 879 163 l 879 0 l 49 0 l 49 132 l 621 810 l 65 810 l 67 972 m 464 -97 q 538 -128 508 -97 q 567 -206 567 -158 q 538 -282 567 -251 q 464 -312 508 -312 q 390 -282 419 -312 q 361 -206 361 -251 q 390 -128 361 -158 q 464 -97 419 -97 z "},"a":{"ha":819,"x_min":51,"x_max":729,"o":"m 551 0 l 551 90 q 451 17 513 42 q 311 -8 390 -8 q 174 22 233 -8 q 83 104 115 51 q 51 222 51 157 q 125 385 51 326 q 333 446 199 444 l 550 446 l 550 465 q 507 567 550 531 q 382 603 464 603 q 161 533 276 603 l 96 658 q 255 728 183 707 q 422 750 326 750 q 647 681 567 750 q 728 486 726 611 l 729 0 l 551 0 m 354 131 q 488 167 432 131 q 550 258 543 204 l 550 325 l 363 325 q 256 303 290 325 q 222 233 222 282 q 258 158 222 186 q 354 131 293 131 z "},"á":{"ha":819,"x_min":51,"x_max":729,"o":"m 551 0 l 551 90 q 451 17 513 42 q 311 -8 390 -8 q 174 22 233 -8 q 83 104 115 51 q 51 222 51 157 q 125 385 51 326 q 333 446 199 444 l 550 446 l 550 465 q 507 567 550 531 q 382 603 464 603 q 161 533 276 603 l 96 658 q 255 728 183 707 q 422 750 326 750 q 647 681 567 750 q 728 486 726 611 l 729 0 l 551 0 m 354 131 q 488 167 432 131 q 550 258 543 204 l 550 325 l 363 325 q 256 303 290 325 q 222 233 222 282 q 258 158 222 186 q 354 131 293 131 m 460 1056 l 633 985 l 456 842 l 315 856 l 460 1056 z "},"ă":{"ha":819,"x_min":51,"x_max":729,"o":"m 551 0 l 551 90 q 451 17 513 42 q 311 -8 390 -8 q 174 22 233 -8 q 83 104 115 51 q 51 222 51 157 q 125 385 51 326 q 333 446 199 444 l 550 446 l 550 465 q 507 567 550 531 q 382 603 464 603 q 161 533 276 603 l 96 658 q 255 728 183 707 q 422 750 326 750 q 647 681 567 750 q 728 486 726 611 l 729 0 l 551 0 m 354 131 q 488 167 432 131 q 550 258 543 204 l 550 325 l 363 325 q 256 303 290 325 q 222 233 222 282 q 258 158 222 186 q 354 131 293 131 m 322 1046 q 349 982 325 1007 q 407 957 372 957 q 465 982 442 957 q 492 1046 489 1007 l 611 1046 q 551 897 608 954 q 407 840 494 840 q 263 897 319 840 q 203 1046 206 954 l 322 1046 z "},"ắ":{"ha":819,"x_min":51,"x_max":729,"o":"m 551 0 l 551 90 q 451 17 513 42 q 311 -8 390 -8 q 174 22 233 -8 q 83 104 115 51 q 51 222 51 157 q 125 385 51 326 q 333 446 199 444 l 550 446 l 550 465 q 507 567 550 531 q 382 603 464 603 q 161 533 276 603 l 96 658 q 255 728 183 707 q 422 750 326 750 q 647 681 567 750 q 728 486 726 611 l 729 0 l 551 0 m 354 131 q 488 167 432 131 q 550 258 543 204 l 550 325 l 363 325 q 256 303 290 325 q 222 233 222 282 q 258 158 222 186 q 354 131 293 131 m 321 1015 q 347 967 322 985 q 407 949 371 949 q 467 967 443 949 q 493 1015 492 985 l 614 1015 q 553 885 611 935 q 407 836 496 836 q 260 885 318 836 q 200 1015 203 935 l 321 1015 m 474 1231 l 618 1138 l 419 1029 l 296 1065 l 474 1231 z "},"ặ":{"ha":819,"x_min":51,"x_max":729,"o":"m 551 0 l 551 90 q 451 17 513 42 q 311 -8 390 -8 q 174 22 233 -8 q 83 104 115 51 q 51 222 51 157 q 125 385 51 326 q 333 446 199 444 l 550 446 l 550 465 q 507 567 550 531 q 382 603 464 603 q 161 533 276 603 l 96 658 q 255 728 183 707 q 422 750 326 750 q 647 681 567 750 q 728 486 726 611 l 729 0 l 551 0 m 354 131 q 488 167 432 131 q 550 258 543 204 l 550 325 l 363 325 q 256 303 290 325 q 222 233 222 282 q 258 158 222 186 q 354 131 293 131 m 396 -97 q 469 -128 440 -97 q 499 -206 499 -158 q 469 -282 499 -251 q 396 -312 440 -312 q 322 -282 351 -312 q 293 -206 293 -251 q 322 -128 293 -158 q 396 -97 351 -97 m 311 1046 q 338 982 314 1007 q 396 957 361 957 q 454 982 431 957 q 481 1046 478 1007 l 600 1046 q 540 897 597 954 q 396 840 483 840 q 251 897 308 840 q 192 1046 194 954 l 311 1046 z "},"ằ":{"ha":819,"x_min":51,"x_max":729,"o":"m 551 0 l 551 90 q 451 17 513 42 q 311 -8 390 -8 q 174 22 233 -8 q 83 104 115 51 q 51 222 51 157 q 125 385 51 326 q 333 446 199 444 l 550 446 l 550 465 q 507 567 550 531 q 382 603 464 603 q 161 533 276 603 l 96 658 q 255 728 183 707 q 422 750 326 750 q 647 681 567 750 q 728 486 726 611 l 729 0 l 551 0 m 354 131 q 488 167 432 131 q 550 258 543 204 l 550 325 l 363 325 q 256 303 290 325 q 222 233 222 282 q 258 158 222 186 q 354 131 293 131 m 321 1015 q 347 967 322 985 q 407 949 371 949 q 467 967 443 949 q 493 1015 492 985 l 614 1015 q 553 885 611 935 q 407 836 496 836 q 260 885 318 836 q 200 1015 203 935 l 321 1015 m 322 1231 l 501 1065 l 376 1029 l 178 1138 l 322 1231 z "},"ẳ":{"ha":819,"x_min":51,"x_max":729,"o":"m 551 0 l 551 90 q 451 17 513 42 q 311 -8 390 -8 q 174 22 233 -8 q 83 104 115 51 q 51 222 51 157 q 125 385 51 326 q 333 446 199 444 l 550 446 l 550 465 q 507 567 550 531 q 382 603 464 603 q 161 533 276 603 l 96 658 q 255 728 183 707 q 422 750 326 750 q 647 681 567 750 q 728 486 726 611 l 729 0 l 551 0 m 354 131 q 488 167 432 131 q 550 258 543 204 l 550 325 l 363 325 q 256 303 290 325 q 222 233 222 282 q 258 158 222 186 q 354 131 293 131 m 321 1015 q 347 967 322 985 q 407 949 371 949 q 467 967 443 949 q 493 1015 492 985 l 614 1015 q 553 885 611 935 q 407 836 496 836 q 260 885 318 836 q 200 1015 203 935 l 321 1015 m 397 1260 q 488 1233 454 1260 q 521 1165 521 1207 q 426 1026 521 1096 l 342 1061 q 378 1098 365 1079 q 392 1132 392 1117 q 383 1151 392 1144 q 360 1157 374 1157 q 318 1144 336 1157 l 268 1218 q 397 1260 331 1260 z "},"ẵ":{"ha":819,"x_min":51,"x_max":729,"o":"m 551 0 l 551 90 q 451 17 513 42 q 311 -8 390 -8 q 174 22 233 -8 q 83 104 115 51 q 51 222 51 157 q 125 385 51 326 q 333 446 199 444 l 550 446 l 550 465 q 507 567 550 531 q 382 603 464 603 q 161 533 276 603 l 96 658 q 255 728 183 707 q 422 750 326 750 q 647 681 567 750 q 728 486 726 611 l 729 0 l 551 0 m 354 131 q 488 167 432 131 q 550 258 543 204 l 550 325 l 363 325 q 256 303 290 325 q 222 233 222 282 q 258 158 222 186 q 354 131 293 131 m 319 1015 q 345 967 321 985 q 406 949 369 949 q 466 967 442 949 q 492 1015 490 985 l 613 1015 q 552 885 610 935 q 406 836 494 836 q 259 885 317 836 q 199 1015 201 935 l 319 1015 m 633 1242 q 515 1074 633 1074 q 453 1084 483 1074 q 388 1113 424 1094 q 350 1129 368 1122 q 319 1136 332 1136 q 286 1121 296 1136 q 276 1078 276 1106 l 181 1078 q 300 1247 181 1247 q 361 1238 332 1247 q 429 1208 390 1228 q 466 1192 449 1199 q 496 1185 483 1185 q 528 1199 519 1185 q 538 1242 538 1214 l 633 1242 z "},"â":{"ha":819,"x_min":51,"x_max":729,"o":"m 551 0 l 551 90 q 451 17 513 42 q 311 -8 390 -8 q 174 22 233 -8 q 83 104 115 51 q 51 222 51 157 q 125 385 51 326 q 333 446 199 444 l 550 446 l 550 465 q 507 567 550 531 q 382 603 464 603 q 161 533 276 603 l 96 658 q 255 728 183 707 q 422 750 326 750 q 647 681 567 750 q 728 486 726 611 l 729 0 l 551 0 m 354 131 q 488 167 432 131 q 550 258 543 204 l 550 325 l 363 325 q 256 303 290 325 q 222 233 222 282 q 258 158 222 186 q 354 131 293 131 m 644 851 l 483 851 l 407 939 l 331 851 l 169 851 l 319 1051 l 494 1051 l 644 851 z "},"ấ":{"ha":819,"x_min":51,"x_max":729,"o":"m 551 0 l 551 90 q 451 17 513 42 q 311 -8 390 -8 q 174 22 233 -8 q 83 104 115 51 q 51 222 51 157 q 125 385 51 326 q 333 446 199 444 l 550 446 l 550 465 q 507 567 550 531 q 382 603 464 603 q 161 533 276 603 l 96 658 q 255 728 183 707 q 422 750 326 750 q 647 681 567 750 q 728 486 726 611 l 729 0 l 551 0 m 354 131 q 488 167 432 131 q 550 258 543 204 l 550 325 l 363 325 q 256 303 290 325 q 222 233 222 282 q 258 158 222 186 q 354 131 293 131 m 671 836 l 496 836 l 407 911 l 317 836 l 142 836 l 292 986 l 519 986 l 671 836 m 474 1229 l 618 1136 l 419 1028 l 296 1064 l 474 1229 z "},"ậ":{"ha":819,"x_min":51,"x_max":729,"o":"m 551 0 l 551 90 q 451 17 513 42 q 311 -8 390 -8 q 174 22 233 -8 q 83 104 115 51 q 51 222 51 157 q 125 385 51 326 q 333 446 199 444 l 550 446 l 550 465 q 507 567 550 531 q 382 603 464 603 q 161 533 276 603 l 96 658 q 255 728 183 707 q 422 750 326 750 q 647 681 567 750 q 728 486 726 611 l 729 0 l 551 0 m 354 131 q 488 167 432 131 q 550 258 543 204 l 550 325 l 363 325 q 256 303 290 325 q 222 233 222 282 q 258 158 222 186 q 354 131 293 131 m 396 -97 q 469 -128 440 -97 q 499 -206 499 -158 q 469 -282 499 -251 q 396 -312 440 -312 q 322 -282 351 -312 q 293 -206 293 -251 q 322 -128 293 -158 q 396 -97 351 -97 m 633 851 l 472 851 l 396 939 l 319 851 l 158 851 l 308 1051 l 483 1051 l 633 851 z "},"ầ":{"ha":819,"x_min":51,"x_max":729,"o":"m 551 0 l 551 90 q 451 17 513 42 q 311 -8 390 -8 q 174 22 233 -8 q 83 104 115 51 q 51 222 51 157 q 125 385 51 326 q 333 446 199 444 l 550 446 l 550 465 q 507 567 550 531 q 382 603 464 603 q 161 533 276 603 l 96 658 q 255 728 183 707 q 422 750 326 750 q 647 681 567 750 q 728 486 726 611 l 729 0 l 551 0 m 354 131 q 488 167 432 131 q 550 258 543 204 l 550 325 l 363 325 q 256 303 290 325 q 222 233 222 282 q 258 158 222 186 q 354 131 293 131 m 671 836 l 496 836 l 407 911 l 317 836 l 142 836 l 292 986 l 519 986 l 671 836 m 322 1229 l 501 1064 l 376 1028 l 178 1136 l 322 1229 z "},"ẩ":{"ha":819,"x_min":51,"x_max":729,"o":"m 551 0 l 551 90 q 451 17 513 42 q 311 -8 390 -8 q 174 22 233 -8 q 83 104 115 51 q 51 222 51 157 q 125 385 51 326 q 333 446 199 444 l 550 446 l 550 465 q 507 567 550 531 q 382 603 464 603 q 161 533 276 603 l 96 658 q 255 728 183 707 q 422 750 326 750 q 647 681 567 750 q 728 486 726 611 l 729 0 l 551 0 m 354 131 q 488 167 432 131 q 550 258 543 204 l 550 325 l 363 325 q 256 303 290 325 q 222 233 222 282 q 258 158 222 186 q 354 131 293 131 m 671 836 l 496 836 l 407 911 l 317 836 l 142 836 l 292 986 l 519 986 l 671 836 m 396 1258 q 486 1232 453 1258 q 519 1164 519 1206 q 425 1025 519 1094 l 340 1060 q 377 1097 364 1078 q 390 1131 390 1115 q 381 1149 390 1143 q 358 1156 372 1156 q 317 1143 335 1156 l 267 1217 q 396 1258 329 1258 z "},"ẫ":{"ha":819,"x_min":51,"x_max":729,"o":"m 551 0 l 551 90 q 451 17 513 42 q 311 -8 390 -8 q 174 22 233 -8 q 83 104 115 51 q 51 222 51 157 q 125 385 51 326 q 333 446 199 444 l 550 446 l 550 465 q 507 567 550 531 q 382 603 464 603 q 161 533 276 603 l 96 658 q 255 728 183 707 q 422 750 326 750 q 647 681 567 750 q 728 486 726 611 l 729 0 l 551 0 m 354 131 q 488 167 432 131 q 550 258 543 204 l 550 325 l 363 325 q 256 303 290 325 q 222 233 222 282 q 258 158 222 186 q 354 131 293 131 m 671 836 l 496 836 l 407 911 l 317 836 l 142 836 l 292 986 l 519 986 l 671 836 m 632 1204 q 514 1036 632 1036 q 452 1047 482 1036 q 386 1075 422 1057 q 349 1092 367 1085 q 318 1099 331 1099 q 285 1083 294 1099 q 275 1040 275 1068 l 179 1040 q 299 1210 179 1210 q 360 1200 331 1210 q 428 1171 389 1190 q 465 1154 447 1161 q 494 1147 482 1147 q 527 1162 518 1147 q 536 1204 536 1176 l 632 1204 z "},"ȁ":{"ha":819,"x_min":51,"x_max":729,"o":"m 551 0 l 551 90 q 451 17 513 42 q 311 -8 390 -8 q 174 22 233 -8 q 83 104 115 51 q 51 222 51 157 q 125 385 51 326 q 333 446 199 444 l 550 446 l 550 465 q 507 567 550 531 q 382 603 464 603 q 161 533 276 603 l 96 658 q 255 728 183 707 q 422 750 326 750 q 647 681 567 750 q 728 486 726 611 l 729 0 l 551 0 m 354 131 q 488 167 432 131 q 550 258 543 204 l 550 325 l 363 325 q 256 303 290 325 q 222 233 222 282 q 258 158 222 186 q 354 131 293 131 m 256 1064 l 365 854 l 235 842 l 107 1000 l 256 1064 m 496 1064 l 606 854 l 475 842 l 347 1000 l 496 1064 z "},"ä":{"ha":819,"x_min":51,"x_max":729,"o":"m 551 0 l 551 90 q 451 17 513 42 q 311 -8 390 -8 q 174 22 233 -8 q 83 104 115 51 q 51 222 51 157 q 125 385 51 326 q 333 446 199 444 l 550 446 l 550 465 q 507 567 550 531 q 382 603 464 603 q 161 533 276 603 l 96 658 q 255 728 183 707 q 422 750 326 750 q 647 681 567 750 q 728 486 726 611 l 729 0 l 551 0 m 354 131 q 488 167 432 131 q 550 258 543 204 l 550 325 l 363 325 q 256 303 290 325 q 222 233 222 282 q 258 158 222 186 q 354 131 293 131 m 282 1043 q 346 1017 321 1043 q 371 950 371 990 q 346 884 371 910 q 282 858 321 858 q 218 884 243 858 q 193 950 193 910 q 218 1017 193 990 q 282 1043 243 1043 m 533 1043 q 598 1017 572 1043 q 624 950 624 990 q 598 885 624 911 q 533 858 572 858 q 470 885 496 858 q 444 950 444 911 q 470 1017 444 990 q 533 1043 496 1043 z "},"ạ":{"ha":819,"x_min":51,"x_max":729,"o":"m 551 0 l 551 90 q 451 17 513 42 q 311 -8 390 -8 q 174 22 233 -8 q 83 104 115 51 q 51 222 51 157 q 125 385 51 326 q 333 446 199 444 l 550 446 l 550 465 q 507 567 550 531 q 382 603 464 603 q 161 533 276 603 l 96 658 q 255 728 183 707 q 422 750 326 750 q 647 681 567 750 q 728 486 726 611 l 729 0 l 551 0 m 354 131 q 488 167 432 131 q 550 258 543 204 l 550 325 l 363 325 q 256 303 290 325 q 222 233 222 282 q 258 158 222 186 q 354 131 293 131 m 396 -97 q 469 -128 440 -97 q 499 -206 499 -158 q 469 -282 499 -251 q 396 -312 440 -312 q 322 -282 351 -312 q 293 -206 293 -251 q 322 -128 293 -158 q 396 -97 351 -97 z "},"à":{"ha":819,"x_min":51,"x_max":729,"o":"m 551 0 l 551 90 q 451 17 513 42 q 311 -8 390 -8 q 174 22 233 -8 q 83 104 115 51 q 51 222 51 157 q 125 385 51 326 q 333 446 199 444 l 550 446 l 550 465 q 507 567 550 531 q 382 603 464 603 q 161 533 276 603 l 96 658 q 255 728 183 707 q 422 750 326 750 q 647 681 567 750 q 728 486 726 611 l 729 0 l 551 0 m 354 131 q 488 167 432 131 q 550 258 543 204 l 550 325 l 363 325 q 256 303 290 325 q 222 233 222 282 q 258 158 222 186 q 354 131 293 131 m 347 1056 l 488 856 l 346 842 l 174 985 l 347 1056 z "},"ả":{"ha":819,"x_min":51,"x_max":729,"o":"m 551 0 l 551 90 q 451 17 513 42 q 311 -8 390 -8 q 174 22 233 -8 q 83 104 115 51 q 51 222 51 157 q 125 385 51 326 q 333 446 199 444 l 550 446 l 550 465 q 507 567 550 531 q 382 603 464 603 q 161 533 276 603 l 96 658 q 255 728 183 707 q 422 750 326 750 q 647 681 567 750 q 728 486 726 611 l 729 0 l 551 0 m 354 131 q 488 167 432 131 q 550 258 543 204 l 550 325 l 363 325 q 256 303 290 325 q 222 233 222 282 q 258 158 222 186 q 354 131 293 131 m 410 1106 q 512 1074 471 1106 q 553 986 553 1042 q 522 894 553 943 q 443 803 492 846 l 351 844 q 394 901 379 871 q 410 954 410 932 q 399 981 410 971 q 371 990 388 990 q 321 974 344 990 l 267 1060 q 410 1106 331 1106 z "},"ȃ":{"ha":819,"x_min":51,"x_max":729,"o":"m 551 0 l 551 90 q 451 17 513 42 q 311 -8 390 -8 q 174 22 233 -8 q 83 104 115 51 q 51 222 51 157 q 125 385 51 326 q 333 446 199 444 l 550 446 l 550 465 q 507 567 550 531 q 382 603 464 603 q 161 533 276 603 l 96 658 q 255 728 183 707 q 422 750 326 750 q 647 681 567 750 q 728 486 726 611 l 729 0 l 551 0 m 354 131 q 488 167 432 131 q 550 258 543 204 l 550 325 l 363 325 q 256 303 290 325 q 222 233 222 282 q 258 158 222 186 q 354 131 293 131 m 203 840 q 263 989 206 932 q 407 1046 319 1046 q 551 989 494 1046 q 611 840 608 932 l 492 840 q 465 903 489 879 q 407 928 442 928 q 349 903 372 928 q 322 840 325 879 l 203 840 z "},"ā":{"ha":819,"x_min":51,"x_max":729,"o":"m 551 0 l 551 90 q 451 17 513 42 q 311 -8 390 -8 q 174 22 233 -8 q 83 104 115 51 q 51 222 51 157 q 125 385 51 326 q 333 446 199 444 l 550 446 l 550 465 q 507 567 550 531 q 382 603 464 603 q 161 533 276 603 l 96 658 q 255 728 183 707 q 422 750 326 750 q 647 681 567 750 q 728 486 726 611 l 729 0 l 551 0 m 354 131 q 488 167 432 131 q 550 258 543 204 l 550 325 l 363 325 q 256 303 290 325 q 222 233 222 282 q 258 158 222 186 q 354 131 293 131 m 199 1008 l 614 1008 l 614 893 l 199 893 l 199 1008 z "},"ą":{"ha":819,"x_min":51,"x_max":729,"o":"m 718 0 q 628 -78 656 -44 q 600 -143 600 -112 q 610 -172 600 -162 q 635 -182 619 -182 q 679 -171 661 -182 l 718 -282 q 596 -310 654 -310 q 487 -274 528 -310 q 446 -176 446 -239 q 551 14 446 -72 l 551 90 q 451 17 513 42 q 311 -8 390 -8 q 174 22 233 -8 q 83 104 115 51 q 51 222 51 157 q 125 385 51 326 q 333 446 199 444 l 550 446 l 550 465 q 507 567 550 531 q 382 603 464 603 q 161 533 276 603 l 96 658 q 255 728 183 707 q 422 750 326 750 q 647 681 567 750 q 728 486 726 611 l 729 0 l 718 0 m 354 131 q 488 167 432 131 q 550 258 543 204 l 550 325 l 363 325 q 256 303 290 325 q 222 233 222 282 q 258 158 222 186 q 354 131 293 131 z "},"å":{"ha":819,"x_min":51,"x_max":729,"o":"m 551 0 l 551 90 q 451 17 513 42 q 311 -8 390 -8 q 174 22 233 -8 q 83 104 115 51 q 51 222 51 157 q 125 385 51 326 q 333 446 199 444 l 550 446 l 550 465 q 507 567 550 531 q 382 603 464 603 q 161 533 276 603 l 96 658 q 255 728 183 707 q 422 750 326 750 q 647 681 567 750 q 728 486 726 611 l 729 0 l 551 0 m 354 131 q 488 167 432 131 q 550 258 543 204 l 550 325 l 363 325 q 256 303 290 325 q 222 233 222 282 q 258 158 222 186 q 354 131 293 131 m 407 1117 q 517 1071 471 1117 q 564 961 564 1025 q 517 851 564 897 q 407 804 471 804 q 296 851 342 804 q 250 961 250 897 q 297 1071 250 1025 q 407 1117 343 1117 m 407 1028 q 358 1008 379 1028 q 338 961 338 988 q 358 914 338 933 q 407 894 379 894 q 456 914 435 894 q 476 961 476 933 q 456 1008 476 988 q 407 1028 435 1028 z "},"ǻ":{"ha":819,"x_min":51,"x_max":729,"o":"m 551 0 l 551 90 q 451 17 513 42 q 311 -8 390 -8 q 174 22 233 -8 q 83 104 115 51 q 51 222 51 157 q 125 385 51 326 q 333 446 199 444 l 550 446 l 550 465 q 507 567 550 531 q 382 603 464 603 q 161 533 276 603 l 96 658 q 255 728 183 707 q 422 750 326 750 q 647 681 567 750 q 728 486 726 611 l 729 0 l 551 0 m 354 131 q 488 167 432 131 q 550 258 543 204 l 550 325 l 363 325 q 256 303 290 325 q 222 233 222 282 q 258 158 222 186 q 354 131 293 131 m 407 1117 q 517 1071 471 1117 q 564 961 564 1025 q 517 851 564 897 q 407 804 471 804 q 296 851 342 804 q 250 961 250 897 q 297 1071 250 1025 q 407 1117 343 1117 m 407 1028 q 358 1008 379 1028 q 338 961 338 988 q 358 914 338 933 q 407 894 379 894 q 456 914 435 894 q 476 961 476 933 q 456 1008 476 988 q 407 1028 435 1028 m 474 1351 l 618 1258 l 419 1150 l 296 1186 l 474 1351 z "},"ã":{"ha":819,"x_min":51,"x_max":729,"o":"m 551 0 l 551 90 q 451 17 513 42 q 311 -8 390 -8 q 174 22 233 -8 q 83 104 115 51 q 51 222 51 157 q 125 385 51 326 q 333 446 199 444 l 550 446 l 550 465 q 507 567 550 531 q 382 603 464 603 q 161 533 276 603 l 96 658 q 255 728 183 707 q 422 750 326 750 q 647 681 567 750 q 728 486 726 611 l 729 0 l 551 0 m 354 131 q 488 167 432 131 q 550 258 543 204 l 550 325 l 363 325 q 256 303 290 325 q 222 233 222 282 q 258 158 222 186 q 354 131 293 131 m 639 1031 q 517 836 639 836 q 458 847 486 836 q 394 878 429 858 q 332 903 350 903 q 303 887 311 903 q 294 840 294 871 l 179 840 q 300 1036 179 1036 q 359 1025 331 1036 q 422 994 388 1014 q 485 969 467 969 q 514 985 506 969 q 522 1031 522 1001 l 639 1031 z "},"æ":{"ha":1351,"x_min":51,"x_max":1311,"o":"m 736 313 q 768 226 738 267 q 849 163 799 186 q 954 139 899 139 q 1063 160 1011 139 q 1156 222 1115 182 l 1253 121 q 1115 26 1194 58 q 940 -7 1035 -7 q 752 37 833 -7 q 626 163 671 81 q 504 35 583 78 q 314 -8 425 -8 q 124 53 196 -8 q 51 218 51 115 q 125 374 51 319 q 335 429 199 428 l 553 429 l 553 468 q 508 568 551 533 q 383 603 464 603 q 140 533 268 603 l 96 663 q 422 750 268 750 q 575 724 510 750 q 679 649 640 699 q 935 749 776 749 q 1136 697 1050 749 q 1267 550 1222 644 q 1307 331 1311 456 l 736 331 l 736 313 m 1125 426 q 1070 564 1122 511 q 936 617 1018 617 q 801 565 857 617 q 735 426 746 513 l 1125 426 m 369 335 q 261 308 300 335 q 222 233 222 282 q 259 149 222 181 q 356 118 296 118 q 554 236 490 118 l 553 335 l 369 335 z "},"ǽ":{"ha":1351,"x_min":51,"x_max":1307,"o":"m 736 313 q 768 226 738 267 q 849 163 799 186 q 954 139 899 139 q 1063 160 1011 139 q 1156 222 1115 182 l 1253 121 q 1115 26 1194 58 q 940 -7 1035 -7 q 752 37 833 -7 q 626 163 671 81 q 504 35 583 78 q 314 -8 425 -8 q 124 53 196 -8 q 51 218 51 115 q 125 374 51 319 q 335 429 199 428 l 553 429 l 553 468 q 508 568 551 533 q 383 603 464 603 q 140 533 268 603 l 96 663 q 422 750 268 750 q 575 724 510 750 q 679 649 640 699 q 935 749 776 749 q 1136 697 1050 749 q 1267 550 1222 644 q 1307 331 1311 456 l 736 331 l 736 313 m 1125 426 q 1070 564 1122 511 q 936 617 1018 617 q 801 565 857 617 q 735 426 746 513 l 1125 426 m 369 335 q 261 308 300 335 q 222 233 222 282 q 259 149 222 181 q 356 118 296 118 q 554 236 490 118 l 553 335 l 369 335 m 729 1056 l 903 985 l 725 842 l 585 856 l 729 1056 z "},"b":{"ha":946,"x_min":119,"x_max":901,"o":"m 550 749 q 734 701 654 749 q 858 567 814 653 q 901 368 901 481 q 858 172 901 257 q 736 40 815 88 q 553 -7 657 -7 q 406 26 469 -7 q 300 121 342 58 l 300 0 l 119 0 l 119 1031 l 300 1031 l 300 621 q 403 716 340 683 q 550 749 467 749 m 510 149 q 660 212 601 149 q 718 374 718 275 q 660 535 718 472 q 510 597 601 597 q 358 535 417 597 q 300 374 300 472 q 358 211 300 274 q 510 149 417 149 z "},"c":{"ha":783,"x_min":44,"x_max":742,"o":"m 624 508 q 429 590 549 590 q 283 529 339 590 q 226 371 226 468 q 283 210 226 271 q 429 149 339 149 q 629 236 563 149 l 742 143 q 610 32 692 71 q 419 -7 528 -7 q 224 40 310 -7 q 92 173 139 88 q 44 369 44 258 q 92 568 44 482 q 226 701 140 654 q 422 749 311 749 q 603 713 524 749 q 733 613 683 678 l 624 508 z "},"ć":{"ha":783,"x_min":44,"x_max":742,"o":"m 624 508 q 429 590 549 590 q 283 529 339 590 q 226 371 226 468 q 283 210 226 271 q 429 149 339 149 q 629 236 563 149 l 742 143 q 610 32 692 71 q 419 -7 528 -7 q 224 40 310 -7 q 92 173 139 88 q 44 369 44 258 q 92 568 44 482 q 226 701 140 654 q 422 749 311 749 q 603 713 524 749 q 733 613 683 678 l 624 508 m 474 1056 l 647 985 l 469 842 l 329 856 l 474 1056 z "},"č":{"ha":783,"x_min":44,"x_max":742,"o":"m 624 508 q 429 590 549 590 q 283 529 339 590 q 226 371 226 468 q 283 210 226 271 q 429 149 339 149 q 629 236 563 149 l 742 143 q 610 32 692 71 q 419 -7 528 -7 q 224 40 310 -7 q 92 173 139 88 q 44 369 44 258 q 92 568 44 482 q 226 701 140 654 q 422 749 311 749 q 603 713 524 749 q 733 613 683 678 l 624 508 m 499 1051 l 660 1051 l 510 851 l 335 851 l 185 1051 l 346 1051 l 422 964 l 499 1051 z "},"ç":{"ha":783,"x_min":44,"x_max":742,"o":"m 742 143 q 631 43 699 81 q 475 -4 563 6 l 449 -74 q 535 -113 507 -83 q 563 -185 563 -143 q 516 -278 563 -246 q 397 -311 469 -311 q 258 -282 329 -311 l 292 -185 q 371 -200 335 -200 q 413 -190 397 -200 q 428 -167 428 -181 q 410 -142 428 -151 q 358 -132 392 -132 l 317 -132 l 360 -3 q 194 60 265 10 q 83 190 122 110 q 44 369 44 269 q 92 568 44 482 q 226 701 140 654 q 422 749 311 749 q 603 713 524 749 q 733 613 683 678 l 624 508 q 429 590 549 590 q 283 529 339 590 q 226 371 226 468 q 283 210 226 271 q 429 149 339 149 q 629 236 563 149 l 742 143 z "},"ḉ":{"ha":783,"x_min":44,"x_max":742,"o":"m 614 985 l 436 842 l 296 856 l 440 1056 l 614 985 m 742 143 q 631 43 699 81 q 475 -4 563 6 l 449 -74 q 535 -113 507 -83 q 563 -185 563 -143 q 516 -278 563 -246 q 397 -311 469 -311 q 258 -282 329 -311 l 292 -185 q 371 -200 335 -200 q 413 -190 397 -200 q 428 -167 428 -181 q 410 -142 428 -151 q 358 -132 392 -132 l 317 -132 l 360 -3 q 194 60 265 10 q 83 190 122 110 q 44 369 44 269 q 92 568 44 482 q 226 701 140 654 q 422 749 311 749 q 603 713 524 749 q 733 613 683 678 l 624 508 q 429 590 549 590 q 283 529 339 590 q 226 371 226 468 q 283 210 226 271 q 429 149 339 149 q 629 236 563 149 l 742 143 z "},"ĉ":{"ha":783,"x_min":44,"x_max":742,"o":"m 624 508 q 429 590 549 590 q 283 529 339 590 q 226 371 226 468 q 283 210 226 271 q 429 149 339 149 q 629 236 563 149 l 742 143 q 610 32 692 71 q 419 -7 528 -7 q 224 40 310 -7 q 92 173 139 88 q 44 369 44 258 q 92 568 44 482 q 226 701 140 654 q 422 749 311 749 q 603 713 524 749 q 733 613 683 678 l 624 508 m 658 851 l 497 851 l 421 939 l 344 851 l 183 851 l 333 1051 l 508 1051 l 658 851 z "},"ċ":{"ha":783,"x_min":44,"x_max":742,"o":"m 624 508 q 429 590 549 590 q 283 529 339 590 q 226 371 226 468 q 283 210 226 271 q 429 149 339 149 q 629 236 563 149 l 742 143 q 610 32 692 71 q 419 -7 528 -7 q 224 40 310 -7 q 92 173 139 88 q 44 369 44 258 q 92 568 44 482 q 226 701 140 654 q 422 749 311 749 q 603 713 524 749 q 733 613 683 678 l 624 508 m 421 1063 q 494 1032 465 1063 q 524 954 524 1001 q 494 878 524 908 q 421 847 465 847 q 347 878 376 847 q 318 954 318 908 q 347 1032 318 1001 q 421 1063 376 1063 z "},"d":{"ha":949,"x_min":44,"x_max":829,"o":"m 829 1031 l 829 0 l 649 0 l 649 119 q 545 24 608 57 q 399 -8 482 -8 q 213 40 293 -8 q 89 174 133 88 q 44 374 44 261 q 88 570 44 485 q 212 703 132 656 q 394 750 292 750 q 543 717 479 750 q 649 621 607 683 l 649 1031 l 829 1031 m 438 143 q 590 206 531 143 q 649 369 649 269 q 590 533 649 469 q 438 596 531 596 q 286 533 344 596 q 226 369 228 469 q 286 206 228 269 q 438 143 344 143 z "},"ð":{"ha":825,"x_min":44,"x_max":782,"o":"m 567 850 q 726 626 669 749 q 782 376 782 504 q 733 174 782 261 q 597 39 685 86 q 392 -8 508 -8 q 209 31 288 -8 q 88 144 131 71 q 44 313 44 217 q 83 473 44 404 q 194 579 122 542 q 360 617 265 617 q 501 588 436 617 q 600 513 567 560 q 431 788 578 654 l 185 674 l 143 760 l 346 854 q 163 957 264 913 l 283 1039 q 486 919 396 989 l 679 1008 l 719 921 l 567 850 m 401 151 q 538 197 486 151 q 589 317 589 242 q 538 440 589 394 q 401 486 486 486 q 268 442 318 486 q 218 322 218 397 q 269 199 218 246 q 401 151 319 151 z "},"ď":{"ha":1078,"x_min":44,"x_max":1107,"o":"m 829 1031 l 829 0 l 649 0 l 649 119 q 545 24 608 57 q 399 -8 482 -8 q 213 40 293 -8 q 89 174 133 88 q 44 374 44 261 q 88 570 44 485 q 212 703 132 656 q 394 750 292 750 q 543 717 479 750 q 649 621 607 683 l 649 1031 l 829 1031 m 438 143 q 590 206 531 143 q 649 369 649 269 q 590 533 649 469 q 438 596 531 596 q 286 533 344 596 q 226 369 228 469 q 286 206 228 269 q 438 143 344 143 m 947 1031 l 1107 1031 l 1065 743 l 947 743 l 947 1031 z "},"đ":{"ha":947,"x_min":44,"x_max":925,"o":"m 925 813 l 829 813 l 829 0 l 649 0 l 649 126 q 542 27 607 63 q 394 -8 476 -8 q 213 38 292 -8 q 89 166 133 83 q 44 357 44 249 q 88 544 44 463 q 210 670 132 625 q 390 715 289 715 q 539 680 472 715 q 649 581 606 644 l 649 813 l 375 813 l 375 914 l 649 914 l 649 1031 l 829 1031 l 829 914 l 925 914 l 925 813 m 438 143 q 590 201 531 143 q 649 351 649 258 q 590 503 649 444 q 438 561 531 561 q 285 503 344 561 q 226 351 226 444 q 285 201 226 258 q 438 143 344 143 z "},"ḍ":{"ha":949,"x_min":44,"x_max":829,"o":"m 829 1031 l 829 0 l 649 0 l 649 119 q 545 24 608 57 q 399 -8 482 -8 q 213 40 293 -8 q 89 174 133 88 q 44 374 44 261 q 88 570 44 485 q 212 703 132 656 q 394 750 292 750 q 543 717 479 750 q 649 621 607 683 l 649 1031 l 829 1031 m 438 143 q 590 206 531 143 q 649 369 649 269 q 590 533 649 469 q 438 596 531 596 q 286 533 344 596 q 226 369 228 469 q 286 206 228 269 q 438 143 344 143 m 496 -97 q 569 -128 540 -97 q 599 -206 599 -158 q 569 -282 599 -251 q 496 -312 540 -312 q 422 -282 451 -312 q 393 -206 393 -251 q 422 -128 393 -158 q 496 -97 451 -97 z "},"ḏ":{"ha":949,"x_min":44,"x_max":829,"o":"m 829 1031 l 829 0 l 649 0 l 649 119 q 545 24 608 57 q 399 -8 482 -8 q 213 40 293 -8 q 89 174 133 88 q 44 374 44 261 q 88 570 44 485 q 212 703 132 656 q 394 750 292 750 q 543 717 479 750 q 649 621 607 683 l 649 1031 l 829 1031 m 438 143 q 590 206 531 143 q 649 369 649 269 q 590 533 649 469 q 438 596 531 596 q 286 533 344 596 q 226 369 228 469 q 286 206 228 269 q 438 143 344 143 m 288 -111 l 703 -111 l 703 -226 l 288 -226 l 288 -111 z "},"ǆ":{"ha":1701,"x_min":44,"x_max":1651,"o":"m 829 1031 l 829 0 l 649 0 l 649 119 q 545 24 608 57 q 399 -8 482 -8 q 213 40 293 -8 q 89 174 133 88 q 44 374 44 261 q 88 570 44 485 q 212 703 132 656 q 394 750 292 750 q 543 717 479 750 q 649 621 607 683 l 649 1031 l 829 1031 m 438 143 q 590 206 531 143 q 649 369 649 269 q 590 533 649 469 q 438 596 531 596 q 286 533 344 596 q 226 369 228 469 q 286 206 228 269 q 438 143 344 143 m 1021 742 l 1640 742 l 1640 622 l 1232 147 l 1651 146 l 1651 -1 l 1007 0 l 1007 119 l 1415 594 l 1021 596 l 1021 742 m 1408 1051 l 1569 1051 l 1419 851 l 1244 851 l 1094 1051 l 1256 1051 l 1332 964 l 1408 1051 z "},"e":{"ha":822,"x_min":44,"x_max":779,"o":"m 422 749 q 690 647 600 749 q 779 363 779 546 q 778 308 779 326 l 229 308 q 303 184 247 229 q 442 139 360 139 q 551 160 499 139 q 642 222 603 182 l 739 121 q 603 26 683 60 q 426 -7 524 -7 q 226 40 313 -7 q 92 173 139 88 q 44 369 44 258 q 92 567 44 481 q 226 701 140 653 q 422 749 313 749 m 614 429 q 560 560 611 511 q 424 608 508 608 q 291 560 344 608 q 225 429 238 513 l 614 429 z "},"é":{"ha":822,"x_min":44,"x_max":779,"o":"m 422 749 q 690 647 600 749 q 779 363 779 546 q 778 308 779 326 l 229 308 q 303 184 247 229 q 442 139 360 139 q 551 160 499 139 q 642 222 603 182 l 739 121 q 603 26 683 60 q 426 -7 524 -7 q 226 40 313 -7 q 92 173 139 88 q 44 369 44 258 q 92 567 44 481 q 226 701 140 653 q 422 749 313 749 m 614 429 q 560 560 611 511 q 424 608 508 608 q 291 560 344 608 q 225 429 238 513 l 614 429 m 468 1054 l 642 983 l 464 840 l 324 854 l 468 1054 z "},"ĕ":{"ha":822,"x_min":44,"x_max":779,"o":"m 422 749 q 690 647 600 749 q 779 363 779 546 q 778 308 779 326 l 229 308 q 303 184 247 229 q 442 139 360 139 q 551 160 499 139 q 642 222 603 182 l 739 121 q 603 26 683 60 q 426 -7 524 -7 q 226 40 313 -7 q 92 173 139 88 q 44 369 44 258 q 92 567 44 481 q 226 701 140 653 q 422 749 313 749 m 614 429 q 560 560 611 511 q 424 608 508 608 q 291 560 344 608 q 225 429 238 513 l 614 429 m 331 1044 q 357 981 333 1006 q 415 956 381 956 q 474 981 450 956 q 500 1044 497 1006 l 619 1044 q 560 896 617 953 q 415 839 503 839 q 271 896 328 839 q 211 1044 214 953 l 331 1044 z "},"ě":{"ha":822,"x_min":44,"x_max":779,"o":"m 422 749 q 690 647 600 749 q 779 363 779 546 q 778 308 779 326 l 229 308 q 303 184 247 229 q 442 139 360 139 q 551 160 499 139 q 642 222 603 182 l 739 121 q 603 26 683 60 q 426 -7 524 -7 q 226 40 313 -7 q 92 173 139 88 q 44 369 44 258 q 92 567 44 481 q 226 701 140 653 q 422 749 313 749 m 614 429 q 560 560 611 511 q 424 608 508 608 q 291 560 344 608 q 225 429 238 513 l 614 429 m 493 1050 l 654 1050 l 504 850 l 329 850 l 179 1050 l 340 1050 l 417 963 l 493 1050 z "},"ḝ":{"ha":822,"x_min":44,"x_max":779,"o":"m 403 840 q 258 897 315 840 q 199 1046 201 954 l 318 1046 q 344 982 321 1007 q 403 957 368 957 q 461 982 438 957 q 488 1046 485 1007 l 607 1046 q 547 897 604 954 q 403 840 490 840 m 422 749 q 690 647 600 749 q 779 363 779 546 q 778 308 779 326 l 229 308 q 303 184 247 229 q 442 139 360 139 q 551 160 499 139 q 642 222 603 182 l 739 121 q 490 -3 643 15 l 464 -74 q 550 -113 522 -83 q 578 -185 578 -143 q 531 -278 578 -246 q 413 -311 485 -311 q 274 -282 344 -311 l 307 -185 q 386 -200 350 -200 q 428 -190 413 -200 q 443 -167 443 -181 q 425 -142 443 -151 q 374 -132 407 -132 l 332 -132 l 374 -4 q 200 56 275 6 q 85 187 125 106 q 44 369 44 268 q 92 567 44 481 q 226 701 140 653 q 422 749 313 749 m 614 429 q 560 560 611 511 q 424 608 508 608 q 291 560 344 608 q 225 429 238 513 l 614 429 z "},"ê":{"ha":822,"x_min":44,"x_max":779,"o":"m 422 749 q 690 647 600 749 q 779 363 779 546 q 778 308 779 326 l 229 308 q 303 184 247 229 q 442 139 360 139 q 551 160 499 139 q 642 222 603 182 l 739 121 q 603 26 683 60 q 426 -7 524 -7 q 226 40 313 -7 q 92 173 139 88 q 44 369 44 258 q 92 567 44 481 q 226 701 140 653 q 422 749 313 749 m 614 429 q 560 560 611 511 q 424 608 508 608 q 291 560 344 608 q 225 429 238 513 l 614 429 m 653 850 l 492 850 l 415 938 l 339 850 l 178 850 l 328 1050 l 503 1050 l 653 850 z "},"ế":{"ha":822,"x_min":44,"x_max":779,"o":"m 422 749 q 690 647 600 749 q 779 363 779 546 q 778 308 779 326 l 229 308 q 303 184 247 229 q 442 139 360 139 q 551 160 499 139 q 642 222 603 182 l 739 121 q 603 26 683 60 q 426 -7 524 -7 q 226 40 313 -7 q 92 173 139 88 q 44 369 44 258 q 92 567 44 481 q 226 701 140 653 q 422 749 313 749 m 614 429 q 560 560 611 511 q 424 608 508 608 q 291 560 344 608 q 225 429 238 513 l 614 429 m 679 835 l 504 835 l 415 910 l 325 835 l 150 835 l 300 985 l 528 985 l 679 835 m 482 1228 l 626 1135 l 428 1026 l 304 1063 l 482 1228 z "},"ệ":{"ha":822,"x_min":44,"x_max":779,"o":"m 422 749 q 690 647 600 749 q 779 363 779 546 q 778 308 779 326 l 229 308 q 303 184 247 229 q 442 139 360 139 q 551 160 499 139 q 642 222 603 182 l 739 121 q 603 26 683 60 q 426 -7 524 -7 q 226 40 313 -7 q 92 173 139 88 q 44 369 44 258 q 92 567 44 481 q 226 701 140 653 q 422 749 313 749 m 614 429 q 560 560 611 511 q 424 608 508 608 q 291 560 344 608 q 225 429 238 513 l 614 429 m 418 -97 q 492 -128 463 -97 q 521 -206 521 -158 q 492 -282 521 -251 q 418 -312 463 -312 q 344 -282 374 -312 q 315 -206 315 -251 q 344 -128 315 -158 q 418 -97 374 -97 m 656 851 l 494 851 l 418 939 l 342 851 l 181 851 l 331 1051 l 506 1051 l 656 851 z "},"ề":{"ha":822,"x_min":44,"x_max":779,"o":"m 422 749 q 690 647 600 749 q 779 363 779 546 q 778 308 779 326 l 229 308 q 303 184 247 229 q 442 139 360 139 q 551 160 499 139 q 642 222 603 182 l 739 121 q 603 26 683 60 q 426 -7 524 -7 q 226 40 313 -7 q 92 173 139 88 q 44 369 44 258 q 92 567 44 481 q 226 701 140 653 q 422 749 313 749 m 614 429 q 560 560 611 511 q 424 608 508 608 q 291 560 344 608 q 225 429 238 513 l 614 429 m 679 835 l 504 835 l 415 910 l 325 835 l 150 835 l 300 985 l 528 985 l 679 835 m 331 1228 l 510 1063 l 385 1026 l 186 1135 l 331 1228 z "},"ể":{"ha":822,"x_min":44,"x_max":779,"o":"m 422 749 q 690 647 600 749 q 779 363 779 546 q 778 308 779 326 l 229 308 q 303 184 247 229 q 442 139 360 139 q 551 160 499 139 q 642 222 603 182 l 739 121 q 603 26 683 60 q 426 -7 524 -7 q 226 40 313 -7 q 92 173 139 88 q 44 369 44 258 q 92 567 44 481 q 226 701 140 653 q 422 749 313 749 m 614 429 q 560 560 611 511 q 424 608 508 608 q 291 560 344 608 q 225 429 238 513 l 614 429 m 679 835 l 504 835 l 415 910 l 325 835 l 150 835 l 300 985 l 528 985 l 679 835 m 404 1257 q 494 1231 461 1257 q 528 1163 528 1204 q 433 1024 528 1093 l 349 1058 q 385 1095 372 1076 q 399 1129 399 1114 q 390 1148 399 1142 q 367 1154 381 1154 q 325 1142 343 1154 l 275 1215 q 404 1257 338 1257 z "},"ễ":{"ha":822,"x_min":44,"x_max":779,"o":"m 422 749 q 690 647 600 749 q 779 363 779 546 q 778 308 779 326 l 229 308 q 303 184 247 229 q 442 139 360 139 q 551 160 499 139 q 642 222 603 182 l 739 121 q 603 26 683 60 q 426 -7 524 -7 q 226 40 313 -7 q 92 173 139 88 q 44 369 44 258 q 92 567 44 481 q 226 701 140 653 q 422 749 313 749 m 614 429 q 560 560 611 511 q 424 608 508 608 q 291 560 344 608 q 225 429 238 513 l 614 429 m 679 835 l 504 835 l 415 910 l 325 835 l 150 835 l 300 985 l 528 985 l 679 835 m 640 1203 q 522 1035 640 1035 q 460 1045 490 1035 q 394 1074 431 1056 q 357 1090 375 1083 q 326 1097 339 1097 q 293 1082 303 1097 q 283 1039 283 1067 l 188 1039 q 307 1208 188 1208 q 368 1199 339 1208 q 436 1169 397 1189 q 473 1153 456 1160 q 503 1146 490 1146 q 535 1160 526 1146 q 544 1203 544 1175 l 640 1203 z "},"ȅ":{"ha":822,"x_min":44,"x_max":779,"o":"m 422 749 q 690 647 600 749 q 779 363 779 546 q 778 308 779 326 l 229 308 q 303 184 247 229 q 442 139 360 139 q 551 160 499 139 q 642 222 603 182 l 739 121 q 603 26 683 60 q 426 -7 524 -7 q 226 40 313 -7 q 92 173 139 88 q 44 369 44 258 q 92 567 44 481 q 226 701 140 653 q 422 749 313 749 m 614 429 q 560 560 611 511 q 424 608 508 608 q 291 560 344 608 q 225 429 238 513 l 614 429 m 264 1063 l 374 853 l 243 840 l 115 999 l 264 1063 m 504 1063 l 614 853 l 483 840 l 356 999 l 504 1063 z "},"ë":{"ha":822,"x_min":44,"x_max":779,"o":"m 422 749 q 690 647 600 749 q 779 363 779 546 q 778 308 779 326 l 229 308 q 303 184 247 229 q 442 139 360 139 q 551 160 499 139 q 642 222 603 182 l 739 121 q 603 26 683 60 q 426 -7 524 -7 q 226 40 313 -7 q 92 173 139 88 q 44 369 44 258 q 92 567 44 481 q 226 701 140 653 q 422 749 313 749 m 614 429 q 560 560 611 511 q 424 608 508 608 q 291 560 344 608 q 225 429 238 513 l 614 429 m 290 1042 q 354 1015 329 1042 q 379 949 379 989 q 354 883 379 908 q 290 857 329 857 q 226 883 251 857 q 201 949 201 908 q 226 1015 201 989 q 290 1042 251 1042 m 542 1042 q 606 1015 581 1042 q 632 949 632 989 q 606 883 632 910 q 542 857 581 857 q 478 883 504 857 q 453 949 453 910 q 478 1015 453 989 q 542 1042 504 1042 z "},"ė":{"ha":822,"x_min":44,"x_max":779,"o":"m 422 749 q 690 647 600 749 q 779 363 779 546 q 778 308 779 326 l 229 308 q 303 184 247 229 q 442 139 360 139 q 551 160 499 139 q 642 222 603 182 l 739 121 q 603 26 683 60 q 426 -7 524 -7 q 226 40 313 -7 q 92 173 139 88 q 44 369 44 258 q 92 567 44 481 q 226 701 140 653 q 422 749 313 749 m 614 429 q 560 560 611 511 q 424 608 508 608 q 291 560 344 608 q 225 429 238 513 l 614 429 m 415 1061 q 489 1031 460 1061 q 518 953 518 1000 q 489 876 518 907 q 415 846 460 846 q 342 876 371 846 q 313 953 313 907 q 342 1031 313 1000 q 415 1061 371 1061 z "},"ẹ":{"ha":822,"x_min":44,"x_max":779,"o":"m 422 749 q 690 647 600 749 q 779 363 779 546 q 778 308 779 326 l 229 308 q 303 184 247 229 q 442 139 360 139 q 551 160 499 139 q 642 222 603 182 l 739 121 q 603 26 683 60 q 426 -7 524 -7 q 226 40 313 -7 q 92 173 139 88 q 44 369 44 258 q 92 567 44 481 q 226 701 140 653 q 422 749 313 749 m 614 429 q 560 560 611 511 q 424 608 508 608 q 291 560 344 608 q 225 429 238 513 l 614 429 m 418 -97 q 492 -128 463 -97 q 521 -206 521 -158 q 492 -282 521 -251 q 418 -312 463 -312 q 344 -282 374 -312 q 315 -206 315 -251 q 344 -128 315 -158 q 418 -97 374 -97 z "},"è":{"ha":822,"x_min":44,"x_max":779,"o":"m 422 749 q 690 647 600 749 q 779 363 779 546 q 778 308 779 326 l 229 308 q 303 184 247 229 q 442 139 360 139 q 551 160 499 139 q 642 222 603 182 l 739 121 q 603 26 683 60 q 426 -7 524 -7 q 226 40 313 -7 q 92 173 139 88 q 44 369 44 258 q 92 567 44 481 q 226 701 140 653 q 422 749 313 749 m 614 429 q 560 560 611 511 q 424 608 508 608 q 291 560 344 608 q 225 429 238 513 l 614 429 m 356 1054 l 496 854 l 354 840 l 182 983 l 356 1054 z "},"ẻ":{"ha":822,"x_min":44,"x_max":779,"o":"m 422 749 q 690 647 600 749 q 779 363 779 546 q 778 308 779 326 l 229 308 q 303 184 247 229 q 442 139 360 139 q 551 160 499 139 q 642 222 603 182 l 739 121 q 603 26 683 60 q 426 -7 524 -7 q 226 40 313 -7 q 92 173 139 88 q 44 369 44 258 q 92 567 44 481 q 226 701 140 653 q 422 749 313 749 m 614 429 q 560 560 611 511 q 424 608 508 608 q 291 560 344 608 q 225 429 238 513 l 614 429 m 418 1104 q 520 1072 479 1104 q 561 985 561 1040 q 531 893 561 942 q 451 801 500 844 l 360 843 q 403 900 388 869 q 418 953 418 931 q 407 979 418 969 q 379 989 396 989 q 329 972 353 989 l 275 1058 q 418 1104 339 1104 z "},"ȇ":{"ha":822,"x_min":44,"x_max":779,"o":"m 422 749 q 690 647 600 749 q 779 363 779 546 q 778 308 779 326 l 229 308 q 303 184 247 229 q 442 139 360 139 q 551 160 499 139 q 642 222 603 182 l 739 121 q 603 26 683 60 q 426 -7 524 -7 q 226 40 313 -7 q 92 173 139 88 q 44 369 44 258 q 92 567 44 481 q 226 701 140 653 q 422 749 313 749 m 614 429 q 560 560 611 511 q 424 608 508 608 q 291 560 344 608 q 225 429 238 513 l 614 429 m 211 839 q 271 988 214 931 q 415 1044 328 1044 q 560 988 503 1044 q 619 839 617 931 l 500 839 q 474 902 497 878 q 415 926 450 926 q 357 902 381 926 q 331 839 333 878 l 211 839 z "},"ē":{"ha":822,"x_min":44,"x_max":779,"o":"m 422 749 q 690 647 600 749 q 779 363 779 546 q 778 308 779 326 l 229 308 q 303 184 247 229 q 442 139 360 139 q 551 160 499 139 q 642 222 603 182 l 739 121 q 603 26 683 60 q 426 -7 524 -7 q 226 40 313 -7 q 92 173 139 88 q 44 369 44 258 q 92 567 44 481 q 226 701 140 653 q 422 749 313 749 m 614 429 q 560 560 611 511 q 424 608 508 608 q 291 560 344 608 q 225 429 238 513 l 614 429 m 207 1007 l 622 1007 l 622 892 l 207 892 l 207 1007 z "},"ḗ":{"ha":822,"x_min":44,"x_max":779,"o":"m 422 749 q 690 647 600 749 q 779 363 779 546 q 778 308 779 326 l 229 308 q 303 184 247 229 q 442 139 360 139 q 551 160 499 139 q 642 222 603 182 l 739 121 q 603 26 683 60 q 426 -7 524 -7 q 226 40 313 -7 q 92 173 139 88 q 44 369 44 258 q 92 567 44 481 q 226 701 140 653 q 422 749 313 749 m 614 429 q 560 560 611 511 q 424 608 508 608 q 291 560 344 608 q 225 429 238 513 l 614 429 m 222 947 l 589 947 l 589 835 l 222 835 l 222 947 m 471 1206 l 615 1113 l 417 1004 l 293 1040 l 471 1206 z "},"ḕ":{"ha":822,"x_min":44,"x_max":779,"o":"m 422 749 q 690 647 600 749 q 779 363 779 546 q 778 308 779 326 l 229 308 q 303 184 247 229 q 442 139 360 139 q 551 160 499 139 q 642 222 603 182 l 739 121 q 603 26 683 60 q 426 -7 524 -7 q 226 40 313 -7 q 92 173 139 88 q 44 369 44 258 q 92 567 44 481 q 226 701 140 653 q 422 749 313 749 m 614 429 q 560 560 611 511 q 424 608 508 608 q 291 560 344 608 q 225 429 238 513 l 614 429 m 217 947 l 583 947 l 583 835 l 217 835 l 217 947 m 314 1206 l 493 1040 l 368 1004 l 169 1113 l 314 1206 z "},"ę":{"ha":822,"x_min":44,"x_max":779,"o":"m 422 749 q 690 647 600 749 q 779 363 779 546 q 778 308 779 326 l 229 308 q 303 184 247 229 q 442 139 360 139 q 551 160 499 139 q 642 222 603 182 l 739 121 q 674 64 710 89 q 594 -40 626 17 q 563 -136 563 -96 q 599 -182 563 -182 q 642 -171 622 -182 l 681 -282 q 558 -310 614 -310 q 449 -271 490 -310 q 408 -164 408 -232 q 474 -4 408 -83 q 426 -7 443 -7 q 226 40 313 -7 q 92 173 139 88 q 44 369 44 258 q 92 567 44 481 q 226 701 140 653 q 422 749 313 749 m 614 429 q 560 560 611 511 q 424 608 508 608 q 291 560 344 608 q 225 429 238 513 l 614 429 z "},"ẽ":{"ha":822,"x_min":44,"x_max":779,"o":"m 422 749 q 690 647 600 749 q 779 363 779 546 q 778 308 779 326 l 229 308 q 303 184 247 229 q 442 139 360 139 q 551 160 499 139 q 642 222 603 182 l 739 121 q 603 26 683 60 q 426 -7 524 -7 q 226 40 313 -7 q 92 173 139 88 q 44 369 44 258 q 92 567 44 481 q 226 701 140 653 q 422 749 313 749 m 614 429 q 560 560 611 511 q 424 608 508 608 q 291 560 344 608 q 225 429 238 513 l 614 429 m 647 1029 q 525 835 647 835 q 466 846 494 835 q 403 876 438 857 q 340 901 358 901 q 311 885 319 901 q 303 839 303 869 l 188 839 q 308 1035 188 1035 q 367 1024 339 1035 q 431 993 396 1013 q 493 968 475 968 q 522 984 514 968 q 531 1029 531 1000 l 647 1029 z "},"ə":{"ha":822,"x_min":43,"x_max":778,"o":"m 396 750 q 597 703 510 750 q 731 570 683 656 q 778 374 778 485 q 730 176 778 263 q 596 42 682 90 q 400 -6 510 -6 q 133 96 222 -6 q 43 381 43 197 q 44 435 43 417 l 593 435 q 519 559 575 514 q 381 604 463 604 q 272 583 324 604 q 181 521 219 561 l 83 622 q 219 717 139 683 q 396 750 299 750 m 399 135 q 531 183 478 135 q 597 314 585 231 l 208 314 q 263 183 211 232 q 399 135 314 135 z "},"f":{"ha":507,"x_min":49,"x_max":546,"o":"m 422 883 q 353 860 381 883 q 326 789 326 836 l 326 713 l 513 713 l 513 581 l 326 581 l 326 0 l 146 0 l 146 581 l 49 581 l 49 713 l 146 713 l 146 783 q 182 923 146 865 q 278 1010 218 981 q 410 1039 339 1039 q 546 1007 479 1039 l 514 861 q 422 883 458 883 z "},"g":{"ha":892,"x_min":44,"x_max":792,"o":"m 792 743 l 792 71 q 744 -113 792 -35 q 608 -234 696 -192 q 403 -276 519 -276 q 89 -178 233 -276 l 161 -47 q 393 -125 267 -125 q 552 -74 493 -125 q 611 67 611 -22 l 611 154 q 514 67 574 97 q 375 38 454 38 q 203 83 278 38 q 86 209 128 128 q 44 396 44 290 q 86 580 44 500 q 203 704 128 660 q 375 749 278 749 q 513 718 453 749 q 611 632 574 688 l 611 743 l 792 743 m 414 179 q 556 238 501 179 q 611 392 611 297 q 556 545 611 486 q 414 604 501 604 q 272 544 326 604 q 215 392 217 485 q 272 238 217 297 q 414 179 326 179 z "},"ğ":{"ha":892,"x_min":44,"x_max":792,"o":"m 792 743 l 792 71 q 744 -113 792 -35 q 608 -234 696 -192 q 403 -276 519 -276 q 89 -178 233 -276 l 161 -47 q 393 -125 267 -125 q 552 -74 493 -125 q 611 67 611 -22 l 611 154 q 514 67 574 97 q 375 38 454 38 q 203 83 278 38 q 86 209 128 128 q 44 396 44 290 q 86 580 44 500 q 203 704 128 660 q 375 749 278 749 q 513 718 453 749 q 611 632 574 688 l 611 743 l 792 743 m 414 179 q 556 238 501 179 q 611 392 611 297 q 556 545 611 486 q 414 604 501 604 q 272 544 326 604 q 215 392 217 485 q 272 238 217 297 q 414 179 326 179 m 342 1046 q 368 982 344 1007 q 426 957 392 957 q 485 982 461 957 q 511 1046 508 1007 l 631 1046 q 571 897 628 954 q 426 840 514 840 q 282 897 339 840 q 222 1046 225 954 l 342 1046 z "},"ǧ":{"ha":892,"x_min":44,"x_max":792,"o":"m 792 743 l 792 71 q 744 -113 792 -35 q 608 -234 696 -192 q 403 -276 519 -276 q 89 -178 233 -276 l 161 -47 q 393 -125 267 -125 q 552 -74 493 -125 q 611 67 611 -22 l 611 154 q 514 67 574 97 q 375 38 454 38 q 203 83 278 38 q 86 209 128 128 q 44 396 44 290 q 86 580 44 500 q 203 704 128 660 q 375 749 278 749 q 513 718 453 749 q 611 632 574 688 l 611 743 l 792 743 m 414 179 q 556 238 501 179 q 611 392 611 297 q 556 545 611 486 q 414 604 501 604 q 272 544 326 604 q 215 392 217 485 q 272 238 217 297 q 414 179 326 179 m 504 1051 l 665 1051 l 515 851 l 340 851 l 190 1051 l 351 1051 l 428 964 l 504 1051 z "},"ĝ":{"ha":892,"x_min":44,"x_max":792,"o":"m 792 743 l 792 71 q 744 -113 792 -35 q 608 -234 696 -192 q 403 -276 519 -276 q 89 -178 233 -276 l 161 -47 q 393 -125 267 -125 q 552 -74 493 -125 q 611 67 611 -22 l 611 154 q 514 67 574 97 q 375 38 454 38 q 203 83 278 38 q 86 209 128 128 q 44 396 44 290 q 86 580 44 500 q 203 704 128 660 q 375 749 278 749 q 513 718 453 749 q 611 632 574 688 l 611 743 l 792 743 m 414 179 q 556 238 501 179 q 611 392 611 297 q 556 545 611 486 q 414 604 501 604 q 272 544 326 604 q 215 392 217 485 q 272 238 217 297 q 414 179 326 179 m 664 851 l 503 851 l 426 939 l 350 851 l 189 851 l 339 1051 l 514 1051 l 664 851 z "},"ģ":{"ha":892,"x_min":44,"x_max":792,"o":"m 792 743 l 792 71 q 744 -113 792 -35 q 608 -234 696 -192 q 403 -276 519 -276 q 89 -178 233 -276 l 161 -47 q 393 -125 267 -125 q 552 -74 493 -125 q 611 67 611 -22 l 611 154 q 514 67 574 97 q 375 38 454 38 q 203 83 278 38 q 86 209 128 128 q 44 396 44 290 q 86 580 44 500 q 203 704 128 660 q 375 749 278 749 q 513 718 453 749 q 611 632 574 688 l 611 743 l 792 743 m 414 179 q 556 238 501 179 q 611 392 611 297 q 556 545 611 486 q 414 604 501 604 q 272 544 326 604 q 215 392 217 485 q 272 238 217 297 q 414 179 326 179 m 500 850 l 339 850 l 425 1079 l 547 1079 l 500 850 z "},"ġ":{"ha":892,"x_min":44,"x_max":792,"o":"m 792 743 l 792 71 q 744 -113 792 -35 q 608 -234 696 -192 q 403 -276 519 -276 q 89 -178 233 -276 l 161 -47 q 393 -125 267 -125 q 552 -74 493 -125 q 611 67 611 -22 l 611 154 q 514 67 574 97 q 375 38 454 38 q 203 83 278 38 q 86 209 128 128 q 44 396 44 290 q 86 580 44 500 q 203 704 128 660 q 375 749 278 749 q 513 718 453 749 q 611 632 574 688 l 611 743 l 792 743 m 414 179 q 556 238 501 179 q 611 392 611 297 q 556 545 611 486 q 414 604 501 604 q 272 544 326 604 q 215 392 217 485 q 272 238 217 297 q 414 179 326 179 m 426 1063 q 500 1032 471 1063 q 529 954 529 1001 q 500 878 529 908 q 426 847 471 847 q 353 878 382 847 q 324 954 324 908 q 353 1032 324 1001 q 426 1063 382 1063 z "},"ḡ":{"ha":892,"x_min":44,"x_max":792,"o":"m 792 743 l 792 71 q 744 -113 792 -35 q 608 -234 696 -192 q 403 -276 519 -276 q 89 -178 233 -276 l 161 -47 q 393 -125 267 -125 q 552 -74 493 -125 q 611 67 611 -22 l 611 154 q 514 67 574 97 q 375 38 454 38 q 203 83 278 38 q 86 209 128 128 q 44 396 44 290 q 86 580 44 500 q 203 704 128 660 q 375 749 278 749 q 513 718 453 749 q 611 632 574 688 l 611 743 l 792 743 m 414 179 q 556 238 501 179 q 611 392 611 297 q 556 545 611 486 q 414 604 501 604 q 272 544 326 604 q 215 392 217 485 q 272 238 217 297 q 414 179 326 179 m 218 1008 l 633 1008 l 633 893 l 218 893 l 218 1008 z "},"h":{"ha":933,"x_min":119,"x_max":843,"o":"m 568 750 q 769 673 696 750 q 843 464 843 596 l 843 0 l 661 0 l 661 411 q 617 534 661 489 q 496 579 572 579 q 353 518 406 578 q 300 365 300 458 l 300 0 l 119 0 l 119 1031 l 300 1031 l 300 601 q 568 750 376 747 z "},"ħ":{"ha":933,"x_min":24,"x_max":843,"o":"m 568 715 q 769 638 696 715 q 843 429 843 561 l 843 0 l 661 0 l 661 378 q 617 500 661 456 q 496 544 574 544 q 353 484 406 544 q 300 331 300 424 l 300 0 l 119 0 l 119 813 l 24 813 l 24 914 l 119 914 l 119 1031 l 300 1031 l 300 914 l 574 914 l 574 813 l 300 813 l 300 567 q 568 715 378 715 z "},"ḫ":{"ha":933,"x_min":119,"x_max":843,"o":"m 568 750 q 769 673 696 750 q 843 464 843 596 l 843 0 l 661 0 l 661 411 q 617 534 661 489 q 496 579 572 579 q 353 518 406 578 q 300 365 300 458 l 300 0 l 119 0 l 119 1031 l 300 1031 l 300 601 q 568 750 376 747 m 396 -74 q 422 -137 399 -112 q 481 -162 446 -162 q 539 -137 515 -162 q 565 -74 563 -112 l 685 -74 q 625 -222 682 -165 q 481 -279 568 -279 q 336 -222 393 -279 q 276 -74 279 -165 l 396 -74 z "},"ĥ":{"ha":933,"x_min":-31,"x_max":843,"o":"m 568 750 q 769 673 696 750 q 843 464 843 596 l 843 0 l 661 0 l 661 411 q 617 534 661 489 q 496 579 572 579 q 353 518 406 578 q 300 365 300 458 l 300 0 l 119 0 l 119 1031 l 300 1031 l 300 601 q 568 750 376 747 m 444 1139 l 283 1139 l 207 1226 l 131 1139 l -31 1139 l 119 1339 l 294 1339 l 444 1139 z "},"ḥ":{"ha":933,"x_min":119,"x_max":843,"o":"m 568 750 q 769 673 696 750 q 843 464 843 596 l 843 0 l 661 0 l 661 411 q 617 534 661 489 q 496 579 572 579 q 353 518 406 578 q 300 365 300 458 l 300 0 l 119 0 l 119 1031 l 300 1031 l 300 601 q 568 750 376 747 m 481 -97 q 554 -128 525 -97 q 583 -206 583 -158 q 554 -282 583 -251 q 481 -312 525 -312 q 407 -282 436 -312 q 378 -206 378 -251 q 407 -128 378 -158 q 481 -97 436 -97 z "},"i":{"ha":404,"x_min":99,"x_max":304,"o":"m 113 743 l 293 743 l 293 0 l 113 0 l 113 743 m 201 1063 q 275 1032 246 1063 q 304 954 304 1001 q 275 878 304 908 q 201 847 246 847 q 128 878 157 847 q 99 954 99 908 q 128 1032 99 1001 q 201 1063 157 1063 z "},"ı":{"ha":404,"x_min":113,"x_max":293,"o":"m 113 743 l 293 743 l 293 0 l 113 0 l 113 743 z "},"í":{"ha":404,"x_min":111,"x_max":429,"o":"m 113 743 l 293 743 l 293 0 l 113 0 l 113 743 m 256 1056 l 429 985 l 251 842 l 111 856 l 256 1056 z "},"ĭ":{"ha":404,"x_min":-1,"x_max":407,"o":"m 113 743 l 293 743 l 293 0 l 113 0 l 113 743 m 118 1046 q 144 982 121 1007 q 203 957 168 957 q 261 982 238 957 q 288 1046 285 1007 l 407 1046 q 347 897 404 954 q 203 840 290 840 q 58 897 115 840 q -1 1046 1 954 l 118 1046 z "},"î":{"ha":404,"x_min":-35,"x_max":440,"o":"m 113 743 l 293 743 l 293 0 l 113 0 l 113 743 m 440 851 l 279 851 l 203 939 l 126 851 l -35 851 l 115 1051 l 290 1051 l 440 851 z "},"ȉ":{"ha":404,"x_min":-97,"x_max":401,"o":"m 113 743 l 293 743 l 293 0 l 113 0 l 113 743 m 51 1064 l 161 854 l 31 842 l -97 1000 l 51 1064 m 292 1064 l 401 854 l 271 842 l 143 1000 l 292 1064 z "},"ï":{"ha":404,"x_min":0,"x_max":407,"o":"m 113 743 l 293 743 l 293 0 l 113 0 l 113 743 m 90 1043 q 153 1017 128 1043 q 179 950 179 990 q 153 884 179 911 q 90 857 128 857 q 26 884 51 857 q 0 950 0 911 q 26 1017 0 990 q 90 1043 51 1043 m 318 1043 q 382 1017 357 1043 q 407 950 407 990 q 381 884 407 911 q 318 857 356 857 q 253 884 279 857 q 228 950 228 911 q 253 1017 228 990 q 318 1043 279 1043 z "},"ḯ":{"ha":404,"x_min":-7,"x_max":414,"o":"m 113 743 l 293 743 l 293 0 l 113 0 l 113 743 m 81 1014 q 143 989 118 1014 q 168 925 168 964 q 143 860 168 886 q 81 833 118 833 q 18 860 43 833 q -7 925 -7 886 q 18 989 -7 964 q 81 1014 43 1014 m 326 1014 q 388 989 363 1014 q 413 925 413 964 q 388 860 413 886 q 326 833 363 833 q 263 860 288 833 q 238 925 238 886 q 263 989 238 964 q 326 1014 288 1014 m 269 1238 l 414 1144 l 215 1036 l 92 1072 l 269 1238 z "},"ị":{"ha":404,"x_min":99,"x_max":306,"o":"m 113 743 l 293 743 l 293 0 l 113 0 l 113 743 m 201 1063 q 275 1032 246 1063 q 304 954 304 1001 q 275 878 304 908 q 201 847 246 847 q 128 878 157 847 q 99 954 99 908 q 128 1032 99 1001 q 201 1063 157 1063 m 203 -97 q 276 -128 247 -97 q 306 -206 306 -158 q 276 -282 306 -251 q 203 -312 247 -312 q 129 -282 158 -312 q 100 -206 100 -251 q 129 -128 100 -158 q 203 -97 158 -97 z "},"ì":{"ha":404,"x_min":-31,"x_max":293,"o":"m 113 743 l 293 743 l 293 0 l 113 0 l 113 743 m 143 1056 l 283 856 l 142 842 l -31 985 l 143 1056 z "},"ỉ":{"ha":404,"x_min":63,"x_max":349,"o":"m 113 743 l 293 743 l 293 0 l 113 0 l 113 743 m 206 1106 q 308 1074 267 1106 q 349 986 349 1042 q 318 894 349 943 q 239 803 288 846 l 147 844 q 190 901 175 871 q 206 954 206 932 q 194 981 206 971 q 167 990 183 990 q 117 974 140 990 l 63 1060 q 206 1106 126 1106 z "},"ȋ":{"ha":404,"x_min":8,"x_max":394,"o":"m 113 743 l 293 743 l 293 0 l 113 0 l 113 743 m 8 840 q 65 991 11 935 q 203 1047 119 1047 q 339 991 286 1047 q 394 840 392 935 l 274 840 q 251 903 271 878 q 203 928 232 928 q 152 903 172 928 q 129 840 132 879 l 8 840 z "},"ĳ":{"ha":808,"x_min":99,"x_max":708,"o":"m 113 743 l 293 743 l 293 0 l 113 0 l 113 743 m 201 1063 q 275 1032 246 1063 q 304 954 304 1001 q 275 878 304 908 q 201 847 246 847 q 128 878 157 847 q 99 954 99 908 q 128 1032 99 1001 q 201 1063 157 1063 m 358 -112 q 422 -125 390 -124 q 492 -95 468 -126 q 517 -4 517 -64 l 517 743 l 697 743 l 697 -32 q 635 -212 697 -147 q 464 -276 574 -276 q 319 -249 388 -276 l 358 -112 m 606 1063 q 679 1032 650 1063 q 708 954 708 1001 q 679 878 708 908 q 606 847 650 847 q 532 878 561 847 q 503 954 503 908 q 532 1032 503 1001 q 606 1063 561 1063 z "},"ī":{"ha":404,"x_min":21,"x_max":383,"o":"m 113 743 l 293 743 l 293 0 l 113 0 l 113 743 m 21 1008 l 383 1008 l 383 893 l 21 893 l 21 1008 z "},"į":{"ha":404,"x_min":8,"x_max":306,"o":"m 203 847 q 129 878 158 847 q 100 954 100 908 q 129 1032 100 1001 q 203 1063 158 1063 q 276 1032 247 1063 q 306 954 306 1001 q 276 878 306 908 q 203 847 247 847 m 113 743 l 293 743 l 293 0 l 281 0 q 190 -78 218 -44 q 163 -143 163 -112 q 172 -172 163 -162 q 197 -182 182 -182 q 242 -171 224 -182 l 281 -282 q 158 -310 217 -310 q 49 -274 90 -310 q 8 -176 8 -239 q 113 13 8 -72 l 113 743 z "},"ĩ":{"ha":404,"x_min":-3,"x_max":419,"o":"m 113 743 l 293 743 l 293 0 l 113 0 l 113 743 m 419 1028 q 306 833 419 833 q 253 844 278 833 q 199 874 229 854 q 147 896 161 896 q 114 838 114 896 l -3 838 q 113 1033 -3 1033 q 163 1024 140 1033 q 218 996 186 1014 q 269 974 256 974 q 303 1028 303 974 l 419 1028 z "},"j":{"ha":394,"x_min":-85,"x_max":304,"o":"m -46 -112 q 18 -125 -14 -124 q 88 -95 64 -126 q 113 -4 113 -64 l 113 743 l 293 743 l 293 -32 q 231 -212 293 -147 q 60 -276 169 -276 q -85 -249 -17 -276 l -46 -112 m 201 1063 q 275 1032 246 1063 q 304 954 304 1001 q 275 878 304 908 q 201 847 246 847 q 128 878 157 847 q 99 954 99 908 q 128 1032 99 1001 q 201 1063 157 1063 z "},"ȷ":{"ha":394,"x_min":-85,"x_max":293,"o":"m -46 -112 q 18 -125 -14 -124 q 88 -95 64 -126 q 113 -4 113 -64 l 113 743 l 293 743 l 293 -32 q 231 -212 293 -147 q 60 -276 169 -276 q -85 -249 -17 -276 l -46 -112 z "},"ĵ":{"ha":394,"x_min":-85,"x_max":439,"o":"m -46 -112 q 18 -125 -14 -124 q 88 -95 64 -126 q 113 -4 113 -64 l 113 743 l 293 743 l 293 -32 q 231 -212 293 -147 q 60 -276 169 -276 q -85 -249 -17 -276 l -46 -112 m 439 851 l 278 851 l 201 939 l 125 851 l -36 851 l 114 1051 l 289 1051 l 439 851 z "},"k":{"ha":840,"x_min":119,"x_max":831,"o":"m 615 0 l 414 325 l 300 206 l 300 0 l 119 0 l 119 1031 l 300 1031 l 300 433 l 606 742 l 814 742 l 539 456 l 831 0 l 615 0 z "},"ķ":{"ha":840,"x_min":119,"x_max":831,"o":"m 615 0 l 414 325 l 300 206 l 300 0 l 119 0 l 119 1031 l 300 1031 l 300 433 l 606 742 l 814 742 l 539 456 l 831 0 l 615 0 m 369 -82 l 531 -82 l 444 -311 l 322 -311 l 369 -82 z "},"ĸ":{"ha":832,"x_min":113,"x_max":824,"o":"m 608 0 l 407 325 l 293 206 l 293 0 l 113 0 l 113 743 l 293 743 l 293 429 l 599 743 l 806 743 l 531 456 l 824 0 l 608 0 z "},"l":{"ha":419,"x_min":119,"x_max":300,"o":"m 119 1031 l 300 1031 l 300 0 l 119 0 l 119 1031 z "},"ĺ":{"ha":419,"x_min":119,"x_max":438,"o":"m 119 1031 l 300 1031 l 300 0 l 119 0 l 119 1031 m 264 1343 l 438 1272 l 260 1129 l 119 1143 l 264 1343 z "},"ľ":{"ha":533,"x_min":119,"x_max":564,"o":"m 119 1031 l 300 1031 l 300 0 l 119 0 l 119 1031 m 404 1031 l 564 1031 l 522 743 l 404 743 l 404 1031 z "},"ļ":{"ha":419,"x_min":85,"x_max":300,"o":"m 119 1031 l 300 1031 l 300 0 l 119 0 l 119 1031 m 132 -82 l 293 -82 l 207 -311 l 85 -311 l 132 -82 z "},"ŀ":{"ha":593,"x_min":119,"x_max":593,"o":"m 119 1031 l 300 1031 l 300 0 l 119 0 l 119 1031 m 490 661 q 564 631 535 661 q 593 553 593 600 q 564 476 593 507 q 490 446 535 446 q 417 476 446 446 q 388 553 388 507 q 417 631 388 600 q 490 661 446 661 z "},"ḷ":{"ha":419,"x_min":108,"x_max":314,"o":"m 119 1031 l 300 1031 l 300 0 l 119 0 l 119 1031 m 211 -97 q 285 -128 256 -97 q 314 -206 314 -158 q 285 -282 314 -251 q 211 -312 256 -312 q 138 -282 167 -312 q 108 -206 108 -251 q 138 -128 108 -158 q 211 -97 167 -97 z "},"ǉ":{"ha":814,"x_min":119,"x_max":724,"o":"m 119 1031 l 300 1031 l 300 0 l 119 0 l 119 1031 m 374 -112 q 438 -125 406 -124 q 508 -95 483 -126 q 532 -4 532 -64 l 532 743 l 713 743 l 713 -32 q 651 -212 713 -147 q 479 -276 589 -276 q 335 -249 403 -276 l 374 -112 m 621 1063 q 694 1032 665 1063 q 724 954 724 1001 q 694 878 724 908 q 621 847 665 847 q 547 878 576 847 q 518 954 518 908 q 547 1032 518 1001 q 621 1063 576 1063 z "},"ḻ":{"ha":419,"x_min":3,"x_max":418,"o":"m 119 1031 l 300 1031 l 300 0 l 119 0 l 119 1031 m 3 -111 l 418 -111 l 418 -226 l 3 -226 l 3 -111 z "},"ł":{"ha":551,"x_min":39,"x_max":522,"o":"m 522 725 l 522 607 l 371 526 l 371 0 l 190 0 l 190 429 l 39 349 l 39 468 l 190 549 l 190 1031 l 371 1031 l 371 644 l 522 725 z "},"m":{"ha":1446,"x_min":113,"x_max":1357,"o":"m 1086 750 q 1285 673 1213 750 q 1357 464 1357 596 l 1357 0 l 1175 0 l 1175 411 q 1131 535 1175 490 q 1013 581 1088 581 q 876 518 926 578 q 825 367 825 458 l 825 0 l 643 0 l 643 411 q 600 535 643 490 q 482 581 557 581 q 344 518 394 578 q 293 367 293 458 l 293 0 l 113 0 l 113 743 l 293 743 l 293 606 q 554 750 367 747 q 717 703 651 750 q 810 572 783 657 q 1086 750 881 747 z "},"ṃ":{"ha":1446,"x_min":113,"x_max":1357,"o":"m 1086 750 q 1285 673 1213 750 q 1357 464 1357 596 l 1357 0 l 1175 0 l 1175 411 q 1131 535 1175 490 q 1013 581 1088 581 q 876 518 926 578 q 825 367 825 458 l 825 0 l 643 0 l 643 411 q 600 535 643 490 q 482 581 557 581 q 344 518 394 578 q 293 367 293 458 l 293 0 l 113 0 l 113 743 l 293 743 l 293 606 q 554 750 367 747 q 717 703 651 750 q 810 572 783 657 q 1086 750 881 747 m 735 -97 q 808 -128 779 -97 q 838 -206 838 -158 q 808 -282 838 -251 q 735 -312 779 -312 q 661 -282 690 -312 q 632 -206 632 -251 q 661 -128 632 -158 q 735 -97 690 -97 z "},"n":{"ha":925,"x_min":113,"x_max":835,"o":"m 560 750 q 761 673 688 750 q 835 464 835 596 l 835 0 l 653 0 l 653 411 q 608 534 653 489 q 488 579 564 579 q 345 518 397 578 q 293 365 293 458 l 293 0 l 113 0 l 113 743 l 293 743 l 293 604 q 560 750 369 747 z "},"ń":{"ha":925,"x_min":113,"x_max":835,"o":"m 560 750 q 761 673 688 750 q 835 464 835 596 l 835 0 l 653 0 l 653 411 q 608 534 653 489 q 488 579 564 579 q 345 518 397 578 q 293 365 293 458 l 293 0 l 113 0 l 113 743 l 293 743 l 293 604 q 560 750 369 747 m 536 1056 l 710 985 l 532 842 l 392 856 l 536 1056 z "},"ŉ":{"ha":1101,"x_min":51,"x_max":1011,"o":"m 51 972 l 185 972 l 161 610 l 51 610 l 51 972 m 736 750 q 938 673 864 750 q 1011 464 1011 596 l 1011 0 l 829 0 l 829 411 q 785 534 829 489 q 664 579 740 579 q 522 518 574 578 q 469 365 469 458 l 469 0 l 289 0 l 289 743 l 469 743 l 469 604 q 736 750 546 747 z "},"ň":{"ha":925,"x_min":113,"x_max":835,"o":"m 560 750 q 761 673 688 750 q 835 464 835 596 l 835 0 l 653 0 l 653 411 q 608 534 653 489 q 488 579 564 579 q 345 518 397 578 q 293 365 293 458 l 293 0 l 113 0 l 113 743 l 293 743 l 293 604 q 560 750 369 747 m 561 1051 l 722 1051 l 572 851 l 397 851 l 247 1051 l 408 1051 l 485 964 l 561 1051 z "},"ņ":{"ha":925,"x_min":113,"x_max":835,"o":"m 560 750 q 761 673 688 750 q 835 464 835 596 l 835 0 l 653 0 l 653 411 q 608 534 653 489 q 488 579 564 579 q 345 518 397 578 q 293 365 293 458 l 293 0 l 113 0 l 113 743 l 293 743 l 293 604 q 560 750 369 747 m 390 -82 l 551 -82 l 465 -311 l 343 -311 l 390 -82 z "},"ṅ":{"ha":925,"x_min":113,"x_max":835,"o":"m 560 750 q 761 673 688 750 q 835 464 835 596 l 835 0 l 653 0 l 653 411 q 608 534 653 489 q 488 579 564 579 q 345 518 397 578 q 293 365 293 458 l 293 0 l 113 0 l 113 743 l 293 743 l 293 604 q 560 750 369 747 m 483 1063 q 557 1032 528 1063 q 586 954 586 1001 q 557 878 586 908 q 483 847 528 847 q 410 878 439 847 q 381 954 381 908 q 410 1032 381 1001 q 483 1063 439 1063 z "},"ṇ":{"ha":925,"x_min":113,"x_max":835,"o":"m 560 750 q 761 673 688 750 q 835 464 835 596 l 835 0 l 653 0 l 653 411 q 608 534 653 489 q 488 579 564 579 q 345 518 397 578 q 293 365 293 458 l 293 0 l 113 0 l 113 743 l 293 743 l 293 604 q 560 750 369 747 m 469 -97 q 543 -128 514 -97 q 572 -206 572 -158 q 543 -282 572 -251 q 469 -312 514 -312 q 396 -282 425 -312 q 367 -206 367 -251 q 396 -128 367 -158 q 469 -97 425 -97 z "},"ŋ":{"ha":925,"x_min":113,"x_max":835,"o":"m 560 750 q 761 673 688 750 q 835 464 835 596 l 835 -24 q 800 -163 835 -106 q 708 -249 765 -221 q 586 -278 651 -278 q 422 -228 494 -278 l 478 -89 q 569 -121 521 -121 q 630 -97 607 -121 q 653 -26 653 -74 l 653 411 q 608 534 653 489 q 488 579 564 579 q 345 518 397 578 q 293 365 293 458 l 293 0 l 113 0 l 113 743 l 293 743 l 293 604 q 560 750 369 747 z "},"ǌ":{"ha":1319,"x_min":113,"x_max":1229,"o":"m 560 750 q 761 673 688 750 q 835 464 835 596 l 835 0 l 653 0 l 653 411 q 608 534 653 489 q 488 579 564 579 q 345 518 397 578 q 293 365 293 458 l 293 0 l 113 0 l 113 743 l 293 743 l 293 604 q 560 750 369 747 m 879 -112 q 943 -125 911 -124 q 1013 -95 989 -126 q 1038 -4 1038 -64 l 1038 743 l 1218 743 l 1218 -32 q 1156 -212 1218 -147 q 985 -276 1094 -276 q 840 -249 908 -276 l 879 -112 m 1126 1063 q 1200 1032 1171 1063 q 1229 954 1229 1001 q 1200 878 1229 908 q 1126 847 1171 847 q 1053 878 1082 847 q 1024 954 1024 908 q 1053 1032 1024 1001 q 1126 1063 1082 1063 z "},"ṉ":{"ha":925,"x_min":113,"x_max":835,"o":"m 560 750 q 761 673 688 750 q 835 464 835 596 l 835 0 l 653 0 l 653 411 q 608 534 653 489 q 488 579 564 579 q 345 518 397 578 q 293 365 293 458 l 293 0 l 113 0 l 113 743 l 293 743 l 293 604 q 560 750 369 747 m 261 -111 l 676 -111 l 676 -226 l 261 -226 l 261 -111 z "},"ñ":{"ha":925,"x_min":113,"x_max":835,"o":"m 560 750 q 761 673 688 750 q 835 464 835 596 l 835 0 l 653 0 l 653 411 q 608 534 653 489 q 488 579 564 579 q 345 518 397 578 q 293 365 293 458 l 293 0 l 113 0 l 113 743 l 293 743 l 293 604 q 560 750 369 747 m 715 1031 q 593 836 715 836 q 534 847 563 836 q 471 878 506 858 q 408 903 426 903 q 379 887 388 903 q 371 840 371 871 l 256 840 q 376 1036 256 1036 q 435 1025 407 1036 q 499 994 464 1014 q 561 969 543 969 q 590 985 582 969 q 599 1031 599 1001 l 715 1031 z "},"o":{"ha":872,"x_min":44,"x_max":828,"o":"m 438 749 q 641 701 553 749 q 778 569 729 654 q 828 372 828 483 q 778 174 828 260 q 641 40 729 88 q 438 -7 553 -7 q 232 40 321 -7 q 94 174 143 88 q 44 372 44 260 q 94 569 44 483 q 232 701 143 654 q 438 749 321 749 m 438 594 q 285 532 343 594 q 226 369 226 469 q 285 207 226 269 q 438 144 343 144 q 588 207 529 144 q 646 369 646 269 q 588 532 646 469 q 438 594 529 594 z "},"ó":{"ha":872,"x_min":44,"x_max":828,"o":"m 438 749 q 641 701 553 749 q 778 569 729 654 q 828 372 828 483 q 778 174 828 260 q 641 40 729 88 q 438 -7 553 -7 q 232 40 321 -7 q 94 174 143 88 q 44 372 44 260 q 94 569 44 483 q 232 701 143 654 q 438 749 321 749 m 438 594 q 285 532 343 594 q 226 369 226 469 q 285 207 226 269 q 438 144 343 144 q 588 207 529 144 q 646 369 646 269 q 588 532 646 469 q 438 594 529 594 m 490 1056 l 664 985 l 486 842 l 346 856 l 490 1056 z "},"ŏ":{"ha":872,"x_min":44,"x_max":828,"o":"m 438 749 q 641 701 553 749 q 778 569 729 654 q 828 372 828 483 q 778 174 828 260 q 641 40 729 88 q 438 -7 553 -7 q 232 40 321 -7 q 94 174 143 88 q 44 372 44 260 q 94 569 44 483 q 232 701 143 654 q 438 749 321 749 m 438 594 q 285 532 343 594 q 226 369 226 469 q 285 207 226 269 q 438 144 343 144 q 588 207 529 144 q 646 369 646 269 q 588 532 646 469 q 438 594 529 594 m 353 1046 q 379 982 356 1007 q 438 957 403 957 q 496 982 472 957 q 522 1046 519 1007 l 642 1046 q 582 897 639 954 q 438 840 525 840 q 293 897 350 840 q 233 1046 236 954 l 353 1046 z "},"ô":{"ha":872,"x_min":44,"x_max":828,"o":"m 438 749 q 641 701 553 749 q 778 569 729 654 q 828 372 828 483 q 778 174 828 260 q 641 40 729 88 q 438 -7 553 -7 q 232 40 321 -7 q 94 174 143 88 q 44 372 44 260 q 94 569 44 483 q 232 701 143 654 q 438 749 321 749 m 438 594 q 285 532 343 594 q 226 369 226 469 q 285 207 226 269 q 438 144 343 144 q 588 207 529 144 q 646 369 646 269 q 588 532 646 469 q 438 594 529 594 m 675 851 l 514 851 l 438 939 l 361 851 l 200 851 l 350 1051 l 525 1051 l 675 851 z "},"ố":{"ha":872,"x_min":44,"x_max":828,"o":"m 438 749 q 641 701 553 749 q 778 569 729 654 q 828 372 828 483 q 778 174 828 260 q 641 40 729 88 q 438 -7 553 -7 q 232 40 321 -7 q 94 174 143 88 q 44 372 44 260 q 94 569 44 483 q 232 701 143 654 q 438 749 321 749 m 438 594 q 285 532 343 594 q 226 369 226 469 q 285 207 226 269 q 438 144 343 144 q 588 207 529 144 q 646 369 646 269 q 588 532 646 469 q 438 594 529 594 m 701 836 l 526 836 l 438 911 l 347 836 l 172 836 l 322 986 l 550 986 l 701 836 m 504 1229 l 649 1136 l 450 1028 l 326 1064 l 504 1229 z "},"ộ":{"ha":872,"x_min":44,"x_max":828,"o":"m 438 749 q 641 701 553 749 q 778 569 729 654 q 828 372 828 483 q 778 174 828 260 q 641 40 729 88 q 438 -7 553 -7 q 232 40 321 -7 q 94 174 143 88 q 44 372 44 260 q 94 569 44 483 q 232 701 143 654 q 438 749 321 749 m 438 594 q 285 532 343 594 q 226 369 226 469 q 285 207 226 269 q 438 144 343 144 q 588 207 529 144 q 646 369 646 269 q 588 532 646 469 q 438 594 529 594 m 438 -97 q 511 -128 482 -97 q 540 -206 540 -158 q 511 -282 540 -251 q 438 -312 482 -312 q 364 -282 393 -312 q 335 -206 335 -251 q 364 -128 335 -158 q 438 -97 393 -97 m 675 851 l 514 851 l 438 939 l 361 851 l 200 851 l 350 1051 l 525 1051 l 675 851 z "},"ồ":{"ha":872,"x_min":44,"x_max":828,"o":"m 438 749 q 641 701 553 749 q 778 569 729 654 q 828 372 828 483 q 778 174 828 260 q 641 40 729 88 q 438 -7 553 -7 q 232 40 321 -7 q 94 174 143 88 q 44 372 44 260 q 94 569 44 483 q 232 701 143 654 q 438 749 321 749 m 438 594 q 285 532 343 594 q 226 369 226 469 q 285 207 226 269 q 438 144 343 144 q 588 207 529 144 q 646 369 646 269 q 588 532 646 469 q 438 594 529 594 m 701 836 l 526 836 l 438 911 l 347 836 l 172 836 l 322 986 l 550 986 l 701 836 m 353 1229 l 532 1064 l 407 1028 l 208 1136 l 353 1229 z "},"ổ":{"ha":872,"x_min":44,"x_max":828,"o":"m 438 749 q 641 701 553 749 q 778 569 729 654 q 828 372 828 483 q 778 174 828 260 q 641 40 729 88 q 438 -7 553 -7 q 232 40 321 -7 q 94 174 143 88 q 44 372 44 260 q 94 569 44 483 q 232 701 143 654 q 438 749 321 749 m 438 594 q 285 532 343 594 q 226 369 226 469 q 285 207 226 269 q 438 144 343 144 q 588 207 529 144 q 646 369 646 269 q 588 532 646 469 q 438 594 529 594 m 701 836 l 526 836 l 438 911 l 347 836 l 172 836 l 322 986 l 550 986 l 701 836 m 426 1258 q 517 1232 483 1258 q 550 1164 550 1206 q 456 1025 550 1094 l 371 1060 q 408 1097 394 1078 q 421 1131 421 1115 q 412 1149 421 1143 q 389 1156 403 1156 q 347 1143 365 1156 l 297 1217 q 426 1258 360 1258 z "},"ỗ":{"ha":872,"x_min":44,"x_max":828,"o":"m 438 749 q 641 701 553 749 q 778 569 729 654 q 828 372 828 483 q 778 174 828 260 q 641 40 729 88 q 438 -7 553 -7 q 232 40 321 -7 q 94 174 143 88 q 44 372 44 260 q 94 569 44 483 q 232 701 143 654 q 438 749 321 749 m 438 594 q 285 532 343 594 q 226 369 226 469 q 285 207 226 269 q 438 144 343 144 q 588 207 529 144 q 646 369 646 269 q 588 532 646 469 q 438 594 529 594 m 701 836 l 526 836 l 438 911 l 347 836 l 172 836 l 322 986 l 550 986 l 701 836 m 663 1204 q 544 1036 663 1036 q 483 1047 513 1036 q 417 1075 453 1057 q 379 1092 397 1085 q 349 1099 361 1099 q 315 1083 325 1099 q 306 1040 306 1068 l 210 1040 q 329 1210 210 1210 q 390 1200 361 1210 q 458 1171 419 1190 q 495 1154 478 1161 q 525 1147 513 1147 q 558 1162 549 1147 q 567 1204 567 1176 l 663 1204 z "},"ȍ":{"ha":872,"x_min":44,"x_max":828,"o":"m 438 749 q 641 701 553 749 q 778 569 729 654 q 828 372 828 483 q 778 174 828 260 q 641 40 729 88 q 438 -7 553 -7 q 232 40 321 -7 q 94 174 143 88 q 44 372 44 260 q 94 569 44 483 q 232 701 143 654 q 438 749 321 749 m 438 594 q 285 532 343 594 q 226 369 226 469 q 285 207 226 269 q 438 144 343 144 q 588 207 529 144 q 646 369 646 269 q 588 532 646 469 q 438 594 529 594 m 286 1064 l 396 854 l 265 842 l 138 1000 l 286 1064 m 526 1064 l 636 854 l 506 842 l 378 1000 l 526 1064 z "},"ö":{"ha":872,"x_min":44,"x_max":828,"o":"m 438 749 q 641 701 553 749 q 778 569 729 654 q 828 372 828 483 q 778 174 828 260 q 641 40 729 88 q 438 -7 553 -7 q 232 40 321 -7 q 94 174 143 88 q 44 372 44 260 q 94 569 44 483 q 232 701 143 654 q 438 749 321 749 m 438 594 q 285 532 343 594 q 226 369 226 469 q 285 207 226 269 q 438 144 343 144 q 588 207 529 144 q 646 369 646 269 q 588 532 646 469 q 438 594 529 594 m 313 1043 q 376 1017 351 1043 q 401 950 401 990 q 376 884 401 910 q 313 858 351 858 q 249 884 274 858 q 224 950 224 910 q 249 1017 224 990 q 313 1043 274 1043 m 564 1043 q 628 1017 603 1043 q 654 950 654 990 q 628 885 654 911 q 564 858 603 858 q 501 885 526 858 q 475 950 475 911 q 501 1017 475 990 q 564 1043 526 1043 z "},"ȫ":{"ha":872,"x_min":44,"x_max":828,"o":"m 438 749 q 641 701 553 749 q 778 569 729 654 q 828 372 828 483 q 778 174 828 260 q 641 40 729 88 q 438 -7 553 -7 q 232 40 321 -7 q 94 174 143 88 q 44 372 44 260 q 94 569 44 483 q 232 701 143 654 q 438 749 321 749 m 438 594 q 285 532 343 594 q 226 369 226 469 q 285 207 226 269 q 438 144 343 144 q 588 207 529 144 q 646 369 646 269 q 588 532 646 469 q 438 594 529 594 m 315 1014 q 378 989 353 1014 q 403 925 403 964 q 378 860 403 886 q 315 833 353 833 q 253 860 278 833 q 228 925 228 886 q 253 989 228 964 q 315 1014 278 1014 m 561 1014 q 622 989 597 1014 q 647 925 647 964 q 622 860 647 886 q 561 833 597 833 q 497 860 522 833 q 472 925 472 886 q 497 989 472 964 q 561 1014 522 1014 m 254 1178 l 621 1178 l 621 1065 l 254 1065 l 254 1178 z "},"ȱ":{"ha":872,"x_min":44,"x_max":828,"o":"m 438 749 q 641 701 553 749 q 778 569 729 654 q 828 372 828 483 q 778 174 828 260 q 641 40 729 88 q 438 -7 553 -7 q 232 40 321 -7 q 94 174 143 88 q 44 372 44 260 q 94 569 44 483 q 232 701 143 654 q 438 749 321 749 m 438 594 q 285 532 343 594 q 226 369 226 469 q 285 207 226 269 q 438 144 343 144 q 588 207 529 144 q 646 369 646 269 q 588 532 646 469 q 438 594 529 594 m 436 1028 q 503 1000 476 1028 q 529 929 529 972 q 503 861 529 889 q 436 833 476 833 q 370 861 397 833 q 343 929 343 889 q 369 1000 343 972 q 436 1028 396 1028 m 254 1178 l 621 1178 l 621 1065 l 254 1065 l 254 1178 z "},"ọ":{"ha":872,"x_min":44,"x_max":828,"o":"m 438 749 q 641 701 553 749 q 778 569 729 654 q 828 372 828 483 q 778 174 828 260 q 641 40 729 88 q 438 -7 553 -7 q 232 40 321 -7 q 94 174 143 88 q 44 372 44 260 q 94 569 44 483 q 232 701 143 654 q 438 749 321 749 m 438 594 q 285 532 343 594 q 226 369 226 469 q 285 207 226 269 q 438 144 343 144 q 588 207 529 144 q 646 369 646 269 q 588 532 646 469 q 438 594 529 594 m 438 -97 q 511 -128 482 -97 q 540 -206 540 -158 q 511 -282 540 -251 q 438 -312 482 -312 q 364 -282 393 -312 q 335 -206 335 -251 q 364 -128 335 -158 q 438 -97 393 -97 z "},"ò":{"ha":872,"x_min":44,"x_max":828,"o":"m 438 749 q 641 701 553 749 q 778 569 729 654 q 828 372 828 483 q 778 174 828 260 q 641 40 729 88 q 438 -7 553 -7 q 232 40 321 -7 q 94 174 143 88 q 44 372 44 260 q 94 569 44 483 q 232 701 143 654 q 438 749 321 749 m 438 594 q 285 532 343 594 q 226 369 226 469 q 285 207 226 269 q 438 144 343 144 q 588 207 529 144 q 646 369 646 269 q 588 532 646 469 q 438 594 529 594 m 378 1056 l 518 856 l 376 842 l 204 985 l 378 1056 z "},"ỏ":{"ha":872,"x_min":44,"x_max":828,"o":"m 438 749 q 641 701 553 749 q 778 569 729 654 q 828 372 828 483 q 778 174 828 260 q 641 40 729 88 q 438 -7 553 -7 q 232 40 321 -7 q 94 174 143 88 q 44 372 44 260 q 94 569 44 483 q 232 701 143 654 q 438 749 321 749 m 438 594 q 285 532 343 594 q 226 369 226 469 q 285 207 226 269 q 438 144 343 144 q 588 207 529 144 q 646 369 646 269 q 588 532 646 469 q 438 594 529 594 m 440 1106 q 542 1074 501 1106 q 583 986 583 1042 q 553 894 583 943 q 474 803 522 846 l 382 844 q 425 901 410 871 q 440 954 440 932 q 429 981 440 971 q 401 990 418 990 q 351 974 375 990 l 297 1060 q 440 1106 361 1106 z "},"ơ":{"ha":921,"x_min":44,"x_max":921,"o":"m 885 936 q 921 797 921 868 q 878 667 921 722 q 764 593 836 611 q 828 372 828 499 q 778 174 828 260 q 641 40 729 88 q 438 -7 553 -7 q 232 40 321 -7 q 94 174 143 88 q 44 372 44 260 q 94 569 44 483 q 232 701 143 654 q 438 749 321 749 q 631 707 543 749 q 686 696 656 696 q 750 723 728 696 q 772 790 772 750 q 742 885 772 842 l 885 936 m 438 144 q 588 207 529 144 q 646 369 646 269 q 588 532 646 469 q 438 594 529 594 q 285 532 343 594 q 226 369 226 469 q 285 207 226 269 q 438 144 343 144 z "},"ớ":{"ha":921,"x_min":44,"x_max":921,"o":"m 885 936 q 921 797 921 868 q 878 667 921 722 q 764 593 836 611 q 828 372 828 499 q 778 174 828 260 q 641 40 729 88 q 438 -7 553 -7 q 232 40 321 -7 q 94 174 143 88 q 44 372 44 260 q 94 569 44 483 q 232 701 143 654 q 438 749 321 749 q 631 707 543 749 q 686 696 656 696 q 750 723 728 696 q 772 790 772 750 q 742 885 772 842 l 885 936 m 438 144 q 588 207 529 144 q 646 369 646 269 q 588 532 646 469 q 438 594 529 594 q 285 532 343 594 q 226 369 226 469 q 285 207 226 269 q 438 144 343 144 m 489 1056 l 663 985 l 485 842 l 344 856 l 489 1056 z "},"ợ":{"ha":921,"x_min":44,"x_max":921,"o":"m 885 936 q 921 797 921 868 q 878 667 921 722 q 764 593 836 611 q 828 372 828 499 q 778 174 828 260 q 641 40 729 88 q 438 -7 553 -7 q 232 40 321 -7 q 94 174 143 88 q 44 372 44 260 q 94 569 44 483 q 232 701 143 654 q 438 749 321 749 q 631 707 543 749 q 686 696 656 696 q 750 723 728 696 q 772 790 772 750 q 742 885 772 842 l 885 936 m 438 144 q 588 207 529 144 q 646 369 646 269 q 588 532 646 469 q 438 594 529 594 q 285 532 343 594 q 226 369 226 469 q 285 207 226 269 q 438 144 343 144 m 436 -97 q 510 -128 481 -97 q 539 -206 539 -158 q 510 -282 539 -251 q 436 -312 481 -312 q 363 -282 392 -312 q 333 -206 333 -251 q 363 -128 333 -158 q 436 -97 392 -97 z "},"ờ":{"ha":921,"x_min":44,"x_max":921,"o":"m 885 936 q 921 797 921 868 q 878 667 921 722 q 764 593 836 611 q 828 372 828 499 q 778 174 828 260 q 641 40 729 88 q 438 -7 553 -7 q 232 40 321 -7 q 94 174 143 88 q 44 372 44 260 q 94 569 44 483 q 232 701 143 654 q 438 749 321 749 q 631 707 543 749 q 686 696 656 696 q 750 723 728 696 q 772 790 772 750 q 742 885 772 842 l 885 936 m 438 144 q 588 207 529 144 q 646 369 646 269 q 588 532 646 469 q 438 594 529 594 q 285 532 343 594 q 226 369 226 469 q 285 207 226 269 q 438 144 343 144 m 376 1056 l 517 856 l 375 842 l 203 985 l 376 1056 z "},"ở":{"ha":921,"x_min":44,"x_max":921,"o":"m 885 936 q 921 797 921 868 q 878 667 921 722 q 764 593 836 611 q 828 372 828 499 q 778 174 828 260 q 641 40 729 88 q 438 -7 553 -7 q 232 40 321 -7 q 94 174 143 88 q 44 372 44 260 q 94 569 44 483 q 232 701 143 654 q 438 749 321 749 q 631 707 543 749 q 686 696 656 696 q 750 723 728 696 q 772 790 772 750 q 742 885 772 842 l 885 936 m 438 144 q 588 207 529 144 q 646 369 646 269 q 588 532 646 469 q 438 594 529 594 q 285 532 343 594 q 226 369 226 469 q 285 207 226 269 q 438 144 343 144 m 440 1106 q 542 1074 501 1106 q 583 986 583 1042 q 553 894 583 943 q 474 803 522 846 l 382 844 q 425 901 410 871 q 440 954 440 932 q 429 981 440 971 q 401 990 418 990 q 351 974 375 990 l 297 1060 q 440 1106 361 1106 z "},"ỡ":{"ha":921,"x_min":44,"x_max":921,"o":"m 885 936 q 921 797 921 868 q 878 667 921 722 q 764 593 836 611 q 828 372 828 499 q 778 174 828 260 q 641 40 729 88 q 438 -7 553 -7 q 232 40 321 -7 q 94 174 143 88 q 44 372 44 260 q 94 569 44 483 q 232 701 143 654 q 438 749 321 749 q 631 707 543 749 q 686 696 656 696 q 750 723 728 696 q 772 790 772 750 q 742 885 772 842 l 885 936 m 438 144 q 588 207 529 144 q 646 369 646 269 q 588 532 646 469 q 438 594 529 594 q 285 532 343 594 q 226 369 226 469 q 285 207 226 269 q 438 144 343 144 m 669 1031 q 547 836 669 836 q 488 847 517 836 q 425 878 460 858 q 363 903 381 903 q 333 887 342 903 q 325 840 325 871 l 210 840 q 331 1036 210 1036 q 390 1025 361 1036 q 453 994 418 1014 q 515 969 497 969 q 544 985 536 969 q 553 1031 553 1001 l 669 1031 z "},"ő":{"ha":872,"x_min":44,"x_max":828,"o":"m 438 749 q 641 701 553 749 q 778 569 729 654 q 828 372 828 483 q 778 174 828 260 q 641 40 729 88 q 438 -7 553 -7 q 232 40 321 -7 q 94 174 143 88 q 44 372 44 260 q 94 569 44 483 q 232 701 143 654 q 438 749 321 749 m 438 594 q 285 532 343 594 q 226 369 226 469 q 285 207 226 269 q 438 144 343 144 q 588 207 529 144 q 646 369 646 269 q 588 532 646 469 q 438 594 529 594 m 333 1064 l 482 1000 l 354 842 l 224 854 l 333 1064 m 574 1064 l 722 1000 l 594 842 l 464 854 l 574 1064 z "},"ȏ":{"ha":872,"x_min":44,"x_max":828,"o":"m 438 749 q 641 701 553 749 q 778 569 729 654 q 828 372 828 483 q 778 174 828 260 q 641 40 729 88 q 438 -7 553 -7 q 232 40 321 -7 q 94 174 143 88 q 44 372 44 260 q 94 569 44 483 q 232 701 143 654 q 438 749 321 749 m 438 594 q 285 532 343 594 q 226 369 226 469 q 285 207 226 269 q 438 144 343 144 q 588 207 529 144 q 646 369 646 269 q 588 532 646 469 q 438 594 529 594 m 233 840 q 293 989 236 932 q 438 1046 350 1046 q 582 989 525 1046 q 642 840 639 932 l 522 840 q 496 903 519 879 q 438 928 472 928 q 379 903 403 928 q 353 840 356 879 l 233 840 z "},"ō":{"ha":872,"x_min":44,"x_max":828,"o":"m 438 749 q 641 701 553 749 q 778 569 729 654 q 828 372 828 483 q 778 174 828 260 q 641 40 729 88 q 438 -7 553 -7 q 232 40 321 -7 q 94 174 143 88 q 44 372 44 260 q 94 569 44 483 q 232 701 143 654 q 438 749 321 749 m 438 594 q 285 532 343 594 q 226 369 226 469 q 285 207 226 269 q 438 144 343 144 q 588 207 529 144 q 646 369 646 269 q 588 532 646 469 q 438 594 529 594 m 229 1008 l 644 1008 l 644 893 l 229 893 l 229 1008 z "},"ṓ":{"ha":872,"x_min":44,"x_max":828,"o":"m 438 749 q 641 701 553 749 q 778 569 729 654 q 828 372 828 483 q 778 174 828 260 q 641 40 729 88 q 438 -7 553 -7 q 232 40 321 -7 q 94 174 143 88 q 44 372 44 260 q 94 569 44 483 q 232 701 143 654 q 438 749 321 749 m 438 594 q 285 532 343 594 q 226 369 226 469 q 285 207 226 269 q 438 144 343 144 q 588 207 529 144 q 646 369 646 269 q 588 532 646 469 q 438 594 529 594 m 244 949 l 611 949 l 611 836 l 244 836 l 244 949 m 493 1207 l 638 1114 l 439 1006 l 315 1042 l 493 1207 z "},"ṑ":{"ha":872,"x_min":44,"x_max":828,"o":"m 438 749 q 641 701 553 749 q 778 569 729 654 q 828 372 828 483 q 778 174 828 260 q 641 40 729 88 q 438 -7 553 -7 q 232 40 321 -7 q 94 174 143 88 q 44 372 44 260 q 94 569 44 483 q 232 701 143 654 q 438 749 321 749 m 438 594 q 285 532 343 594 q 226 369 226 469 q 285 207 226 269 q 438 144 343 144 q 588 207 529 144 q 646 369 646 269 q 588 532 646 469 q 438 594 529 594 m 239 949 l 606 949 l 606 836 l 239 836 l 239 949 m 336 1207 l 515 1042 l 390 1006 l 192 1114 l 336 1207 z "},"ǫ":{"ha":872,"x_min":44,"x_max":828,"o":"m 828 372 q 788 190 828 271 q 674 60 747 110 q 597 -42 626 13 q 567 -136 567 -96 q 603 -182 567 -182 q 646 -171 626 -182 l 685 -282 q 563 -310 618 -310 q 453 -271 494 -310 q 413 -164 413 -232 q 478 -6 413 -83 q 438 -7 464 -7 q 232 40 321 -7 q 94 174 143 88 q 44 372 44 260 q 94 569 44 483 q 232 701 143 654 q 438 749 321 749 q 641 701 553 749 q 778 569 729 654 q 828 372 828 483 m 226 369 q 285 207 226 269 q 438 144 343 144 q 588 207 529 144 q 646 369 646 269 q 588 532 646 469 q 438 594 529 594 q 285 532 343 594 q 226 369 226 469 z "},"ø":{"ha":872,"x_min":39,"x_max":836,"o":"m 696 665 q 793 540 758 615 q 828 372 828 465 q 778 174 828 260 q 641 40 729 88 q 438 -7 553 -7 q 260 28 342 -7 l 154 -128 l 39 -128 l 178 76 q 79 202 114 126 q 44 372 44 278 q 94 569 44 483 q 232 701 143 654 q 438 749 321 749 q 614 714 533 749 l 721 871 l 836 871 l 696 665 m 217 369 q 268 207 217 271 l 529 590 q 438 608 483 608 q 278 542 339 608 q 217 369 217 476 m 438 129 q 596 196 535 129 q 657 369 657 263 q 604 532 657 467 l 343 149 q 438 129 386 129 z "},"ǿ":{"ha":872,"x_min":39,"x_max":836,"o":"m 696 665 q 793 540 758 615 q 828 372 828 465 q 778 174 828 260 q 641 40 729 88 q 438 -7 553 -7 q 260 28 342 -7 l 154 -128 l 39 -128 l 178 76 q 79 202 114 126 q 44 372 44 278 q 94 569 44 483 q 232 701 143 654 q 438 749 321 749 q 614 714 533 749 l 721 871 l 836 871 l 696 665 m 217 369 q 268 207 217 271 l 529 590 q 438 608 483 608 q 278 542 339 608 q 217 369 217 476 m 438 129 q 596 196 535 129 q 657 369 657 263 q 604 532 657 467 l 343 149 q 438 129 386 129 m 493 1054 l 667 983 l 489 840 l 349 854 l 493 1054 z "},"õ":{"ha":872,"x_min":44,"x_max":828,"o":"m 438 749 q 641 701 553 749 q 778 569 729 654 q 828 372 828 483 q 778 174 828 260 q 641 40 729 88 q 438 -7 553 -7 q 232 40 321 -7 q 94 174 143 88 q 44 372 44 260 q 94 569 44 483 q 232 701 143 654 q 438 749 321 749 m 438 594 q 285 532 343 594 q 226 369 226 469 q 285 207 226 269 q 438 144 343 144 q 588 207 529 144 q 646 369 646 269 q 588 532 646 469 q 438 594 529 594 m 669 1031 q 547 836 669 836 q 488 847 517 836 q 425 878 460 858 q 363 903 381 903 q 333 887 342 903 q 325 840 325 871 l 210 840 q 331 1036 210 1036 q 390 1025 361 1036 q 453 994 418 1014 q 515 969 497 969 q 544 985 536 969 q 553 1031 553 1001 l 669 1031 z "},"ṍ":{"ha":872,"x_min":44,"x_max":828,"o":"m 438 749 q 641 701 553 749 q 778 569 729 654 q 828 372 828 483 q 778 174 828 260 q 641 40 729 88 q 438 -7 553 -7 q 232 40 321 -7 q 94 174 143 88 q 44 372 44 260 q 94 569 44 483 q 232 701 143 654 q 438 749 321 749 m 438 594 q 285 532 343 594 q 226 369 226 469 q 285 207 226 269 q 438 144 343 144 q 588 207 529 144 q 646 369 646 269 q 588 532 646 469 q 438 594 529 594 m 664 1000 q 546 832 664 832 q 484 842 514 832 q 418 871 454 853 q 381 888 399 881 q 350 894 363 894 q 317 879 326 894 q 307 836 307 864 l 211 836 q 331 1006 211 1006 q 392 996 363 1006 q 460 967 421 986 q 497 950 479 957 q 526 943 514 943 q 559 958 550 943 q 568 1000 568 972 l 664 1000 m 506 1253 l 650 1160 l 451 1051 l 328 1088 l 506 1253 z "},"ṏ":{"ha":872,"x_min":44,"x_max":828,"o":"m 438 749 q 641 701 553 749 q 778 569 729 654 q 828 372 828 483 q 778 174 828 260 q 641 40 729 88 q 438 -7 553 -7 q 232 40 321 -7 q 94 174 143 88 q 44 372 44 260 q 94 569 44 483 q 232 701 143 654 q 438 749 321 749 m 438 594 q 285 532 343 594 q 226 369 226 469 q 285 207 226 269 q 438 144 343 144 q 588 207 529 144 q 646 369 646 269 q 588 532 646 469 q 438 594 529 594 m 643 1000 q 525 832 643 832 q 463 842 493 832 q 397 871 433 853 q 360 888 378 881 q 329 894 342 894 q 296 879 306 894 q 286 836 286 864 l 190 836 q 310 1006 190 1006 q 371 996 342 1006 q 439 967 400 986 q 476 950 458 957 q 506 943 493 943 q 538 958 529 943 q 547 1000 547 972 l 643 1000 m 296 1231 q 358 1206 333 1231 q 383 1142 383 1181 q 358 1076 383 1103 q 296 1050 333 1050 q 233 1076 258 1050 q 208 1142 208 1103 q 233 1206 208 1181 q 296 1231 258 1231 m 542 1231 q 603 1206 578 1231 q 628 1142 628 1181 q 603 1076 628 1103 q 542 1050 578 1050 q 478 1076 503 1050 q 453 1142 453 1103 q 478 1206 453 1181 q 542 1231 503 1231 z "},"ȭ":{"ha":872,"x_min":44,"x_max":828,"o":"m 438 749 q 641 701 553 749 q 778 569 729 654 q 828 372 828 483 q 778 174 828 260 q 641 40 729 88 q 438 -7 553 -7 q 232 40 321 -7 q 94 174 143 88 q 44 372 44 260 q 94 569 44 483 q 232 701 143 654 q 438 749 321 749 m 438 594 q 285 532 343 594 q 226 369 226 469 q 285 207 226 269 q 438 144 343 144 q 588 207 529 144 q 646 369 646 269 q 588 532 646 469 q 438 594 529 594 m 664 1000 q 546 832 664 832 q 484 842 514 832 q 418 871 454 853 q 381 888 399 881 q 350 894 363 894 q 317 879 326 894 q 307 836 307 864 l 211 836 q 331 1006 211 1006 q 392 996 363 1006 q 460 967 421 986 q 497 950 479 957 q 526 943 514 943 q 559 958 550 943 q 568 1000 568 972 l 664 1000 m 256 1167 l 622 1167 l 622 1054 l 256 1054 l 256 1167 z "},"œ":{"ha":1438,"x_min":44,"x_max":1397,"o":"m 1019 749 q 1222 697 1136 749 q 1353 549 1308 644 q 1393 331 1397 454 l 819 331 q 892 190 833 242 q 1039 139 951 139 q 1149 160 1097 139 q 1242 222 1201 182 l 1339 121 q 1201 26 1282 60 q 1025 -7 1121 -7 q 851 33 925 -7 q 733 146 776 72 q 610 33 686 72 q 436 -7 535 -7 q 232 40 321 -7 q 94 174 143 88 q 44 372 44 260 q 94 569 44 483 q 232 701 143 654 q 436 749 321 749 q 612 709 536 749 q 733 596 688 669 q 851 709 778 669 q 1019 749 924 749 m 1213 426 q 1157 564 1210 511 q 1021 617 1104 617 q 885 564 940 617 q 818 426 831 511 l 1213 426 m 436 144 q 588 207 529 144 q 646 369 646 269 q 588 531 646 469 q 436 593 529 593 q 286 531 344 593 q 228 369 228 469 q 286 207 228 269 q 436 144 344 144 z "},"p":{"ha":946,"x_min":119,"x_max":901,"o":"m 550 749 q 734 701 654 749 q 858 567 814 653 q 901 368 901 481 q 858 172 901 257 q 736 40 815 88 q 553 -7 657 -7 q 406 26 469 -7 q 300 121 342 58 l 300 -269 l 119 -269 l 119 743 l 300 743 l 300 621 q 403 716 340 683 q 550 749 467 749 m 510 149 q 660 212 601 149 q 718 374 718 275 q 660 535 718 472 q 510 597 601 597 q 358 535 417 597 q 300 374 300 472 q 358 211 300 274 q 510 149 417 149 z "},"þ":{"ha":946,"x_min":119,"x_max":901,"o":"m 300 626 q 404 717 340 686 q 550 749 468 749 q 734 701 654 749 q 858 567 814 653 q 901 368 901 481 q 858 172 901 257 q 736 40 815 88 q 553 -7 657 -7 q 406 25 469 -7 q 300 117 342 57 l 300 -269 l 119 -269 l 119 1031 l 300 1031 l 300 626 m 510 597 q 358 535 417 597 q 300 374 300 472 q 358 211 300 274 q 510 149 417 149 q 660 212 601 149 q 718 374 718 275 q 660 535 718 472 q 510 597 601 597 z "},"q":{"ha":949,"x_min":44,"x_max":829,"o":"m 829 743 l 829 -269 l 649 -269 l 649 119 q 545 24 608 57 q 399 -8 482 -8 q 213 40 293 -8 q 89 174 133 88 q 44 374 44 261 q 88 570 44 485 q 212 703 132 656 q 394 750 292 750 q 543 717 479 750 q 649 621 607 683 l 649 743 l 829 743 m 438 143 q 590 206 531 143 q 649 369 649 269 q 590 533 649 469 q 438 596 531 596 q 286 533 344 596 q 226 369 228 469 q 286 206 228 269 q 438 143 344 143 z "},"r":{"ha":560,"x_min":113,"x_max":546,"o":"m 293 600 q 395 710 331 672 q 546 750 460 749 l 546 575 q 362 522 431 582 q 293 358 293 461 l 293 0 l 113 0 l 113 743 l 293 743 l 293 600 z "},"ŕ":{"ha":560,"x_min":113,"x_max":560,"o":"m 293 600 q 395 710 331 672 q 546 750 460 749 l 546 575 q 362 522 431 582 q 293 358 293 461 l 293 0 l 113 0 l 113 743 l 293 743 l 293 600 m 386 1056 l 560 985 l 382 842 l 242 856 l 386 1056 z "},"ř":{"ha":560,"x_min":97,"x_max":572,"o":"m 293 600 q 395 710 331 672 q 546 750 460 749 l 546 575 q 362 522 431 582 q 293 358 293 461 l 293 0 l 113 0 l 113 743 l 293 743 l 293 600 m 411 1051 l 572 1051 l 422 851 l 247 851 l 97 1051 l 258 1051 l 335 964 l 411 1051 z "},"ŗ":{"ha":560,"x_min":74,"x_max":546,"o":"m 293 600 q 395 710 331 672 q 546 750 460 749 l 546 575 q 362 522 431 582 q 293 358 293 461 l 293 0 l 113 0 l 113 743 l 293 743 l 293 600 m 121 -82 l 282 -82 l 196 -311 l 74 -311 l 121 -82 z "},"ȑ":{"ha":560,"x_min":33,"x_max":546,"o":"m 293 600 q 395 710 331 672 q 546 750 460 749 l 546 575 q 362 522 431 582 q 293 358 293 461 l 293 0 l 113 0 l 113 743 l 293 743 l 293 600 m 182 1064 l 292 854 l 161 842 l 33 1000 l 182 1064 m 422 1064 l 532 854 l 401 842 l 274 1000 l 422 1064 z "},"ṛ":{"ha":560,"x_min":97,"x_max":546,"o":"m 293 600 q 395 710 331 672 q 546 750 460 749 l 546 575 q 362 522 431 582 q 293 358 293 461 l 293 0 l 113 0 l 113 743 l 293 743 l 293 600 m 200 -97 q 274 -128 244 -97 q 303 -206 303 -158 q 274 -282 303 -251 q 200 -312 244 -312 q 126 -282 156 -312 q 97 -206 97 -251 q 126 -128 97 -158 q 200 -97 156 -97 z "},"ȓ":{"ha":560,"x_min":113,"x_max":546,"o":"m 293 600 q 395 710 331 672 q 546 750 460 749 l 546 575 q 362 522 431 582 q 293 358 293 461 l 293 0 l 113 0 l 113 743 l 293 743 l 293 600 m 129 840 q 189 989 132 932 q 333 1046 246 1046 q 478 989 421 1046 q 538 840 535 932 l 418 840 q 392 903 415 879 q 333 928 368 928 q 275 903 299 928 q 249 840 251 879 l 129 840 z "},"ṟ":{"ha":560,"x_min":-8,"x_max":546,"o":"m 293 600 q 395 710 331 672 q 546 750 460 749 l 546 575 q 362 522 431 582 q 293 358 293 461 l 293 0 l 113 0 l 113 743 l 293 743 l 293 600 m -8 -111 l 407 -111 l 407 -226 l -8 -226 l -8 -111 z "},"s":{"ha":669,"x_min":28,"x_max":628,"o":"m 553 542 q 441 592 499 574 q 335 610 383 610 q 262 594 289 610 q 235 544 235 578 q 269 491 235 510 q 376 451 303 472 q 504 405 454 428 q 591 337 554 382 q 628 218 628 292 q 544 51 628 110 q 335 -7 461 -7 q 167 20 249 -7 q 28 97 85 47 l 90 224 q 210 156 140 181 q 342 132 279 132 q 422 149 392 132 q 451 201 451 167 q 417 260 451 240 q 304 303 382 279 q 182 347 229 325 q 100 412 135 368 q 65 526 65 456 q 145 694 65 636 q 346 751 225 751 q 491 731 419 751 q 618 672 563 710 l 553 542 z "},"ś":{"ha":669,"x_min":28,"x_max":628,"o":"m 553 542 q 441 592 499 574 q 335 610 383 610 q 262 594 289 610 q 235 544 235 578 q 269 491 235 510 q 376 451 303 472 q 504 405 454 428 q 591 337 554 382 q 628 218 628 292 q 544 51 628 110 q 335 -7 461 -7 q 167 20 249 -7 q 28 97 85 47 l 90 224 q 210 156 140 181 q 342 132 279 132 q 422 149 392 132 q 451 201 451 167 q 417 260 451 240 q 304 303 382 279 q 182 347 229 325 q 100 412 135 368 q 65 526 65 456 q 145 694 65 636 q 346 751 225 751 q 491 731 419 751 q 618 672 563 710 l 553 542 m 397 1056 l 571 985 l 393 842 l 253 856 l 397 1056 z "},"ṥ":{"ha":669,"x_min":28,"x_max":628,"o":"m 553 542 q 441 592 499 574 q 335 610 383 610 q 262 594 289 610 q 235 544 235 578 q 269 491 235 510 q 376 451 303 472 q 504 405 454 428 q 591 337 554 382 q 628 218 628 292 q 544 51 628 110 q 335 -7 461 -7 q 167 20 249 -7 q 28 97 85 47 l 90 224 q 210 156 140 181 q 342 132 279 132 q 422 149 392 132 q 451 201 451 167 q 417 260 451 240 q 304 303 382 279 q 182 347 229 325 q 100 412 135 368 q 65 526 65 456 q 145 694 65 636 q 346 751 225 751 q 491 731 419 751 q 618 672 563 710 l 553 542 m 361 1035 l 506 942 l 307 833 l 183 869 l 361 1035 m 343 1257 q 410 1229 383 1257 q 436 1158 436 1201 q 410 1090 436 1118 q 343 1063 383 1063 q 277 1090 304 1063 q 250 1158 250 1118 q 276 1229 250 1201 q 343 1257 303 1257 z "},"ꞌ":{"ha":382,"x_min":100,"x_max":282,"o":"m 101 933 l 282 933 l 258 418 l 100 418 l 101 933 z "},"š":{"ha":669,"x_min":28,"x_max":628,"o":"m 553 542 q 441 592 499 574 q 335 610 383 610 q 262 594 289 610 q 235 544 235 578 q 269 491 235 510 q 376 451 303 472 q 504 405 454 428 q 591 337 554 382 q 628 218 628 292 q 544 51 628 110 q 335 -7 461 -7 q 167 20 249 -7 q 28 97 85 47 l 90 224 q 210 156 140 181 q 342 132 279 132 q 422 149 392 132 q 451 201 451 167 q 417 260 451 240 q 304 303 382 279 q 182 347 229 325 q 100 412 135 368 q 65 526 65 456 q 145 694 65 636 q 346 751 225 751 q 491 731 419 751 q 618 672 563 710 l 553 542 m 422 1051 l 583 1051 l 433 851 l 258 851 l 108 1051 l 269 1051 l 346 964 l 422 1051 z "},"ṧ":{"ha":669,"x_min":28,"x_max":628,"o":"m 553 542 q 441 592 499 574 q 335 610 383 610 q 262 594 289 610 q 235 544 235 578 q 269 491 235 510 q 376 451 303 472 q 504 405 454 428 q 591 337 554 382 q 628 218 628 292 q 544 51 628 110 q 335 -7 461 -7 q 167 20 249 -7 q 28 97 85 47 l 90 224 q 210 156 140 181 q 342 132 279 132 q 422 149 392 132 q 451 201 451 167 q 417 260 451 240 q 304 303 382 279 q 182 347 229 325 q 100 412 135 368 q 65 526 65 456 q 145 694 65 636 q 346 751 225 751 q 491 731 419 751 q 618 672 563 710 l 553 542 m 449 986 l 624 986 l 474 836 l 246 836 l 94 986 l 269 986 l 358 911 l 449 986 m 358 1225 q 425 1197 399 1225 q 451 1126 451 1169 q 425 1058 451 1086 q 358 1031 399 1031 q 292 1058 319 1031 q 265 1126 265 1086 q 292 1197 265 1169 q 358 1225 318 1225 z "},"ş":{"ha":669,"x_min":28,"x_max":628,"o":"m 628 218 q 567 70 628 126 q 407 -1 506 14 l 379 -74 q 465 -113 438 -83 q 493 -185 493 -143 q 447 -278 493 -246 q 328 -311 400 -311 q 189 -282 260 -311 l 222 -185 q 301 -200 265 -200 q 343 -190 328 -200 q 358 -167 358 -181 q 340 -142 358 -151 q 289 -132 322 -132 l 247 -132 l 289 -6 q 146 28 215 1 q 28 97 76 54 l 90 224 q 210 156 140 181 q 342 132 279 132 q 422 149 392 132 q 451 201 451 167 q 417 260 451 240 q 304 303 382 279 q 182 347 229 325 q 100 412 135 368 q 65 526 65 456 q 145 694 65 636 q 346 751 225 751 q 491 731 419 751 q 618 672 563 710 l 553 542 q 441 592 499 574 q 335 610 383 610 q 262 594 289 610 q 235 544 235 578 q 269 491 235 510 q 376 451 303 472 q 504 405 454 428 q 591 337 554 382 q 628 218 628 292 z "},"ŝ":{"ha":669,"x_min":28,"x_max":628,"o":"m 553 542 q 441 592 499 574 q 335 610 383 610 q 262 594 289 610 q 235 544 235 578 q 269 491 235 510 q 376 451 303 472 q 504 405 454 428 q 591 337 554 382 q 628 218 628 292 q 544 51 628 110 q 335 -7 461 -7 q 167 20 249 -7 q 28 97 85 47 l 90 224 q 210 156 140 181 q 342 132 279 132 q 422 149 392 132 q 451 201 451 167 q 417 260 451 240 q 304 303 382 279 q 182 347 229 325 q 100 412 135 368 q 65 526 65 456 q 145 694 65 636 q 346 751 225 751 q 491 731 419 751 q 618 672 563 710 l 553 542 m 582 851 l 421 851 l 344 939 l 268 851 l 107 851 l 257 1051 l 432 1051 l 582 851 z "},"ș":{"ha":669,"x_min":28,"x_max":628,"o":"m 553 542 q 441 592 499 574 q 335 610 383 610 q 262 594 289 610 q 235 544 235 578 q 269 491 235 510 q 376 451 303 472 q 504 405 454 428 q 591 337 554 382 q 628 218 628 292 q 544 51 628 110 q 335 -7 461 -7 q 167 20 249 -7 q 28 97 85 47 l 90 224 q 210 156 140 181 q 342 132 279 132 q 422 149 392 132 q 451 201 451 167 q 417 260 451 240 q 304 303 382 279 q 182 347 229 325 q 100 412 135 368 q 65 526 65 456 q 145 694 65 636 q 346 751 225 751 q 491 731 419 751 q 618 672 563 710 l 553 542 m 254 -82 l 415 -82 l 329 -311 l 207 -311 l 254 -82 z "},"ṡ":{"ha":669,"x_min":28,"x_max":628,"o":"m 553 542 q 441 592 499 574 q 335 610 383 610 q 262 594 289 610 q 235 544 235 578 q 269 491 235 510 q 376 451 303 472 q 504 405 454 428 q 591 337 554 382 q 628 218 628 292 q 544 51 628 110 q 335 -7 461 -7 q 167 20 249 -7 q 28 97 85 47 l 90 224 q 210 156 140 181 q 342 132 279 132 q 422 149 392 132 q 451 201 451 167 q 417 260 451 240 q 304 303 382 279 q 182 347 229 325 q 100 412 135 368 q 65 526 65 456 q 145 694 65 636 q 346 751 225 751 q 491 731 419 751 q 618 672 563 710 l 553 542 m 344 1063 q 418 1032 389 1063 q 447 954 447 1001 q 418 878 447 908 q 344 847 389 847 q 271 878 300 847 q 242 954 242 908 q 271 1032 242 1001 q 344 1063 300 1063 z "},"ṣ":{"ha":669,"x_min":28,"x_max":628,"o":"m 553 542 q 441 592 499 574 q 335 610 383 610 q 262 594 289 610 q 235 544 235 578 q 269 491 235 510 q 376 451 303 472 q 504 405 454 428 q 591 337 554 382 q 628 218 628 292 q 544 51 628 110 q 335 -7 461 -7 q 167 20 249 -7 q 28 97 85 47 l 90 224 q 210 156 140 181 q 342 132 279 132 q 422 149 392 132 q 451 201 451 167 q 417 260 451 240 q 304 303 382 279 q 182 347 229 325 q 100 412 135 368 q 65 526 65 456 q 145 694 65 636 q 346 751 225 751 q 491 731 419 751 q 618 672 563 710 l 553 542 m 333 -97 q 407 -128 378 -97 q 436 -206 436 -158 q 407 -282 436 -251 q 333 -312 378 -312 q 260 -282 289 -312 q 231 -206 231 -251 q 260 -128 231 -158 q 333 -97 289 -97 z "},"ṩ":{"ha":669,"x_min":28,"x_max":628,"o":"m 553 542 q 441 592 499 574 q 335 610 383 610 q 262 594 289 610 q 235 544 235 578 q 269 491 235 510 q 376 451 303 472 q 504 405 454 428 q 591 337 554 382 q 628 218 628 292 q 544 51 628 110 q 335 -7 461 -7 q 167 20 249 -7 q 28 97 85 47 l 90 224 q 210 156 140 181 q 342 132 279 132 q 422 149 392 132 q 451 201 451 167 q 417 260 451 240 q 304 303 382 279 q 182 347 229 325 q 100 412 135 368 q 65 526 65 456 q 145 694 65 636 q 346 751 225 751 q 491 731 419 751 q 618 672 563 710 l 553 542 m 333 -97 q 407 -128 378 -97 q 436 -206 436 -158 q 407 -282 436 -251 q 333 -312 378 -312 q 260 -282 289 -312 q 231 -206 231 -251 q 260 -128 231 -158 q 333 -97 289 -97 m 333 1063 q 407 1032 378 1063 q 436 954 436 1001 q 407 878 436 908 q 333 847 378 847 q 260 878 289 847 q 231 954 231 908 q 260 1032 231 1001 q 333 1063 289 1063 z "},"ß":{"ha":911,"x_min":101,"x_max":850,"o":"m 101 679 q 144 870 101 789 q 269 995 188 951 q 461 1039 350 1039 q 635 1006 560 1039 q 752 910 710 972 q 794 767 794 849 q 753 624 794 689 q 640 531 711 560 q 793 448 736 508 q 850 294 850 388 q 804 142 850 208 q 674 38 758 75 q 479 0 590 0 l 410 0 l 410 139 l 486 139 q 623 181 572 139 q 674 292 674 222 q 615 402 674 363 q 456 442 557 442 l 436 442 l 436 581 q 569 623 521 581 q 618 740 618 665 q 575 852 618 811 q 460 893 532 893 q 328 840 376 893 q 281 693 281 786 l 281 0 l 101 0 l 101 679 z "},"t":{"ha":576,"x_min":38,"x_max":547,"o":"m 547 46 q 361 -8 458 -8 q 204 48 265 -8 q 143 214 143 104 l 143 581 l 39 581 l 38 713 l 143 713 l 143 917 l 322 917 l 322 713 l 535 713 l 535 581 l 322 581 l 322 246 q 342 173 322 194 q 400 151 361 151 q 506 182 442 151 l 547 46 z "},"ŧ":{"ha":576,"x_min":39,"x_max":547,"o":"m 547 46 q 361 -8 458 -8 q 204 48 265 -8 q 143 214 143 104 l 143 342 l 39 342 l 39 467 l 143 467 l 143 588 l 39 588 l 39 713 l 143 713 l 143 917 l 322 917 l 322 713 l 535 713 l 535 588 l 322 588 l 322 467 l 535 467 l 535 342 l 322 342 l 322 246 q 342 173 322 194 q 400 151 361 151 q 506 182 442 151 l 547 46 z "},"ť":{"ha":576,"x_min":38,"x_max":564,"o":"m 547 46 q 361 -8 458 -8 q 204 48 265 -8 q 143 214 143 104 l 143 581 l 39 581 l 38 713 l 143 713 l 143 917 l 322 917 l 322 713 l 535 713 l 535 581 l 322 581 l 322 246 q 342 173 322 194 q 400 151 361 151 q 506 182 442 151 l 547 46 m 407 1031 l 564 1031 l 525 794 l 407 794 l 407 1031 z "},"ţ":{"ha":576,"x_min":38,"x_max":547,"o":"m 406 -74 q 492 -113 464 -83 q 519 -185 519 -143 q 473 -278 519 -246 q 354 -311 426 -311 q 215 -282 286 -311 l 249 -185 q 328 -200 292 -200 q 369 -190 354 -200 q 385 -167 385 -181 q 367 -142 385 -151 q 315 -132 349 -132 l 274 -132 l 315 -4 q 190 63 238 8 q 143 214 143 118 l 143 581 l 39 581 l 38 713 l 143 713 l 143 917 l 322 917 l 322 713 l 535 713 l 535 581 l 322 581 l 322 246 q 342 173 322 194 q 400 151 361 151 q 506 182 442 151 l 547 46 q 433 0 493 13 l 406 -74 z "},"ț":{"ha":576,"x_min":38,"x_max":547,"o":"m 547 46 q 361 -8 458 -8 q 204 48 265 -8 q 143 214 143 104 l 143 581 l 39 581 l 38 713 l 143 713 l 143 917 l 322 917 l 322 713 l 535 713 l 535 581 l 322 581 l 322 246 q 342 173 322 194 q 400 151 361 151 q 506 182 442 151 l 547 46 m 281 -82 l 442 -82 l 356 -311 l 233 -311 l 281 -82 z "},"ẗ":{"ha":576,"x_min":19,"x_max":547,"o":"m 547 46 q 361 -8 458 -8 q 204 48 265 -8 q 143 214 143 104 l 143 581 l 39 581 l 38 713 l 143 713 l 143 917 l 322 917 l 322 713 l 535 713 l 535 581 l 322 581 l 322 246 q 342 173 322 194 q 400 151 361 151 q 506 182 442 151 l 547 46 m 108 1217 q 172 1190 147 1217 q 197 1124 197 1164 q 172 1058 197 1083 q 108 1032 147 1032 q 44 1058 69 1032 q 19 1124 19 1083 q 44 1190 19 1164 q 108 1217 69 1217 m 360 1217 q 424 1190 399 1217 q 450 1124 450 1164 q 424 1058 450 1085 q 360 1032 399 1032 q 297 1058 322 1032 q 271 1124 271 1085 q 297 1190 271 1164 q 360 1217 322 1217 z "},"ṭ":{"ha":576,"x_min":38,"x_max":547,"o":"m 547 46 q 361 -8 458 -8 q 204 48 265 -8 q 143 214 143 104 l 143 581 l 39 581 l 38 713 l 143 713 l 143 917 l 322 917 l 322 713 l 535 713 l 535 581 l 322 581 l 322 246 q 342 173 322 194 q 400 151 361 151 q 506 182 442 151 l 547 46 m 360 -97 q 433 -128 404 -97 q 463 -206 463 -158 q 433 -282 463 -251 q 360 -312 404 -312 q 286 -282 315 -312 q 257 -206 257 -251 q 286 -128 257 -158 q 360 -97 315 -97 z "},"ṯ":{"ha":576,"x_min":38,"x_max":567,"o":"m 547 46 q 361 -8 458 -8 q 204 48 265 -8 q 143 214 143 104 l 143 581 l 39 581 l 38 713 l 143 713 l 143 917 l 322 917 l 322 713 l 535 713 l 535 581 l 322 581 l 322 246 q 342 173 322 194 q 400 151 361 151 q 506 182 442 151 l 547 46 m 151 -111 l 567 -111 l 567 -226 l 151 -226 l 151 -111 z "},"u":{"ha":911,"x_min":89,"x_max":799,"o":"m 799 743 l 799 0 l 617 0 l 617 138 q 358 -7 542 -7 q 161 69 233 -7 q 89 278 89 146 l 89 743 l 271 743 l 271 331 q 313 208 271 253 q 431 164 356 164 q 567 225 517 165 q 617 376 617 285 l 617 743 l 799 743 z "},"ú":{"ha":911,"x_min":89,"x_max":799,"o":"m 799 743 l 799 0 l 617 0 l 617 138 q 358 -7 542 -7 q 161 69 233 -7 q 89 278 89 146 l 89 743 l 271 743 l 271 331 q 313 208 271 253 q 431 164 356 164 q 567 225 517 165 q 617 376 617 285 l 617 743 l 799 743 m 508 1056 l 682 985 l 504 842 l 364 856 l 508 1056 z "},"ŭ":{"ha":911,"x_min":89,"x_max":799,"o":"m 799 743 l 799 0 l 617 0 l 617 138 q 358 -7 542 -7 q 161 69 233 -7 q 89 278 89 146 l 89 743 l 271 743 l 271 331 q 313 208 271 253 q 431 164 356 164 q 567 225 517 165 q 617 376 617 285 l 617 743 l 799 743 m 371 1046 q 397 982 374 1007 q 456 957 421 957 q 514 982 490 957 q 540 1046 538 1007 l 660 1046 q 600 897 657 954 q 456 840 543 840 q 311 897 368 840 q 251 1046 254 954 l 371 1046 z "},"û":{"ha":911,"x_min":89,"x_max":799,"o":"m 799 743 l 799 0 l 617 0 l 617 138 q 358 -7 542 -7 q 161 69 233 -7 q 89 278 89 146 l 89 743 l 271 743 l 271 331 q 313 208 271 253 q 431 164 356 164 q 567 225 517 165 q 617 376 617 285 l 617 743 l 799 743 m 693 851 l 532 851 l 456 939 l 379 851 l 218 851 l 368 1051 l 543 1051 l 693 851 z "},"ȕ":{"ha":911,"x_min":89,"x_max":799,"o":"m 799 743 l 799 0 l 617 0 l 617 138 q 358 -7 542 -7 q 161 69 233 -7 q 89 278 89 146 l 89 743 l 271 743 l 271 331 q 313 208 271 253 q 431 164 356 164 q 567 225 517 165 q 617 376 617 285 l 617 743 l 799 743 m 304 1064 l 414 854 l 283 842 l 156 1000 l 304 1064 m 544 1064 l 654 854 l 524 842 l 396 1000 l 544 1064 z "},"ü":{"ha":911,"x_min":89,"x_max":799,"o":"m 799 743 l 799 0 l 617 0 l 617 138 q 358 -7 542 -7 q 161 69 233 -7 q 89 278 89 146 l 89 743 l 271 743 l 271 331 q 313 208 271 253 q 431 164 356 164 q 567 225 517 165 q 617 376 617 285 l 617 743 l 799 743 m 331 1043 q 394 1017 369 1043 q 419 950 419 990 q 394 884 419 910 q 331 858 369 858 q 267 884 292 858 q 242 950 242 910 q 267 1017 242 990 q 331 1043 292 1043 m 582 1043 q 647 1017 621 1043 q 672 950 672 990 q 647 885 672 911 q 582 858 621 858 q 519 885 544 858 q 493 950 493 911 q 519 1017 493 990 q 582 1043 544 1043 z "},"ụ":{"ha":911,"x_min":89,"x_max":799,"o":"m 799 743 l 799 0 l 617 0 l 617 138 q 358 -7 542 -7 q 161 69 233 -7 q 89 278 89 146 l 89 743 l 271 743 l 271 331 q 313 208 271 253 q 431 164 356 164 q 567 225 517 165 q 617 376 617 285 l 617 743 l 799 743 m 456 -97 q 529 -128 500 -97 q 558 -206 558 -158 q 529 -282 558 -251 q 456 -312 500 -312 q 382 -282 411 -312 q 353 -206 353 -251 q 382 -128 353 -158 q 456 -97 411 -97 z "},"ù":{"ha":911,"x_min":89,"x_max":799,"o":"m 799 743 l 799 0 l 617 0 l 617 138 q 358 -7 542 -7 q 161 69 233 -7 q 89 278 89 146 l 89 743 l 271 743 l 271 331 q 313 208 271 253 q 431 164 356 164 q 567 225 517 165 q 617 376 617 285 l 617 743 l 799 743 m 396 1056 l 536 856 l 394 842 l 222 985 l 396 1056 z "},"ủ":{"ha":911,"x_min":89,"x_max":799,"o":"m 799 743 l 799 0 l 617 0 l 617 138 q 358 -7 542 -7 q 161 69 233 -7 q 89 278 89 146 l 89 743 l 271 743 l 271 331 q 313 208 271 253 q 431 164 356 164 q 567 225 517 165 q 617 376 617 285 l 617 743 l 799 743 m 458 1106 q 560 1074 519 1106 q 601 986 601 1042 q 571 894 601 943 q 492 803 540 846 l 400 844 q 443 901 428 871 q 458 954 458 932 q 447 981 458 971 q 419 990 436 990 q 369 974 393 990 l 315 1060 q 458 1106 379 1106 z "},"ư":{"ha":925,"x_min":89,"x_max":938,"o":"m 910 938 q 938 814 938 872 q 902 706 938 750 q 799 644 867 663 l 799 0 l 617 0 l 617 138 q 358 -7 542 -7 q 161 69 233 -7 q 89 278 89 146 l 89 743 l 271 743 l 271 331 q 313 208 271 253 q 431 164 356 164 q 567 225 517 165 q 617 376 617 285 l 617 743 l 707 743 q 774 763 751 743 q 797 815 797 782 q 776 888 797 850 l 910 938 z "}}}
